<?xml version="1.0" standalone="no"?>
<!DOCTYPE svg PUBLIC "-//W3C//DTD SVG 1.1//EN" "http://www.w3.org/Graphics/SVG/1.1/DTD/svg11.dtd" >
<svg xmlns="http://www.w3.org/2000/svg" xmlns:xlink="http://www.w3.org/1999/xlink" version="1.1">
<metadata>
Created by FontForge 20170731 at Sun Nov 26 14:28:29 2017
 By Aleksey,,,
Copyright (c) 2012 by [29 Arabic Letters] - Pascal Zoghbi. All rights reserved.
</metadata>
<defs>
<font id="29LTBukra-Bold" horiz-adv-x="0" >
  <font-face 
    font-family="29LT Bukra Bold"
    font-weight="700"
    font-stretch="normal"
    units-per-em="2048"
    panose-1="0 11 9 3 2 2 4 2 2 4"
    ascent="1690"
    descent="-358"
    x-height="1153"
    cap-height="1661"
    bbox="-309 -698 3074 2142"
    underline-thickness="102"
    underline-position="-715"
    unicode-range="U+000D-FEFC"
  />
<missing-glyph horiz-adv-x="1024" 
 />
    <glyph glyph-name="uniFEF5" unicode="&#xfedf;&#xfe82;" horiz-adv-x="1527" arabic-form="isolated" 
d="M113 287h583q70 0 129.5 17.5t102.5 51.5q41 35 63.5 86.5t22.5 126.5v1243h420v-286h-134v-946q0 -127 -37.5 -244t-115.5 -189q-88 -80 -216 -113.5t-294 -33.5h-490zM219 1575v133h559v-133h-559zM403 389v1079h287v-1079h-287z" />
    <glyph glyph-name="uniFEF6" unicode="&#xfee0;&#xfe82;" horiz-adv-x="1531" arabic-form="final" 
d="M113 287h583q70 0 129.5 17.5t102.5 51.5q41 35 63.5 86.5t22.5 126.5v1243h420v-286h-134v-946q0 -94 -22 -189q92 -104 295 -104v-287q-94 0 -158.5 18.5t-108.5 47t-71 63.5t-41 70q-25 -31 -47 -52q-88 -80 -216 -113.5t-294 -33.5h-490zM223 1575v133h559v-133h-559
zM403 389v1079h287v-1079h-287z" />
    <glyph glyph-name="uniFEF7" unicode="&#xfedf;&#xfe84;" horiz-adv-x="1527" arabic-form="isolated" 
d="M113 287h583q70 0 129.5 17.5t102.5 51.5q41 35 63.5 86.5t22.5 126.5v1243h420v-286h-134v-946q0 -127 -37.5 -244t-115.5 -189q-88 -80 -216 -113.5t-294 -33.5h-490zM285 1575v94q0 139 68.5 196.5t189.5 57.5h102v-92h-86q-61 0 -85.5 -26.5t-24.5 -75.5h262v-154
h-426zM403 389v1079h287v-1079h-287z" />
    <glyph glyph-name="uniFEF8" unicode="&#xfee0;&#xfe84;" horiz-adv-x="1531" arabic-form="final" 
d="M113 287h583q70 0 129.5 17.5t102.5 51.5q41 35 63.5 86.5t22.5 126.5v1243h420v-286h-134v-946q0 -94 -22 -189q92 -104 295 -104v-287q-94 0 -158.5 18.5t-108.5 47t-71 63.5t-41 70q-25 -31 -47 -52q-88 -80 -216 -113.5t-294 -33.5h-490zM285 1575v94
q0 139 68.5 196.5t189.5 57.5h102v-92h-86q-61 0 -85.5 -26.5t-24.5 -75.5h262v-154h-426zM403 389v1079h287v-1079h-287z" />
    <glyph glyph-name="uniFEF9" unicode="&#xfedf;&#xfe88;" horiz-adv-x="1527" arabic-form="isolated" 
d="M113 287h583q70 0 129.5 17.5t102.5 51.5q41 35 63.5 86.5t22.5 126.5v1243h420v-286h-134v-946q0 -127 -37.5 -244t-115.5 -189q-88 -80 -216 -113.5t-294 -33.5h-490zM285 -158h426v-153h-262q0 -49 24.5 -76t85.5 -27h86v-92h-102q-121 0 -189.5 57.5t-68.5 196.5v94z
M403 389v1079h287v-1079h-287z" />
    <glyph glyph-name="uniFEFA" unicode="&#xfee0;&#xfe88;" horiz-adv-x="1531" arabic-form="final" 
d="M113 287h583q70 0 129.5 17.5t102.5 51.5q41 35 63.5 86.5t22.5 126.5v1243h420v-286h-134v-946q0 -94 -22 -189q92 -104 295 -104v-287q-94 0 -158.5 18.5t-108.5 47t-71 63.5t-41 70q-25 -31 -47 -52q-88 -80 -216 -113.5t-294 -33.5h-490zM285 -158h426v-153h-262
q0 -49 24.5 -76t85.5 -27h86v-92h-102q-121 0 -189.5 57.5t-68.5 196.5v94zM403 389v1079h287v-1079h-287z" />
    <glyph glyph-name="uniFEFB" unicode="&#xfedf;&#xfe8e;" horiz-adv-x="1527" arabic-form="isolated" 
d="M113 287h583q70 0 129.5 17.5t102.5 51.5q41 35 63.5 86.5t22.5 126.5v1243h420v-286h-134v-946q0 -127 -37.5 -244t-115.5 -189q-88 -80 -216 -113.5t-294 -33.5h-490zM403 389v1079h287v-1079h-287z" />
    <glyph glyph-name="uniFEFC" unicode="&#xfee0;&#xfe8e;" horiz-adv-x="1531" arabic-form="final" 
d="M113 287h583q70 0 129.5 17.5t102.5 51.5q41 35 63.5 86.5t22.5 126.5v1243h420v-286h-134v-946q0 -94 -22 -189q92 -104 295 -104v-287q-94 0 -158.5 18.5t-108.5 47t-71 63.5t-41 70q-25 -31 -47 -52q-88 -80 -216 -113.5t-294 -33.5h-490zM403 389v1079h287v-1079
h-287z" />
    <glyph glyph-name="uni06440671" unicode="&#xfedf;&#xfb51;" horiz-adv-x="1472" 
d="M113 287h583q70 0 129.5 17.5t102.5 51.5q41 35 63.5 86.5t22.5 126.5v1243h420v-286h-134v-946q0 -127 -37.5 -244t-115.5 -189q-88 -80 -216 -113.5t-294 -33.5h-490zM258 1524v112h141q0 37 12.5 71t37 59.5t59.5 42t78 16.5q104 0 167.5 -55.5t63.5 -165.5v-80h-559z
M403 389v1079h287v-1079h-287zM492 1636h182q0 37 -22.5 67t-69.5 30t-68.5 -29t-21.5 -68z" />
    <glyph glyph-name="uni06440671.fina" unicode="&#xfee0;&#xfb51;" horiz-adv-x="1527" 
d="M113 287h583q70 0 129.5 17.5t102.5 51.5q41 35 63.5 86.5t22.5 126.5v1243h420v-286h-134v-946q0 -94 -22 -189q92 -104 295 -104v-287q-94 0 -158.5 18.5t-108.5 47t-71 63.5t-41 70q-25 -31 -47 -52q-88 -80 -216 -113.5t-294 -33.5h-490zM258 1524v112h141
q0 37 12.5 71t37 59.5t59.5 42t78 16.5q104 0 167.5 -55.5t63.5 -165.5v-80h-559zM403 389v1079h287v-1079h-287zM492 1636h182q0 37 -22.5 67t-69.5 30t-68.5 -29t-21.5 -68z" />
    <glyph glyph-name="uni066E.init" unicode="&#x66e;" horiz-adv-x="663" 
d="M0 0v287h254v866h287v-1153h-541z" />
    <glyph glyph-name="uni066E.medi" unicode="&#x66e;" horiz-adv-x="720" 
d="M0 0v287h254v866h287v-866h219v-287h-760z" />
    <glyph glyph-name="uni066E.fina" unicode="&#x66e;" horiz-adv-x="1824" 
d="M104 592v387h287v-352q0 -92 19.5 -156.5t66.5 -105.5q53 -45 133 -61.5t172 -16.5h574v866h286v-866h222v-287h-1102q-92 0 -167 9t-138.5 29.5t-115.5 52.5t-99 77q-76 72 -107 185.5t-31 238.5z" />
    <glyph glyph-name="uni066F.init" unicode="&#x66f;" horiz-adv-x="1294" 
d="M0 0v287h274q-45 59 -71.5 130.5t-26.5 160.5q0 135 50 241.5t140.5 181t217.5 113.5t280 39h338v-1153h-1202zM463 578q0 -94 42 -168t113 -123h297v579h-120q-61 0 -122 -18.5t-107 -55t-74.5 -90.5t-28.5 -124z" />
    <glyph glyph-name="uni066F.medi" unicode="&#x66f;" horiz-adv-x="1351" 
d="M0 0v287h274q-45 59 -71.5 130.5t-26.5 160.5q0 135 50 241.5t140.5 181t217.5 113.5t280 39h338v-866h191v-287h-1393zM463 578q0 -94 42 -168t113 -123h297v579h-120q-61 0 -122 -18.5t-107 -55t-74.5 -90.5t-28.5 -124z" />
    <glyph glyph-name="uni066F.fina" unicode="&#x66f;" horiz-adv-x="1849" 
d="M106 141v449h287v-414q0 -92 19.5 -156.5t66.5 -105.5q53 -45 133 -61.5t172 -16.5h596v164h-37q-147 0 -275 33t-223 102.5t-149.5 179t-54.5 263.5q0 135 52 241.5t145.5 180t222.5 113.5t282 40h324v-866h221v-287h-221v-451h-903q-92 0 -167 9.5t-138.5 30t-115.5 52
t-99 76.5q-76 72 -107 185.5t-31 238.5zM928 578q0 -72 25.5 -126.5t70.5 -91t105.5 -55t130.5 -18.5h120v579h-120q-63 0 -124 -20.5t-107 -58t-73.5 -90.5t-27.5 -119z" />
    <glyph glyph-name="uni06A1.init" unicode="&#x6a1;" horiz-adv-x="1294" 
d="M0 0v287h274q-45 59 -71.5 130.5t-26.5 160.5q0 135 50 241.5t140.5 181t217.5 113.5t280 39h338v-1153h-1202zM463 578q0 -94 42 -168t113 -123h297v579h-120q-61 0 -122 -18.5t-107 -55t-74.5 -90.5t-28.5 -124z" />
    <glyph glyph-name="uni06A1.medi" unicode="&#x6a1;" horiz-adv-x="1351" 
d="M0 0v287h274q-45 59 -71.5 130.5t-26.5 160.5q0 135 50 241.5t140.5 181t217.5 113.5t280 39h338v-866h191v-287h-1393zM463 578q0 -94 42 -168t113 -123h297v579h-120q-61 0 -122 -18.5t-107 -55t-74.5 -90.5t-28.5 -124z" />
    <glyph glyph-name="uni06A1.fina" unicode="&#x6a1;" horiz-adv-x="2351" 
d="M180 592v387h287v-352q0 -92 19.5 -156.5t66.5 -105.5q53 -45 133 -61.5t172 -16.5h334q-45 59 -71.5 130.5t-26.5 160.5q0 135 50 241.5t140 181t217 113.5t281 39h338v-866h221v-287h-1503q-92 0 -167 9t-138.5 29.5t-115.5 52.5t-100 77q-76 72 -106.5 185.5
t-30.5 238.5zM1380 578q0 -94 42 -168t114 -123h297v579h-121q-61 0 -121.5 -18.5t-106.5 -55t-75 -90.5t-29 -124z" />
    <glyph glyph-name="uni06BA.init" unicode="&#x6ba;" horiz-adv-x="663" 
d="M0 0v287h254v866h287v-1153h-541zM223 1481q0 68 48 109.5t120 41.5t120 -42t48 -109q0 -76 -50 -115t-117.5 -39t-118 39t-50.5 115z" />
    <glyph glyph-name="uni06BA.medi" unicode="&#x6ba;" horiz-adv-x="720" 
d="M0 0v287h254v866h287v-866h219v-287h-760zM221 1481q0 68 48 109.5t120 41.5t120 -42t48 -109q0 -76 -50 -115t-117.5 -39t-118 39t-50.5 115z" />
    <glyph glyph-name="uni06D5.fina" unicode="&#x6d5;" horiz-adv-x="1288" 
d="M113 575q0 125 47 230.5t137 182.5t220 121t296 44h41v102h287v-968h188v-287h-516q-154 0 -282 35t-221 106.5t-145 180t-52 253.5zM399 575q0 -72 28 -125t74 -89.5t105.5 -55t122.5 -18.5h125v579h-111q-63 0 -124.5 -19.5t-110.5 -56t-79 -91t-30 -124.5z" />
    <glyph glyph-name="uniFB51" unicode="&#x671;" horiz-adv-x="786" arabic-form="final" 
d="M143 1505v113h142q0 37 12 70.5t36.5 59.5t59.5 42t78 16q104 0 167.5 -55t63.5 -166v-80h-559zM279 0v1413h286v-1126h262v-287h-548zM377 1618h182q0 37 -22.5 66.5t-69.5 29.5t-68.5 -28.5t-21.5 -67.5z" />
    <glyph glyph-name="uniFB57" unicode="&#x67e;" horiz-adv-x="1824" arabic-form="final" 
d="M104 592v387h287v-352q0 -92 19.5 -156.5t66.5 -105.5q53 -45 133 -61.5t172 -16.5h574v866h286v-866h222v-287h-1102q-92 0 -167 9t-138.5 29.5t-115.5 52.5t-99 77q-76 72 -107 185.5t-31 238.5zM614 -279q0 61 44 100.5t110 39.5t111 -39t45 -101q0 -72 -47.5 -107.5
t-108.5 -35.5t-107.5 36t-46.5 107zM848 -573q0 55 39 89.5t98 34.5t98 -34.5t39 -89.5q0 -61 -41 -93t-96 -32q-53 0 -95 31.5t-42 93.5zM1049 -279q0 61 44 100.5t109 39.5q68 0 112 -39t44 -101q0 -72 -46.5 -107.5t-109.5 -35.5q-61 0 -107 36t-46 107z" />
    <glyph glyph-name="uniFB58" unicode="&#x67e;" horiz-adv-x="868" arabic-form="initial" 
d="M0 0v287h428v866h287v-1153h-715zM92 -279q0 61 44 100.5t109.5 39.5t110.5 -39t45 -101q0 -72 -47 -107.5t-108.5 -35.5t-107.5 36t-46 107zM326 -573q0 55 38.5 89.5t98 34.5t98.5 -34.5t39 -89.5q0 -61 -41 -93t-96 -32q-53 0 -95 31.5t-42 93.5zM526 -279
q0 61 44 100.5t110 39.5q68 0 112 -39t44 -101q0 -72 -46.5 -107.5t-109.5 -35.5q-61 0 -107.5 36t-46.5 107z" />
    <glyph glyph-name="uniFB59" unicode="&#x67e;" horiz-adv-x="1050" arabic-form="medial" 
d="M0 0v287h428v866h287v-866h377v-287h-1092zM193 -279q0 61 44 100.5t109.5 39.5t110.5 -39t45 -101q0 -72 -47 -107.5t-108.5 -35.5t-107.5 36t-46 107zM426 -573q0 55 39 89.5t98.5 34.5t98 -34.5t38.5 -89.5q0 -61 -41 -93t-96 -32q-53 0 -95 31.5t-42 93.5zM627 -279
q0 61 44 100.5t109 39.5q68 0 112 -39t44 -101q0 -72 -46.5 -107.5t-109.5 -35.5q-61 0 -107 36t-46 107z" />
    <glyph glyph-name="uniFB67" unicode="&#x679;" horiz-adv-x="1712" arabic-form="final" 
d="M104 592v387h287v-352q0 -92 19.5 -156.5t66.5 -105.5q53 -45 133 -61.5t172 -16.5h574v866h286v-866h220v-287h-1100q-92 0 -167 9t-138.5 29.5t-115.5 52.5t-99 77q-76 72 -107 185.5t-31 238.5zM590 1114v113h102v303h121v-115h105q104 0 167.5 -55t63.5 -166v-80
h-559zM813 1227h193q0 37 -22.5 66.5t-63.5 29.5h-107v-96z" />
    <glyph glyph-name="uniFB68" unicode="&#x679;" horiz-adv-x="868" arabic-form="initial" 
d="M0 0v287h428v866h287v-1153h-715zM266 1321v113h103v303h120v-115h105q104 0 167.5 -55.5t63.5 -165.5v-80h-559zM489 1434h193q0 37 -22.5 66.5t-63.5 29.5h-107v-96z" />
    <glyph glyph-name="uniFB69" unicode="&#x679;" horiz-adv-x="993" arabic-form="medial" 
d="M0 0v287h428v866h287v-866h375v-287h-1090zM266 1321v113h103v303h120v-115h105q104 0 167.5 -55.5t63.5 -165.5v-80h-559zM489 1434h193q0 37 -22.5 66.5t-63.5 29.5h-107v-96z" />
    <glyph glyph-name="uniFB6B" unicode="&#x6a4;" horiz-adv-x="2224" arabic-form="final" 
d="M104 592v387h287v-352q0 -92 19.5 -156.5t66.5 -105.5q53 -45 133 -61.5t172 -16.5h334q-45 59 -71.5 130.5t-26.5 160.5q0 135 50 241.5t140 181t217 113.5t281 39h338v-866h219v-287h-1501q-92 0 -167 9t-138.5 29.5t-115.5 52.5t-99 77q-76 72 -107 185.5t-31 238.5z
M1282 1483q0 63 44 102t109.5 39t110.5 -39t45 -102q0 -72 -47 -108t-108.5 -36t-107.5 36t-46 108zM1305 578q0 -94 42 -168t113 -123h297v579h-121q-61 0 -121.5 -18.5t-106.5 -55t-74.5 -90.5t-28.5 -124zM1516 1790q0 55 38.5 90t98 35t98.5 -35t39 -90q0 -61 -41 -93
t-96 -32q-53 0 -95 32t-42 93zM1716 1483q0 63 44 102t110 39q68 0 111.5 -39t43.5 -102q0 -72 -46 -108t-109 -36q-61 0 -107.5 36t-46.5 108z" />
    <glyph glyph-name="uniFB6C" unicode="&#x6a4;" horiz-adv-x="1294" arabic-form="initial" 
d="M0 0v287h274q-45 59 -71.5 130.5t-26.5 160.5q0 135 50 241.5t140.5 181t217.5 113.5t280 39h338v-1153h-1202zM412 1483q0 63 44 102t109.5 39t110.5 -39t45 -102q0 -72 -47 -108t-108.5 -36t-107.5 36t-46 108zM463 578q0 -94 42 -168t113 -123h297v579h-120
q-61 0 -122 -18.5t-107 -55t-74.5 -90.5t-28.5 -124zM645 1790q0 55 39 90t98.5 35t98.5 -35t39 -90q0 -61 -41.5 -93t-96.5 -32q-53 0 -95 32t-42 93zM846 1483q0 63 44 102t109 39q68 0 112 -39t44 -102q0 -72 -46.5 -108t-109.5 -36q-61 0 -107 36t-46 108z" />
    <glyph glyph-name="uniFB6D" unicode="&#x6a4;" horiz-adv-x="1349" arabic-form="medial" 
d="M0 0v287h274q-45 59 -71.5 130.5t-26.5 160.5q0 135 50 241.5t140.5 181t217.5 113.5t280 39h338v-866h189v-287h-1391zM410 1483q0 63 44 102t109.5 39t110.5 -39t45 -102q0 -72 -47 -108t-108.5 -36t-107.5 36t-46 108zM463 578q0 -94 42 -168t113 -123h297v579h-120
q-61 0 -122 -18.5t-107 -55t-74.5 -90.5t-28.5 -124zM643 1790q0 55 39 90t98.5 35t98.5 -35t39 -90q0 -61 -41.5 -93t-96.5 -32q-53 0 -95 32t-42 93zM844 1483q0 63 44 102t109 39q68 0 112 -39t44 -102q0 -72 -46.5 -108t-109.5 -36q-61 0 -107 36t-46 108z" />
    <glyph glyph-name="uniFB7B" unicode="&#x686;" horiz-adv-x="1204" arabic-form="final" 
d="M51 117q0 29 1 50t3 39.5t6.5 38t8.5 42.5h757q16 68 25.5 147.5t9.5 145.5q0 63 -23.5 131.5t-76.5 115.5q-88 78 -242 78q-82 0 -149.5 -19.5t-147.5 -70.5l-119 250q100 57 211 92t240 35q127 0 230.5 -41t177.5 -117q82 -82 133 -201.5t51 -275.5q0 -70 -7 -137.5
t-20 -132.5h113v-287h-1163q-6 16 -11 37q-4 16 -6 36.5t-2 43.5zM240 -190q0 61 44 100t109.5 39t110.5 -39t45 -100q0 -72 -47 -108t-108.5 -36t-107.5 36t-46 108zM473 -485q0 55 39 90t98.5 35t98.5 -35t39 -90q0 -61 -41.5 -93t-96.5 -32q-53 0 -95 31.5t-42 93.5z
M674 -190q0 61 44 100t109 39q68 0 112 -39t44 -100q0 -72 -46.5 -108t-109.5 -36q-61 0 -107 36t-46 108z" />
    <glyph glyph-name="uniFB7C" unicode="&#x686;" horiz-adv-x="1191" arabic-form="initial" 
d="M0 0v287h850q16 68 25.5 147.5t9.5 145.5q0 63 -23.5 131.5t-77.5 115.5q-88 78 -241 78q-82 0 -149.5 -19.5t-147.5 -70.5l-119 250q100 57 211 92t240 35q127 0 230 -41t177 -117q82 -82 133 -201.5t51 -275.5q0 -82 -10 -162t-24.5 -153.5t-32 -135t-31.5 -106.5
h-1071zM178 -190q0 61 44 100t109.5 39t110.5 -39t45 -100q0 -72 -47 -108t-108.5 -36t-107.5 36t-46 108zM412 -485q0 55 38.5 90t98 35t98.5 -35t39 -90q0 -61 -41 -93t-96 -32q-53 0 -95 31.5t-42 93.5zM612 -190q0 61 44 100t110 39q68 0 112 -39t44 -100
q0 -72 -46.5 -108t-109.5 -36q-61 0 -107.5 36t-46.5 108z" />
    <glyph glyph-name="uniFB7D" unicode="&#x686;" horiz-adv-x="1263" arabic-form="medial" 
d="M0 0v287h850q16 68 25.5 147.5t9.5 145.5q0 63 -23.5 131.5t-77.5 115.5q-88 78 -241 78q-82 0 -149.5 -19.5t-147.5 -70.5l-119 250q100 57 211 92t240 35q127 0 230 -41t177 -117q82 -82 133 -201.5t51 -275.5q0 -70 -7 -137.5t-19 -132.5h141v-287h-1284zM178 -190
q0 61 44 100t109.5 39t110.5 -39t45 -100q0 -72 -47 -108t-108.5 -36t-107.5 36t-46 108zM412 -485q0 55 38.5 90t98 35t98.5 -35t39 -90q0 -61 -41 -93t-96 -32q-53 0 -95 31.5t-42 93.5zM612 -190q0 61 44 100t110 39q68 0 112 -39t44 -100q0 -72 -46.5 -108t-109.5 -36
q-61 0 -107.5 36t-46.5 108z" />
    <glyph glyph-name="uniFB89" unicode="&#x688;" horiz-adv-x="1191" arabic-form="final" 
d="M72 0v287h714v313q0 61 -13 107.5t-42 80.5q-27 35 -73 56.5t-101 21.5h-123v287h94q139 0 244 -36t182 -118q66 -70 92.5 -177t26.5 -234v-301h225v-287h-1226zM266 1321v113h103v303h120v-115h105q104 0 167.5 -55.5t63.5 -165.5v-80h-559zM489 1434h193
q0 37 -22.5 66.5t-63.5 29.5h-107v-96z" />
    <glyph glyph-name="uniFB8B" unicode="&#x698;" horiz-adv-x="823" arabic-form="final" 
d="M63 -145q41 -10 72 -14.5t64 -4.5q86 0 119.5 47t33.5 154v1116h287v-866h225v-287h-227q-12 -238 -108.5 -344.5t-299.5 -106.5q-41 0 -79.5 5.5t-65.5 13.5zM127 1483q0 63 44 102t109.5 39t110.5 -39t45 -102q0 -72 -47 -108t-108.5 -36t-107.5 36t-46 108zM360 1790
q0 55 39 90t98.5 35t98.5 -35t39 -90q0 -61 -41 -93t-96 -32q-53 0 -95.5 32t-42.5 93zM561 1483q0 63 44 102t110 39q68 0 111.5 -39t43.5 -102q0 -72 -46 -108t-109 -36q-61 0 -107.5 36t-46.5 108z" />
    <glyph glyph-name="uniFB8D" unicode="&#x691;" horiz-adv-x="821" arabic-form="final" 
d="M61 -145q41 -10 72 -14.5t64 -4.5q86 0 119.5 47t33.5 154v1116h287v-866h225v-287h-227q-12 -238 -108.5 -344.5t-299.5 -106.5q-41 0 -79.5 5.5t-65.5 13.5zM217 1321v113h102v303h121v-115h105q104 0 167.5 -55.5t63.5 -165.5v-80h-559zM440 1434h193q0 37 -22.5 66.5
t-63.5 29.5h-107v-96z" />
    <glyph glyph-name="uniFB8F" unicode="&#x6a9;" horiz-adv-x="2076" arabic-form="final" 
d="M104 596v385h287v-350q0 -178 96 -256q53 -45 130 -66.5t167 -21.5h940v237q0 53 -10 95.5t-38.5 77t-75 56t-97.5 21.5h-631q-41 53 -68.5 123t-31.5 164l313 600h345l-334 -600h366q131 0 228.5 -35t171.5 -106q150 -143 149 -428v-205h221v-287h-1470q-182 0 -302 44
t-208 130q-76 74 -112 184.5t-36 237.5z" />
    <glyph glyph-name="uniFB90" unicode="&#x6a9;" horiz-adv-x="1671" arabic-form="initial" 
d="M0 0v287h1276v219q0 61 -13.5 107t-41.5 81q-27 35 -73 57.5t-101 22.5h-857q-39 51 -66.5 122t-31.5 163l332 602h307l-317 -602h604q139 0 243.5 -36t182.5 -118q66 -70 92.5 -177t26.5 -234v-494h-1563z" />
    <glyph glyph-name="uniFB91" unicode="&#x6a9;" horiz-adv-x="1742" arabic-form="medial" 
d="M0 0v287h1276v219q0 61 -13.5 107t-41.5 81q-27 35 -73 57.5t-101 22.5h-857q-39 51 -66.5 122t-31.5 163l332 602h307l-317 -602h604q139 0 243.5 -36t182.5 -118q66 -70 92.5 -177t26.5 -234v-207h219v-287h-1782z" />
    <glyph glyph-name="uniFB93" unicode="&#x6af;" horiz-adv-x="2076" arabic-form="final" 
d="M104 596q0 -127 36 -237.5t112 -184.5q88 -86 208 -130t302 -44h1470v287h-221v205q0 285 -149 428q-74 72 -171.5 106.5t-228.5 34.5h-366l334 600h-345l-313 -600q4 -94 31.5 -164t68.5 -123h631q51 0 97.5 -21.5t75 -56t38.5 -76.5t10 -96v-237h-940
q-90 0 -166.5 21.5t-130.5 66.5q-96 78 -96 256v350h-287v-385zM487 1061l299 602h175l-299 -602h-175z" />
    <glyph glyph-name="uniFB94" unicode="&#x6af;" horiz-adv-x="1763" arabic-form="initial" 
d="M0 0h1726v494q0 127 -26.5 234.5t-91.5 176.5q-78 82 -182.5 118t-243.5 36h-604l317 602h-307l-332 -602q4 -92 31.5 -163t66.5 -122h856q55 0 101.5 -22.5t72.5 -57.5q29 -35 42.5 -81t13.5 -107v-219h-1440v-287zM4 1061l299 602h174l-299 -602h-174z" />
    <glyph glyph-name="uniFB95" unicode="&#x6af;" horiz-adv-x="1863" arabic-form="medial" 
d="M0 0h1948v287h-222v207q0 127 -26.5 234.5t-91.5 176.5q-78 82 -182.5 118t-243.5 36h-604l317 602h-307l-332 -602q4 -92 31.5 -163t66.5 -122h856q55 0 101.5 -22.5t72.5 -57.5q29 -35 42.5 -81t13.5 -107v-219h-1440v-287zM6 1061l299 602h174l-299 -602h-174z" />
    <glyph glyph-name="uniFB9F" unicode="&#x6ba;" horiz-adv-x="1423" arabic-form="final" 
d="M113 336v670h286v-635q0 -92 19.5 -156.5t66.5 -105.5q53 -45 133 -61.5t173 -16.5h163v975h287v-719h221v-287h-221v-256h-471q-92 0 -167 9t-138.5 29.5t-115.5 52.5t-99 77q-76 72 -106.5 185.5t-30.5 238.5z" />
    <glyph glyph-name="uniFBA5" unicode="&#x6c0;" horiz-adv-x="1288" arabic-form="final" 
d="M113 575q0 125 47 230.5t137 182.5t220 121t296 44h41v102h287v-968h188v-287h-516q-154 0 -282 35t-221 106.5t-145 180t-52 253.5zM399 575q0 -72 28 -125t74 -89.5t105.5 -55t122.5 -18.5h125v579h-111q-63 0 -124.5 -19.5t-110.5 -56t-79 -91t-30 -124.5zM698 1321
v149q0 139 69 196.5t189 57.5h123v-92h-106q-61 0 -86 -26.5t-25 -75.5v-55h283v-154h-447z" />
    <glyph glyph-name="uniFBA7" unicode="&#x6c1;" horiz-adv-x="1212" arabic-form="final" 
d="M94 303v303q0 150 43 256.5t135 179.5q72 57 171.5 85t218.5 28h385v-868h206v-287h-493v868h-129q-53 0 -96 -11t-78 -40t-55.5 -74t-20.5 -98v-342h-287z" />
    <glyph glyph-name="uniFBA8" unicode="&#x6c1;" horiz-adv-x="663" arabic-form="initial" 
d="M0 0v287h254v866h287v-1153h-541zM131 -451l107 359l301 -14l-199 -357z" />
    <glyph glyph-name="uniFBA9" unicode="&#x6c1;" horiz-adv-x="1712" arabic-form="medial" 
d="M0 0v287h188v555h287v-844q0 -53 21.5 -98t56.5 -74q66 -51 170 -51h92v512h938v-287h-651v-451h-354q-121 0 -227.5 25t-178.5 78q-66 51 -110 129t-44 176v43h-188zM1223 -451l106 357h301l-198 -357h-209z" />
    <glyph glyph-name="uniFBAB" unicode="&#x6be;" horiz-adv-x="1820" arabic-form="final" 
d="M174 0v287h234q-6 29 -12.5 68.5t-6.5 78.5q0 229 112.5 351t311.5 122q92 0 171 -33.5t136.5 -95t89 -148.5t31.5 -194q0 -39 -5 -80t-11 -69h186q8 53 12 102t4 92q0 123 -25.5 217.5t-80.5 180.5q-70 104 -183.5 157.5t-287.5 53.5q-129 0 -240.5 -43t-193.5 -89
l-97 261q139 70 295 114.5t310 44.5q113 0 207 -24.5t170.5 -67.5t137 -102.5t107.5 -126.5q86 -125 127 -282t41 -343q0 -70 -12 -145h217v-287h-1745zM645 440q0 -45 5 -85t9 -68h312q4 29 9 68.5t5 84.5q0 98 -45 154.5t-127 56.5q-86 0 -127 -56.5t-41 -154.5z" />
    <glyph glyph-name="uniFBAC" unicode="&#x6be;" horiz-adv-x="1568" arabic-form="initial" 
d="M0 0v287h233q-6 29 -12 68.5t-6 78.5q0 229 112.5 351t311.5 122q92 0 171 -33.5t136.5 -95t89 -148.5t31.5 -194q0 -39 -5 -80t-11 -69h186q8 53 12 102t4 92q0 123 -25.5 217.5t-80.5 180.5q-70 104 -183.5 157.5t-287.5 53.5q-129 0 -240.5 -43t-193.5 -89l-97 261
q139 70 295 114.5t310 44.5q113 0 207 -24.5t170.5 -67.5t137 -102.5t107.5 -126.5q86 -125 127 -282t41 -343q0 -51 -7 -108.5t-17.5 -114.5t-23.5 -111.5t-28 -97.5h-1464zM471 440q0 -45 5 -85t9 -68h312q4 29 9 68.5t5 84.5q0 98 -45 154.5t-127 56.5q-86 0 -127 -56.5
t-41 -154.5z" />
    <glyph glyph-name="uniFBAD" unicode="&#x6be;" horiz-adv-x="1646" arabic-form="medial" 
d="M0 0v287h233q-6 29 -12 68.5t-6 78.5q0 229 112.5 351t311.5 122q92 0 171 -33.5t136.5 -95t89 -148.5t31.5 -194q0 -39 -5 -80t-11 -69h186q8 53 12 102t4 92q0 123 -25.5 217.5t-80.5 180.5q-70 104 -183.5 157.5t-287.5 53.5q-129 0 -240.5 -43t-193.5 -89l-97 261
q139 70 295 114.5t310 44.5q113 0 207 -24.5t170.5 -67.5t137 -102.5t107.5 -126.5q86 -125 127 -282t41 -343q0 -70 -12 -145h219v-287h-1747zM471 440q0 -45 5 -85t9 -68h312q4 29 9 68.5t5 84.5q0 98 -45 154.5t-127 56.5q-86 0 -127 -56.5t-41 -154.5z" />
    <glyph glyph-name="uniFBAF" unicode="&#x6d2;" horiz-adv-x="1601" arabic-form="final" 
d="M70 119v168h1570v-287h-1234q0 -43 12 -84t51 -70q31 -23 67.5 -37t96.5 -14h608v-246h-633q-141 0 -244.5 39t-177.5 123q-63 72 -89.5 175.5t-26.5 232.5z" />
    <glyph glyph-name="uniFBB1" unicode="&#x6d3;" horiz-adv-x="1341" arabic-form="final" 
d="M57 442v150q0 139 69 196.5t189 57.5h123v-92h-106q-61 0 -86 -27t-25 -76v-55h283v-154h-447zM70 119v168h1570v-287h-1234q0 -43 12 -84t51 -70q31 -23 67.5 -37t96.5 -14h608v-246h-633q-141 0 -244.5 39t-177.5 123q-63 72 -89.5 175.5t-26.5 232.5z" />
    <glyph glyph-name="uniFBE8" unicode="&#x649;" horiz-adv-x="663" arabic-form="initial" 
d="M0 0v287h254v866h287v-1153h-541z" />
    <glyph glyph-name="uniFBE9" unicode="&#x649;" horiz-adv-x="720" arabic-form="medial" 
d="M0 0v287h254v866h287v-866h219v-287h-760z" />
    <glyph glyph-name="uniFBFD" unicode="&#x6cc;" horiz-adv-x="2217" arabic-form="final" 
d="M219 336v448h287v-413q0 -92 19.5 -156.5t66.5 -105.5q53 -45 133 -61.5t172 -16.5h299v577q0 147 42 255t134 181q72 55 172.5 82t218.5 27h387v-866h222v-287h-508v866h-131q-53 0 -96.5 -11t-78 -40t-55 -82t-20.5 -106v-883h-606q-92 0 -167 9t-138.5 29.5t-116 52.5
t-99.5 77q-76 72 -106.5 185.5t-30.5 238.5z" />
    <glyph glyph-name="uniFBFE" unicode="&#x6cc;" horiz-adv-x="872" arabic-form="initial" 
d="M2 0v287h428v866h287v-1153h-715zM70 -291q0 66 46 107t113.5 41t113.5 -41t46 -107q0 -72 -47 -108.5t-112.5 -36.5t-112.5 37t-47 108zM514 -291q0 66 46 107t114 41q70 0 115 -41t45 -107q0 -72 -47.5 -108.5t-113 -36.5t-112.5 37t-47 108z" />
    <glyph glyph-name="uniFBFF" unicode="&#x6cc;" horiz-adv-x="1050" arabic-form="medial" 
d="M0 0v287h428v866h287v-866h377v-287h-1092zM174 -291q0 66 46 107t113.5 41t114 -41t46.5 -107q0 -72 -47.5 -108.5t-113 -36.5t-112.5 37t-47 108zM618 -291q0 66 46.5 107t113.5 41q70 0 115 -41t45 -107q0 -72 -47 -108.5t-112.5 -36.5t-113 37t-47.5 108z" />
    <glyph glyph-name="uniFC5E" unicode="&#xfc5e;" arabic-form="isolated" 
d="M-309 557l96 39l51 -143l96 14q-12 31 -12 63q0 68 40 122.5t130 54.5q68 0 110 -46.5t42 -119.5q0 -27 -2 -57.5t-11 -71.5l-456 -72zM-250 246l100 20l21 -110q8 -35 23.5 -46.5t33.5 -11.5q29 0 45.5 21.5t16.5 62.5q0 20 -4 48t-11 59l103 14l20 -110q10 -51 56 -52
q57 0 57 60q0 27 -6 61.5t-23 73.5l103 22q6 -33 12 -59l8 -47q4 -25 4 -41q0 -82 -43 -124t-121 -42q-29 0 -52 15.5t-36 33.5q-16 -37 -50 -65.5t-87 -28.5q-51 0 -92 29.5t-55 101.5zM12 537q0 -31 8 -56l123 21q2 8 2 33q0 29 -16 50t-51 21q-27 0 -46.5 -18t-19.5 -51z
" />
    <glyph glyph-name="uniFC5F" unicode="&#xfc5f;" arabic-form="isolated" 
d="M-281 575l101 21l20 -111q8 -35 23.5 -46t34.5 -11q29 0 45 21.5t16 62.5q0 20 -4 48t-10 58l102 15l21 -111q10 -51 55 -51q57 0 57 59q0 27 -6 62t-22 74l102 22q6 -33 12 -59l8 -47q4 -25 5 -41q0 -82 -43 -124t-121 -42q-29 0 -52.5 15.5t-35.5 33.5
q-16 -37 -50.5 -65.5t-87.5 -28.5q-51 0 -92 29.5t-55 101.5zM-176 168v96l459 66v-97zM-174 0v96l459 66v-96z" />
    <glyph glyph-name="uniFC60" unicode="&#xfc60;" arabic-form="isolated" 
d="M-276 246l100 20l20 -110q8 -35 23.5 -46.5t34.5 -11.5q29 0 45 21.5t16 62.5q0 20 -4 48t-10 59l102 14l21 -110q10 -51 55 -52q57 0 57 60q0 27 -6 61.5t-22 73.5l102 22q6 -33 12 -59l9 -47q4 -25 4 -41q0 -82 -43 -124t-121 -42q-29 0 -52.5 15.5t-35.5 33.5
q-16 -37 -50 -65.5t-87 -28.5q-51 0 -92.5 29.5t-55.5 101.5zM-256 401v103l459 65v-102z" />
    <glyph glyph-name="uniFC61" unicode="&#xfc61;" arabic-form="isolated" 
d="M-276 246l100 20l20 -110q8 -35 23.5 -46.5t34.5 -11.5q29 0 45 21.5t16 62.5q0 20 -4 48t-10 59l102 14l21 -110q10 -51 55 -52q57 0 57 60q0 27 -6 61.5t-22 73.5l102 22q6 -33 12 -59l9 -47q4 -25 4 -41q0 -82 -43 -124t-121 -42q-29 0 -52.5 15.5t-35.5 33.5
q-16 -37 -50 -65.5t-87 -28.5q-51 0 -92.5 29.5t-55.5 101.5zM-248 457l162 26q-12 31 -12 64q0 68 39 122t129 54q70 0 111.5 -46t41.5 -120q0 -27 -2 -57.5t-10 -71.5l-449 -68zM-10 553q0 -33 8 -55l123 20q4 16 4 33q0 29 -16.5 50.5t-51.5 21.5q-29 0 -48 -18.5
t-19 -51.5z" />
    <glyph glyph-name="uniFC62" unicode="&#xfc62;" arabic-form="isolated" 
d="M-279 432l101 21l20 -111q8 -35 23.5 -46t34.5 -11q29 0 45 21.5t16 62.5q0 20 -4 47.5t-10 58.5l102 14l21 -110q10 -51 55 -51q57 0 57 59q0 27 -6 61.5t-22 73.5l102 23q6 -33 12 -60l8 -47q4 -25 5 -41q0 -82 -43 -124t-121 -42q-29 0 -52.5 15.5t-35.5 34.5
q-16 -37 -50.5 -66t-87.5 -29q-51 0 -92 30t-55 101zM-176 0v102l459 66v-102z" />
    <glyph glyph-name="uniFC63" unicode="&#xfc63;" arabic-form="isolated" 
d="M-276 246l100 20l20 -110q8 -35 23.5 -46.5t34.5 -11.5q29 0 45 21.5t16 62.5q0 20 -4 48t-10 59l102 14l21 -110q10 -51 55 -52q57 0 57 60q0 27 -6 61.5t-22 73.5l102 22q6 -33 12 -59l9 -47q4 -25 4 -41q0 -82 -43 -124t-121 -42q-29 0 -52.5 15.5t-35.5 33.5
q-16 -37 -50 -65.5t-87 -28.5q-51 0 -92.5 29.5t-55.5 101.5zM-74 410v397h115v-381z" />
    <glyph glyph-name="uniFE70" unicode="&#xfe70;" arabic-form="isolated" 
d="M-35 1642v97l459 65v-96zM-33 1475v96l459 65v-96z" />
    <glyph glyph-name="uniFE72" unicode="&#xfe72;" arabic-form="isolated" 
d="M-55 1671l96 39l51 -143l96 14q-12 31 -12 64q0 68 40 122t130 54q68 0 110 -46t42 -120q0 -27 -2 -57.5t-11 -71.5l-456 -72zM266 1651q0 -31 8 -56l123 21q2 8 2 33q0 29 -16 50t-51 21q-27 0 -46.5 -18t-19.5 -51z" />
    <glyph glyph-name="uniFE74" unicode="&#xfe74;" arabic-form="isolated" 
d="M-35 -199l459 66v-96l-459 -66v96zM-33 -367l459 66v-96l-459 -66v96z" />
    <glyph glyph-name="uniFE76" unicode="&#xfe76;" arabic-form="isolated" 
d="M-23 1423v103l459 65v-102z" />
    <glyph glyph-name="uniFE78" unicode="&#xfe78;" arabic-form="isolated" 
d="M-37 1554l162 27q-12 31 -12 64q0 68 38.5 122t129.5 54q70 0 111.5 -46t41.5 -120q0 -27 -2 -57.5t-10 -71.5l-449 -68zM201 1650.5q0 -32.5 8 -55.5l123 21q4 16 4 33q0 29 -16.5 50t-51.5 21q-29 0 -48 -18.5t-19 -51z" />
    <glyph glyph-name="uniFE7A" unicode="&#xfe7a;" arabic-form="isolated" 
d="M-23 -360l459 65v-102l-459 -66v103z" />
    <glyph glyph-name="uniFE7C" unicode="&#xfe7c;" arabic-form="isolated" 
d="M-82 1675l100 21l21 -111q8 -35 23.5 -46t33.5 -11q29 0 45.5 21.5t16.5 62.5q0 20 -4 48t-11 58l103 15l20 -111q10 -51 56 -51q57 0 57 59q0 27 -6 61.5t-23 73.5l103 23q6 -33 12 -59l8 -48q4 -25 4 -41q0 -82 -43 -123.5t-121 -41.5q-29 0 -52 15t-36 34
q-16 -37 -50 -65.5t-87 -28.5q-51 0 -92 29.5t-55 101.5z" />
    <glyph glyph-name="uniFE7E" unicode="&#xfe7e;" arabic-form="isolated" 
d="M-33 1618q0 88 49.5 137t126.5 49q80 0 124 -50t44 -136t-51 -134t-129 -48q-76 0 -120 43t-44 139zM66 1620q0 -55 21.5 -71.5t50 -16.5t52 16.5t23.5 67.5q0 47 -22.5 68.5t-53.5 21.5q-23 0 -47 -18.5t-24 -67.5z" />
    <glyph glyph-name="uniFE82" unicode="&#x622;" horiz-adv-x="788" arabic-form="final" 
d="M143 1505v133h559v-133h-559zM281 0v1413h286v-1126h262v-287h-548z" />
    <glyph glyph-name="uniFE84" unicode="&#x623;" horiz-adv-x="804" arabic-form="final" 
d="M225 1505v94q0 139 68.5 196.5t189.5 57.5h103v-92h-86q-61 0 -86 -26.5t-25 -75.5h262v-154h-426zM297 0v1413h287v-1126h262v-287h-549z" />
    <glyph glyph-name="uniFE86" unicode="&#x624;" horiz-adv-x="1288" arabic-form="final" 
d="M113 578q0 135 52 241.5t145 180t222.5 113.5t282.5 40h324l-2 -866h190v-287h-194q-8 -100 -39 -183t-92.5 -142.5t-157.5 -92.5t-234 -33q-41 0 -75.5 3.5t-68.5 9.5t-71 14l-84 23l-20 288q84 -27 155.5 -39t143.5 -12q59 0 104 5t77 22.5t51.5 50.5t25.5 86h-33
q-147 0 -275 33t-223.5 102.5t-149.5 179t-54 263.5zM399 578q0 -72 26 -126.5t71 -91t105.5 -55t129.5 -18.5h121v579h-121q-63 0 -123.5 -20.5t-106.5 -58t-74 -90.5t-28 -119zM707 1313v149q0 139 68.5 196.5t189.5 57.5h122v-92h-106q-61 0 -86 -26.5t-25 -75.5v-56h283
v-153h-446z" />
    <glyph glyph-name="uniFE88" unicode="&#x625;" horiz-adv-x="796" arabic-form="final" 
d="M225 -100h426v-154h-262q0 -49 24.5 -75.5t86.5 -26.5h86v-93h-103q-121 0 -189.5 57.5t-68.5 196.5v95zM289 0v1661h286v-1374h263v-287h-549z" />
    <glyph glyph-name="uniFE8A" unicode="&#x626;" horiz-adv-x="2275" arabic-form="final" 
d="M84 930v149q0 139 68.5 196.5t189.5 57.5h123v-92h-107q-61 0 -85.5 -26.5t-24.5 -75.5v-56h282v-153h-446zM164 336v448h287v-413q0 -92 19 -156.5t67 -105.5q53 -45 133 -61.5t172 -16.5h299v577q0 147 42 255t134 181q72 55 172 82t219 27h387v-866h219v-287h-506v866
h-131q-53 0 -96 -11t-78 -40t-55.5 -82t-20.5 -106v-883h-606q-92 0 -166.5 9t-138 29.5t-116 52.5t-99.5 77q-76 72 -106.5 185.5t-30.5 238.5z" />
    <glyph glyph-name="uniFE8B" unicode="&#x626;" horiz-adv-x="663" arabic-form="initial" 
d="M0 0v287h254v866h287v-1153h-541zM168 1311v149q0 139 68.5 196.5t189.5 57.5h123v-92h-107q-61 0 -85.5 -26.5t-24.5 -75.5v-56h282v-153h-446z" />
    <glyph glyph-name="uniFE8C" unicode="&#x626;" horiz-adv-x="720" arabic-form="medial" 
d="M0 0v287h254v866h287v-866h219v-287h-760zM164 1311v149q0 139 68.5 196.5t189.5 57.5h123v-92h-107q-61 0 -85.5 -26.5t-24.5 -75.5v-56h282v-153h-446z" />
    <glyph glyph-name="uniFE8E" unicode="&#x627;" horiz-adv-x="774" arabic-form="final" 
d="M266 0v1661h287v-1374h262v-287h-549z" />
    <glyph glyph-name="uniFE90" unicode="&#x628;" horiz-adv-x="1824" arabic-form="final" 
d="M104 592v387h287v-352q0 -92 19.5 -156.5t66.5 -105.5q53 -45 133 -61.5t172 -16.5h574v866h286v-866h222v-287h-1102q-92 0 -167 9t-138.5 29.5t-115.5 52.5t-99 77q-76 72 -107 185.5t-31 238.5zM813 -283q0 68 48 110t120 42t120 -42t48 -110q0 -76 -50 -114.5
t-118 -38.5t-118 39t-50 114z" />
    <glyph glyph-name="uniFE91" unicode="&#x628;" horiz-adv-x="663" arabic-form="initial" 
d="M0 0v287h254v866h287v-1153h-541zM233 -283q0 68 48.5 110t120 42t119.5 -42t48 -110q0 -76 -50 -114.5t-117.5 -38.5t-118 39t-50.5 114z" />
    <glyph glyph-name="uniFE92" unicode="&#x628;" horiz-adv-x="720" arabic-form="medial" 
d="M0 0v287h254v866h287v-866h219v-287h-760zM229 -283q0 68 48.5 110t120 42t119.5 -42t48 -110q0 -76 -50 -114.5t-117.5 -38.5t-118 39t-50.5 114z" />
    <glyph glyph-name="uniFE94" unicode="&#x629;" horiz-adv-x="1290" arabic-form="final" 
d="M113 575q0 125 47 230.5t137 182.5t220 121t296 44h41v102h287v-968h188v-287h-516q-154 0 -282 35t-221 106.5t-145 180t-52 253.5zM365 1554q0 66 46 106t113.5 40t113.5 -40t46 -106q0 -72 -47 -109.5t-112.5 -37.5t-112.5 38t-47 109zM399 575q0 -72 28 -125
t74 -89.5t105.5 -55t122.5 -18.5h125v579h-111q-63 0 -124.5 -19.5t-110.5 -56t-79 -91t-30 -124.5zM809 1554q0 66 46 106t114 40q70 0 114.5 -40t44.5 -106q0 -72 -47 -109.5t-112.5 -37.5t-112.5 38t-47 109z" />
    <glyph glyph-name="uniFE96" unicode="&#x62a;" horiz-adv-x="1824" arabic-form="final" 
d="M104 592v387h287v-352q0 -92 19.5 -156.5t66.5 -105.5q53 -45 133 -61.5t172 -16.5h574v866h286v-866h222v-287h-1102q-92 0 -167 9t-138.5 29.5t-115.5 52.5t-99 77q-76 72 -107 185.5t-31 238.5zM516 1366q0 66 46 105.5t113.5 39.5t114 -39.5t46.5 -105.5
q0 -72 -47.5 -109.5t-113 -37.5t-112.5 37.5t-47 109.5zM961 1366q0 66 46 105.5t113 39.5q70 0 115 -39.5t45 -105.5q0 -72 -47 -109.5t-112.5 -37.5t-112.5 37.5t-47 109.5z" />
    <glyph glyph-name="uniFE97" unicode="&#x62a;" horiz-adv-x="868" arabic-form="initial" 
d="M0 0v287h428v866h287v-1153h-715zM178 1475q0 66 46 105.5t114 39.5t114 -40t46 -105q0 -72 -47.5 -110t-113 -38t-112.5 38t-47 110zM623 1475q0 66 46 105.5t113 39.5q70 0 115 -40t45 -105q0 -72 -47 -110t-112.5 -38t-112.5 38t-47 110z" />
    <glyph glyph-name="uniFE98" unicode="&#x62a;" horiz-adv-x="1050" arabic-form="medial" 
d="M0 0v287h428v866h287v-866h377v-287h-1092zM176 1475q0 66 46 105.5t113.5 39.5t114 -40t46.5 -105q0 -72 -47.5 -110t-113 -38t-112.5 38t-47 110zM621 1475q0 66 46 105.5t113 39.5q70 0 115 -40t45 -105q0 -72 -47 -110t-112.5 -38t-112.5 38t-47 110z" />
    <glyph glyph-name="uniFE9A" unicode="&#x62b;" horiz-adv-x="1824" arabic-form="final" 
d="M104 592v387h287v-352q0 -92 19.5 -156.5t66.5 -105.5q53 -45 133 -61.5t172 -16.5h574v866h286v-866h222v-287h-1102q-92 0 -167 9t-138.5 29.5t-115.5 52.5t-99 77q-76 72 -107 185.5t-31 238.5zM530 1374q0 63 44 102.5t110 39.5t111 -39t45 -103q0 -72 -47.5 -107.5
t-108.5 -35.5t-107.5 36t-46.5 107zM764 1681q0 55 39 90t98.5 35t98 -34.5t38.5 -90.5q0 -61 -41 -93t-96 -32q-53 0 -95 32t-42 93zM965 1374q0 63 44 102.5t109 39.5q68 0 112 -39t44 -103q0 -72 -46.5 -107.5t-109.5 -35.5q-61 0 -107 36t-46 107z" />
    <glyph glyph-name="uniFE9B" unicode="&#x62b;" horiz-adv-x="868" arabic-form="initial" 
d="M0 0v287h428v866h287v-1153h-715zM178 1483q0 63 44 102t109.5 39t110.5 -39t45 -102q0 -72 -47 -108t-108.5 -36t-107.5 36t-46 108zM412 1790q0 55 38.5 90t98 35t98.5 -35t39 -90q0 -61 -41 -93t-96 -32q-53 0 -95 32t-42 93zM612 1483q0 63 44 102t110 39
q68 0 112 -39t44 -102q0 -72 -46.5 -108t-109.5 -36q-61 0 -107.5 36t-46.5 108z" />
    <glyph glyph-name="uniFE9C" unicode="&#x62b;" horiz-adv-x="1050" arabic-form="medial" 
d="M0 0v287h428v866h287v-866h377v-287h-1092zM180 1483q0 63 44 102t109.5 39t110.5 -39t45 -102q0 -72 -47 -108t-108.5 -36t-107.5 36t-46 108zM414 1790q0 55 39 90t98 35t98 -35t39 -90q0 -61 -41 -93t-96 -32q-53 0 -95 32t-42 93zM614 1483q0 63 44 102t110 39
q68 0 112 -39t44 -102q0 -72 -46.5 -108t-109.5 -36q-61 0 -107.5 36t-46.5 108z" />
    <glyph glyph-name="uniFE9E" unicode="&#x62c;" horiz-adv-x="1284" arabic-form="final" 
d="M51 80q0 115 19 207h757q16 68 25.5 147.5t9.5 145.5q0 63 -23.5 131.5t-76.5 115.5q-88 78 -242 78q-82 0 -149.5 -19.5t-147.5 -70.5l-119 250q100 57 211 92t240 35q127 0 230.5 -41t177.5 -117q82 -82 133 -201.5t51 -275.5q0 -70 -7 -137.5t-20 -132.5h203v-287
h-981v-31q0 -76 22.5 -151.5t73.5 -163.5l-223 -105q-76 109 -120 237t-44 294zM602 -283q0 68 48 110t120 42t120 -42t48 -110q0 -76 -50 -114.5t-118 -38.5t-118 39t-50 114z" />
    <glyph glyph-name="uniFE9F" unicode="&#x62c;" horiz-adv-x="1263" arabic-form="initial" 
d="M0 0v287h850q16 68 25.5 147.5t9.5 145.5q0 63 -23.5 131.5t-77.5 115.5q-88 78 -241 78q-82 0 -149.5 -19.5t-147.5 -70.5l-119 250q100 57 211 92t240 35q127 0 230 -41t177 -117q82 -82 133 -201.5t51 -275.5q0 -82 -10 -162t-24.5 -153.5t-32 -135t-31.5 -106.5
h-1071zM393 -283q0 68 48 110t120 42t120 -42t48 -110q0 -76 -50 -114.5t-117.5 -38.5t-118 39t-50.5 114z" />
    <glyph glyph-name="uniFEA0" unicode="&#x62c;" horiz-adv-x="1325" arabic-form="medial" 
d="M0 0v287h850q16 68 25.5 147.5t9.5 145.5q0 63 -23.5 131.5t-77.5 115.5q-88 78 -241 78q-82 0 -149.5 -19.5t-147.5 -70.5l-119 250q100 57 211 92t240 35q127 0 230 -41t177 -117q82 -82 133 -201.5t51 -275.5q0 -70 -7 -137.5t-19 -132.5h221v-287h-1364zM393 -283
q0 68 48 110t120 42t120 -42t48 -110q0 -76 -50 -114.5t-117.5 -38.5t-118 39t-50.5 114z" />
    <glyph glyph-name="uniFEA2" unicode="&#x62d;" horiz-adv-x="1284" arabic-form="final" 
d="M51 80q0 115 19 207h757q16 68 25.5 147.5t9.5 145.5q0 63 -23.5 131.5t-76.5 115.5q-88 78 -242 78q-82 0 -149.5 -19.5t-147.5 -70.5l-119 250q100 57 211 92t240 35q127 0 230.5 -41t177.5 -117q82 -82 133 -201.5t51 -275.5q0 -70 -7 -137.5t-20 -132.5h203v-287
h-981v-31q0 -76 22.5 -151.5t73.5 -163.5l-223 -105q-76 109 -120 237t-44 294z" />
    <glyph glyph-name="uniFEA3" unicode="&#x62d;" horiz-adv-x="1263" arabic-form="initial" 
d="M0 0v287h850q16 68 25.5 147.5t9.5 145.5q0 63 -23.5 131.5t-77.5 115.5q-88 78 -241 78q-82 0 -149.5 -19.5t-147.5 -70.5l-119 250q100 57 211 92t240 35q127 0 230 -41t177 -117q82 -82 133 -201.5t51 -275.5q0 -82 -10 -162t-24.5 -153.5t-32 -135t-31.5 -106.5
h-1071z" />
    <glyph glyph-name="uniFEA4" unicode="&#x62d;" horiz-adv-x="1325" arabic-form="medial" 
d="M0 0v287h850q16 68 25.5 147.5t9.5 145.5q0 63 -23.5 131.5t-77.5 115.5q-88 78 -241 78q-82 0 -149.5 -19.5t-147.5 -70.5l-119 250q100 57 211 92t240 35q127 0 230 -41t177 -117q82 -82 133 -201.5t51 -275.5q0 -70 -7 -137.5t-19 -132.5h221v-287h-1364z" />
    <glyph glyph-name="uniFEA6" unicode="&#x62e;" horiz-adv-x="1232" arabic-form="final" 
d="M2 80q0 115 18 207h758q16 68 25.5 147.5t9.5 145.5q0 63 -23.5 131.5t-76.5 115.5q-88 78 -242 78q-82 0 -149.5 -19.5t-147.5 -70.5l-119 250q100 57 211 92t240 35q127 0 230.5 -41t176.5 -117q82 -82 133.5 -201.5t51.5 -275.5q0 -70 -7.5 -137.5t-19.5 -132.5h203
v-287h-981v-31q0 -76 22.5 -151.5t73.5 -163.5l-223 -105q-76 109 -120 237t-44 294zM283 1505q0 68 48 110t119.5 42t119.5 -42t48 -110q0 -76 -50 -114.5t-117.5 -38.5t-117.5 39t-50 114z" />
    <glyph glyph-name="uniFEA7" unicode="&#x62e;" horiz-adv-x="1263" arabic-form="initial" 
d="M0 0v287h850q16 68 25.5 147.5t9.5 145.5q0 63 -23.5 131.5t-77.5 115.5q-88 78 -241 78q-82 0 -149.5 -19.5t-147.5 -70.5l-119 250q100 57 211 92t240 35q127 0 230 -41t177 -117q82 -82 133 -201.5t51 -275.5q0 -82 -10 -162t-24.5 -153.5t-32 -135t-31.5 -106.5
h-1071zM373 1518q0 68 48 109.5t119.5 41.5t120 -42t48.5 -109q0 -76 -50.5 -115t-118 -39t-117.5 39t-50 115z" />
    <glyph glyph-name="uniFEA8" unicode="&#x62e;" horiz-adv-x="1243" arabic-form="medial" 
d="M-82 0v287h850q16 68 25.5 147.5t9.5 145.5q0 63 -23.5 131.5t-77.5 115.5q-88 78 -241 78q-82 0 -149.5 -19.5t-147.5 -70.5l-119 250q100 57 211 92t240 35q127 0 230 -41t177 -117q82 -82 133 -201.5t51 -275.5q0 -70 -7 -137.5t-19 -132.5h221v-287h-1364zM291 1518
q0 68 48 109.5t119.5 41.5t120 -42t48.5 -109q0 -76 -50.5 -115t-118 -39t-117.5 39t-50 115z" />
    <glyph glyph-name="uniFEAA" unicode="&#x62f;" horiz-adv-x="1255" arabic-form="final" 
d="M72 0v287h714v313q0 61 -13 107.5t-42 80.5q-27 35 -73 56.5t-101 21.5h-123v287h94q139 0 244 -36t182 -118q66 -70 92.5 -177t26.5 -234v-301h221v-287h-1222z" />
    <glyph glyph-name="uniFEAC" unicode="&#x630;" horiz-adv-x="1255" arabic-form="final" 
d="M72 0v287h714v313q0 61 -13 107.5t-42 80.5q-27 35 -73 56.5t-101 21.5h-123v287h94q139 0 244 -36t182 -118q66 -70 92.5 -177t26.5 -234v-301h221v-287h-1222zM418 1458q0 68 48 110t119.5 42t120 -42t48.5 -110q0 -76 -50.5 -114.5t-118 -38.5t-117.5 38.5t-50 114.5z
" />
    <glyph glyph-name="uniFEAE" unicode="&#x631;" horiz-adv-x="817" arabic-form="final" 
d="M61 -145q41 -10 72 -14.5t64 -4.5q86 0 119.5 47t33.5 154v1116h287v-866h221v-287h-223q-12 -238 -108.5 -344.5t-299.5 -106.5q-41 0 -79.5 5.5t-65.5 13.5z" />
    <glyph glyph-name="uniFEB0" unicode="&#x632;" horiz-adv-x="817" arabic-form="final" 
d="M61 -145q41 -10 72 -14.5t64 -4.5q86 0 119.5 47t33.5 154v1116h287v-866h221v-287h-223q-12 -238 -108.5 -344.5t-299.5 -106.5q-41 0 -79.5 5.5t-65.5 13.5zM319 1481q0 68 48.5 109.5t120 41.5t119.5 -42t48 -109q0 -76 -50 -115t-117.5 -39t-118 39t-50.5 115z" />
    <glyph glyph-name="uniFEB2" unicode="&#x633;" horiz-adv-x="3020" arabic-form="final" 
d="M123 336v670h287v-635q0 -92 19.5 -156.5t66.5 -105.5q53 -45 133 -61.5t172 -16.5h164v1122h286v-866h211q45 0 93.5 11t88 41t64.5 79t25 125v508h286v-496q0 -147 71 -218t187 -71q123 0 184.5 70t61.5 188v772h285v-735q0 -109 -19 -194q49 -41 128 -60.5t157 -19.5
v-287q-84 0 -144.5 14.5t-103.5 38t-70.5 53t-45.5 60.5q-129 -186 -433 -186q-59 0 -116.5 9t-110.5 31.5t-99 60.5t-81 95q-78 -82 -184.5 -129t-223.5 -47h-211v-256h-471q-92 0 -166.5 9t-138 29.5t-116 52.5t-99.5 77q-76 72 -106.5 185.5t-30.5 238.5z" />
    <glyph glyph-name="uniFEB3" unicode="&#x633;" horiz-adv-x="2392" arabic-form="initial" 
d="M0 0v287h446v764h287v-764h209q45 0 93 11t88 41t64.5 79t24.5 125v508h287v-508q4 -141 72.5 -209t185.5 -68q123 0 184.5 70t61.5 188v772h285v-735q0 -297 -131.5 -439t-399.5 -142q-59 0 -116.5 9t-110.5 31.5t-99.5 60.5t-80.5 95q-78 -82 -184.5 -129t-223.5 -47
h-942z" />
    <glyph glyph-name="uniFEB4" unicode="&#x633;" horiz-adv-x="2519" arabic-form="medial" 
d="M2 0v287h447v764h286v-764h209q45 0 93 11t88 41t64.5 79t24.5 125v508h287v-496q0 -147 70.5 -218t187.5 -71q123 0 184.5 70t61.5 188v772h285v-735q0 -49 -4.5 -93t-10.5 -85q90 -96 287 -96v-287q-84 0 -145.5 14.5t-104.5 39t-70.5 55t-46.5 61.5
q-129 -190 -436 -190q-59 0 -116.5 9t-110.5 31.5t-99.5 60.5t-80.5 95q-78 -82 -184.5 -129t-223.5 -47h-942z" />
    <glyph glyph-name="uniFEB6" unicode="&#x634;" horiz-adv-x="3020" arabic-form="final" 
d="M123 336v670h287v-635q0 -92 19.5 -156.5t66.5 -105.5q53 -45 133 -61.5t172 -16.5h164v1122h286v-866h211q45 0 93.5 11t88 41t64.5 79t25 125v508h286v-496v-12v-2q4 -139 74 -207t184 -68q123 0 184.5 70t61.5 188v772h285v-735q0 -109 -19 -194q49 -41 128 -60.5
t157 -19.5v-287q-84 0 -144.5 14.5t-103.5 38t-70.5 53t-45.5 60.5q-129 -186 -433 -186q-59 0 -116.5 9t-110.5 31.5t-99 60.5t-81 95q-78 -82 -184.5 -129t-223.5 -47h-211v-256h-471q-92 0 -166.5 9t-138 29.5t-116 52.5t-99.5 77q-76 72 -106.5 185.5t-30.5 238.5z
M1507 1483q0 63 44 102t109.5 39t111 -39t45.5 -102q0 -72 -47.5 -108t-109 -36t-107.5 36t-46 108zM1741 1790q0 55 39 90t98 35t98 -35t39 -90q0 -61 -41 -93t-96 -32q-53 0 -95 32t-42 93zM1942 1483q0 63 44 102t109 39q68 0 112 -39t44 -102q0 -72 -46.5 -108
t-109.5 -36q-61 0 -107 36t-46 108z" />
    <glyph glyph-name="uniFEB7" unicode="&#x634;" horiz-adv-x="2392" arabic-form="initial" 
d="M0 0v287h446v764h287v-764h209q45 0 93 11t88 41t64.5 79t24.5 125v508h287v-496q0 -147 70.5 -218t187.5 -71q123 0 184.5 70t61.5 188v772h285v-735q0 -297 -131.5 -439t-399.5 -142q-59 0 -116.5 9t-110.5 31.5t-99.5 60.5t-80.5 95q-78 -82 -184.5 -129t-223.5 -47
h-942zM985 1483q0 63 44 102t109.5 39t110.5 -39t45 -102q0 -72 -47 -108t-108.5 -36t-107.5 36t-46 108zM1219 1790q0 55 38.5 90t98 35t98.5 -35t39 -90q0 -61 -41 -93t-96 -32q-53 0 -95 32t-42 93zM1419 1483q0 63 44 102t110 39q68 0 112 -39t44 -102q0 -72 -46.5 -108
t-109.5 -36q-61 0 -107.5 36t-46.5 108z" />
    <glyph glyph-name="uniFEB8" unicode="&#x634;" horiz-adv-x="2516" arabic-form="medial" 
d="M2 0v287h447v764h286v-764h209q45 0 93 11t88 41t64.5 79t24.5 125v508h287v-508v-2q4 -139 74 -207t184 -68q123 0 184.5 70t61.5 188v772h285v-735q0 -53 -4.5 -100t-12.5 -90q47 -41 129 -62.5t160 -21.5v-287q-84 0 -145.5 14.5t-105.5 39t-71.5 55t-46.5 61.5
q-127 -190 -434 -190q-59 0 -116.5 9t-110.5 31.5t-99.5 60.5t-80.5 95q-78 -82 -184.5 -129t-223.5 -47h-942zM983 1483q0 63 44 102t109.5 39t110.5 -39t45 -102q0 -72 -47 -108t-108.5 -36t-107.5 36t-46 108zM1217 1790q0 55 38.5 90t98 35t98.5 -35t39 -90
q0 -61 -41 -93t-96 -32q-53 0 -95 32t-42 93zM1417 1483q0 63 44 102t110 39q68 0 111.5 -39t43.5 -102q0 -72 -46 -108t-109 -36q-61 0 -107.5 36t-46.5 108z" />
    <glyph glyph-name="uniFEBA" unicode="&#x635;" horiz-adv-x="2611" arabic-form="final" 
d="M125 336v670h287v-635q0 -92 19.5 -156.5t66.5 -105.5q53 -45 133 -61.5t172 -16.5h164v1161h286v-141h633q139 0 243.5 -36t182.5 -118q66 -70 92.5 -177.5t26.5 -234.5v-198h221v-287h-1399v-256h-471q-92 0 -166.5 9t-138 29.5t-116 52.5t-99.5 77
q-76 72 -106.5 185.5t-30.5 238.5zM1253 287h891v211q0 61 -13 107t-42 81q-27 35 -73 57.5t-101 22.5h-662v-479z" />
    <glyph glyph-name="uniFEBB" unicode="&#x635;" horiz-adv-x="1761" arabic-form="initial" 
d="M0 0v287h201v866h286v-102h625q139 0 243.5 -36t182.5 -118q66 -70 92.5 -177.5t26.5 -234.5v-485h-1657zM487 287h883v211q0 61 -13.5 107t-41.5 81q-27 35 -73 57.5t-101 22.5h-654v-479z" />
    <glyph glyph-name="uniFEBC" unicode="&#x635;" horiz-adv-x="1839" arabic-form="medial" 
d="M0 0v287h201v866h286v-102h625q139 0 243.5 -36t182.5 -118q66 -70 92.5 -177.5t26.5 -234.5v-198h221v-287h-1878zM487 287h883v211q0 61 -13.5 107t-41.5 81q-27 35 -73 57.5t-101 22.5h-654v-479z" />
    <glyph glyph-name="uniFEBE" unicode="&#x636;" horiz-adv-x="2611" arabic-form="final" 
d="M125 336v670h287v-635q0 -92 19.5 -156.5t66.5 -105.5q53 -45 133 -61.5t172 -16.5h164v1161h286v-141h633q139 0 243.5 -36t182.5 -118q66 -70 92.5 -177.5t26.5 -234.5v-198h221v-287h-1399v-256h-471q-92 0 -166.5 9t-138 29.5t-116 52.5t-99.5 77
q-76 72 -106.5 185.5t-30.5 238.5zM1253 287h891v211q0 61 -13 107t-42 81q-27 35 -73 57.5t-101 22.5h-662v-479zM1509 1389q0 68 48.5 109.5t120 41.5t119.5 -42t48 -109q0 -76 -50 -115t-117.5 -39t-118 39t-50.5 115z" />
    <glyph glyph-name="uniFEBF" unicode="&#x636;" horiz-adv-x="1761" arabic-form="initial" 
d="M0 0v287h201v866h286v-102h625q139 0 243.5 -36t182.5 -118q66 -70 92.5 -177.5t26.5 -234.5v-485h-1657zM487 287h883v211q0 61 -13.5 107t-41.5 81q-27 35 -73 57.5t-101 22.5h-654v-479zM754 1389q0 68 48 109.5t119.5 41.5t120 -42t48.5 -109q0 -76 -50.5 -115
t-118 -39t-117.5 39t-50 115z" />
    <glyph glyph-name="uniFEC0" unicode="&#x636;" horiz-adv-x="1839" arabic-form="medial" 
d="M0 0v287h201v866h286v-102h625q139 0 243.5 -36t182.5 -118q66 -70 92.5 -177.5t26.5 -234.5v-198h221v-287h-1878zM487 287h883v211q0 61 -13.5 107t-41.5 81q-27 35 -73 57.5t-101 22.5h-654v-479zM754 1389q0 68 48 109.5t119.5 41.5t120 -42t48.5 -109
q0 -76 -50.5 -115t-118 -39t-117.5 39t-50 115z" />
    <glyph glyph-name="uniFEC2" unicode="&#x637;" horiz-adv-x="1875" arabic-form="final" 
d="M37 0v287h201v1374h286v-610h625q139 0 243.5 -36t182.5 -118q66 -70 92.5 -177.5t26.5 -234.5v-198h223v-287h-1880zM524 287h883v211q0 61 -13.5 107t-41.5 81q-27 35 -73 57.5t-101 22.5h-654v-479z" />
    <glyph glyph-name="uniFEC3" unicode="&#x637;" horiz-adv-x="1761" arabic-form="initial" 
d="M0 0v287h201v1374h286v-610h625q139 0 243.5 -36t182.5 -118q66 -70 92.5 -177.5t26.5 -234.5v-485h-1657zM487 287h883v211q0 61 -13.5 107t-41.5 81q-27 35 -73 57.5t-101 22.5h-654v-479z" />
    <glyph glyph-name="uniFEC4" unicode="&#x637;" horiz-adv-x="1839" arabic-form="medial" 
d="M0 0v287h201v1374h286v-610h625q139 0 243.5 -36t182.5 -118q66 -70 92.5 -177.5t26.5 -234.5v-198h221v-287h-1878zM487 287h883v211q0 61 -13.5 107t-41.5 81q-27 35 -73 57.5t-101 22.5h-654v-479z" />
    <glyph glyph-name="uniFEC6" unicode="&#x638;" horiz-adv-x="1875" arabic-form="final" 
d="M37 0v287h201v1374h286v-610h625q139 0 243.5 -36t182.5 -118q66 -70 92.5 -177.5t26.5 -234.5v-198h223v-287h-1880zM524 287h883v211q0 61 -13.5 107t-41.5 81q-27 35 -73 57.5t-101 22.5h-654v-479zM799 1389q0 68 48 109.5t119.5 41.5t120 -42t48.5 -109
q0 -76 -50.5 -115t-118 -39t-117.5 39t-50 115z" />
    <glyph glyph-name="uniFEC7" unicode="&#x638;" horiz-adv-x="1761" arabic-form="initial" 
d="M0 0v287h201v1374h286v-610h625q139 0 243.5 -36t182.5 -118q66 -70 92.5 -177.5t26.5 -234.5v-485h-1657zM487 287h883v211q0 61 -13.5 107t-41.5 81q-27 35 -73 57.5t-101 22.5h-654v-479zM760 1389q0 68 48 109.5t119.5 41.5t120 -42t48.5 -109q0 -76 -50.5 -115
t-118 -39t-117.5 39t-50 115z" />
    <glyph glyph-name="uniFEC8" unicode="&#x638;" horiz-adv-x="1839" arabic-form="medial" 
d="M0 0v287h201v1374h286v-610h625q139 0 243.5 -36t182.5 -118q66 -70 92.5 -177.5t26.5 -234.5v-198h221v-287h-1878zM487 287h883v211q0 61 -13.5 107t-41.5 81q-27 35 -73 57.5t-101 22.5h-654v-479zM760 1389q0 68 48 109.5t119.5 41.5t120 -42t48.5 -109
q0 -76 -50.5 -115t-118 -39t-117.5 39t-50 115z" />
    <glyph glyph-name="uniFECA" unicode="&#x639;" horiz-adv-x="1497" arabic-form="final" 
d="M82 80q0 115 18 207h303l-253 651q74 63 148.5 116.5t151 92.5t158.5 60.5t170 21.5q178 0 334 -82t297 -211l-246 -649h375v-287h-1165v-31q0 -76 22.5 -151.5t73.5 -163.5l-223 -105q-76 109 -120 237t-44 294zM471 815l186 -528h246l187 530q-86 59 -155 84t-157 25
q-86 0 -157.5 -27t-149.5 -84z" />
    <glyph glyph-name="uniFECB" unicode="&#x639;" horiz-adv-x="1261" arabic-form="initial" 
d="M0 0v287h223q-35 72 -60.5 157.5t-25.5 184.5q0 147 57.5 257.5t147.5 184.5q72 59 167 90t206 31q115 0 218 -29.5t208 -83.5l-97 -260q-66 37 -144.5 62.5t-149.5 25.5q-141 0 -224 -69q-55 -47 -77.5 -105.5t-22.5 -126.5q0 -98 28.5 -177t80.5 -142h649v-287h-1184z
" />
    <glyph glyph-name="uniFECC" unicode="&#x639;" horiz-adv-x="1441" arabic-form="medial" 
d="M0 0v287h346l-254 651q74 63 148.5 116.5t151.5 92.5t159 60.5t170 21.5q178 0 333.5 -82t297.5 -211l-246 -649h377v-287h-1483zM414 815l186 -528h246l186 530q-86 59 -154.5 84t-156.5 25q-86 0 -157.5 -27t-149.5 -84z" />
    <glyph glyph-name="uniFECE" unicode="&#x63a;" horiz-adv-x="1497" arabic-form="final" 
d="M82 80q0 115 18 207h303l-253 651q74 63 148.5 116.5t151 92.5t158.5 60.5t170 21.5q178 0 334 -82t297 -211l-246 -649h375v-287h-1165v-31q0 -76 22.5 -151.5t73.5 -163.5l-223 -105q-76 109 -120 237t-44 294zM471 815l186 -528h246l187 530q-86 59 -155 84t-157 25
q-86 0 -157.5 -27t-149.5 -84zM598 1518q0 68 48 109.5t120 41.5t120 -42t48 -109q0 -76 -50 -115t-118 -39t-118 39t-50 115z" />
    <glyph glyph-name="uniFECF" unicode="&#x63a;" horiz-adv-x="1261" arabic-form="initial" 
d="M0 0v287h223q-35 72 -60.5 157.5t-25.5 184.5q0 147 57.5 257.5t147.5 184.5q72 59 167 90t206 31q115 0 218 -29.5t208 -83.5l-97 -260q-66 37 -144.5 62.5t-149.5 25.5q-141 0 -224 -69q-55 -47 -77.5 -105.5t-22.5 -126.5q0 -98 28.5 -177t80.5 -142h649v-287h-1184z
M508 1518q0 68 48 109.5t120 41.5t120 -42t48 -109q0 -76 -50.5 -115t-118 -39t-117.5 39t-50 115z" />
    <glyph glyph-name="uniFED0" unicode="&#x63a;" horiz-adv-x="1441" arabic-form="medial" 
d="M0 0v287h346l-254 651q74 63 148.5 116.5t151.5 92.5t159 60.5t170 21.5q178 0 333.5 -82t297.5 -211l-246 -649h377v-287h-1483zM414 815l186 -528h246l186 530q-86 59 -154.5 84t-156.5 25q-86 0 -157.5 -27t-149.5 -84zM549 1518q0 68 48 109.5t119.5 41.5t120 -42
t48.5 -109q0 -76 -50.5 -115t-118 -39t-117.5 39t-50 115z" />
    <glyph glyph-name="uniFED2" unicode="&#x641;" horiz-adv-x="2224" arabic-form="final" 
d="M104 592v387h287v-352q0 -92 19.5 -156.5t66.5 -105.5q53 -45 133 -61.5t172 -16.5h334q-45 59 -71.5 130.5t-26.5 160.5q0 135 50 241.5t140 181t217 113.5t281 39h338v-866h219v-287h-1501q-92 0 -167 9t-138.5 29.5t-115.5 52.5t-99 77q-76 72 -107 185.5t-31 238.5z
M1305 578q0 -94 42 -168t113 -123h297v579h-121q-61 0 -121.5 -18.5t-106.5 -55t-74.5 -90.5t-28.5 -124zM1481 1481q0 68 48 109.5t119.5 41.5t120 -42t48.5 -109q0 -76 -50.5 -115t-118 -39t-117.5 39t-50 115z" />
    <glyph glyph-name="uniFED3" unicode="&#x641;" horiz-adv-x="1294" arabic-form="initial" 
d="M0 0v287h274q-45 59 -71.5 130.5t-26.5 160.5q0 135 50 241.5t140.5 181t217.5 113.5t280 39h338v-1153h-1202zM463 578q0 -94 42 -168t113 -123h297v579h-120q-61 0 -122 -18.5t-107 -55t-74.5 -90.5t-28.5 -124zM610 1481q0 68 48.5 109.5t120 41.5t119.5 -42t48 -109
q0 -76 -50 -115t-117.5 -39t-118 39t-50.5 115z" />
    <glyph glyph-name="uniFED4" unicode="&#x641;" horiz-adv-x="1351" arabic-form="medial" 
d="M0 0v287h274q-45 59 -71.5 130.5t-26.5 160.5q0 135 50 241.5t140.5 181t217.5 113.5t280 39h338v-866h191v-287h-1393zM463 578q0 -94 42 -168t113 -123h297v579h-120q-61 0 -122 -18.5t-107 -55t-74.5 -90.5t-28.5 -124zM608 1481q0 68 48.5 109.5t120 41.5t119.5 -42
t48 -109q0 -76 -50 -115t-117.5 -39t-118 39t-50.5 115z" />
    <glyph glyph-name="uniFED6" unicode="&#x642;" horiz-adv-x="1849" arabic-form="final" 
d="M106 141v449h287v-414q0 -92 19.5 -156.5t66.5 -105.5q53 -45 133 -61.5t172 -16.5h596v164h-37q-147 0 -275 33t-223 102.5t-149.5 179t-54.5 263.5q0 135 52 241.5t145.5 180t222.5 113.5t282 40h324v-866h221v-287h-221v-451h-903q-92 0 -167 9.5t-138.5 30t-115.5 52
t-99 76.5q-76 72 -107 185.5t-31 238.5zM895 1475q0 66 46 105.5t113.5 39.5t113.5 -40t46 -105q0 -72 -47 -110t-112.5 -38t-112.5 38t-47 110zM928 578q0 -72 25.5 -126.5t70.5 -91t105.5 -55t130.5 -18.5h120v579h-120q-63 0 -124 -20.5t-107 -58t-73.5 -90.5t-27.5 -119
zM1339 1475q0 66 46.5 105.5t113.5 39.5q70 0 115 -40t45 -105q0 -72 -47 -110t-112.5 -38t-113 38t-47.5 110z" />
    <glyph glyph-name="uniFED7" unicode="&#x642;" horiz-adv-x="1294" arabic-form="initial" 
d="M0 0v287h274q-45 59 -71.5 130.5t-26.5 160.5q0 135 50 241.5t140.5 181t217.5 113.5t280 39h338v-1153h-1202zM399 1475q0 66 46.5 105.5t114 39.5t113.5 -40t46 -105q0 -72 -47 -110t-112.5 -38t-113 38t-47.5 110zM463 578q0 -94 42 -168t113 -123h297v579h-120
q-61 0 -122 -18.5t-107 -55t-74.5 -90.5t-28.5 -124zM844 1475q0 66 46 105.5t114 39.5q70 0 114.5 -40t44.5 -105q0 -72 -47 -110t-112.5 -38t-112.5 38t-47 110z" />
    <glyph glyph-name="uniFED8" unicode="&#x642;" horiz-adv-x="1349" arabic-form="medial" 
d="M0 0v287h274q-45 59 -71.5 130.5t-26.5 160.5q0 135 50 241.5t140.5 181t217.5 113.5t280 39h338v-866h189v-287h-1391zM399 1475q0 66 46.5 105.5t114 39.5t113.5 -40t46 -105q0 -72 -47 -110t-112.5 -38t-113 38t-47.5 110zM463 578q0 -94 42 -168t113 -123h297v579
h-120q-61 0 -122 -18.5t-107 -55t-74.5 -90.5t-28.5 -124zM844 1475q0 66 46 105.5t114 39.5q70 0 114.5 -40t44.5 -105q0 -72 -47 -110t-112.5 -38t-112.5 38t-47 110z" />
    <glyph glyph-name="uniFEDA" unicode="&#x643;" horiz-adv-x="1951" arabic-form="final" 
d="M182 592v387h287v-352q0 -92 19.5 -156.5t66.5 -105.5q53 -45 133 -61.5t172 -16.5h574v1374h286v-1374h222v-287h-1102q-92 0 -167 9t-138.5 29.5t-115.5 52.5t-100 77q-76 72 -106.5 185.5t-30.5 238.5zM745 715v149q0 139 69 196.5t190 57.5h122v-92h-106
q-61 0 -86 -26.5t-25 -75.5v-56h283v-153h-447z" />
    <glyph glyph-name="uniFEDB" unicode="&#x643;" horiz-adv-x="1671" arabic-form="initial" 
d="M0 0v287h1276v219q0 61 -13.5 107t-41.5 81q-27 35 -73 57.5t-101 22.5h-857q-39 51 -66.5 122t-31.5 163l332 602h307l-317 -602h604q139 0 243.5 -36t182.5 -118q66 -70 92.5 -177t26.5 -234v-494h-1563z" />
    <glyph glyph-name="uniFEDC" unicode="&#x643;" horiz-adv-x="1742" arabic-form="medial" 
d="M0 0v287h1276v219q0 61 -13.5 107t-41.5 81q-27 35 -73 57.5t-101 22.5h-857q-39 51 -66.5 122t-31.5 163l332 602h307l-317 -602h604q139 0 243.5 -36t182.5 -118q66 -70 92.5 -177t26.5 -234v-207h219v-287h-1782z" />
    <glyph glyph-name="uniFEDE" unicode="&#x644;" horiz-adv-x="1462" arabic-form="final" 
d="M113 336v670h286v-635q0 -92 19.5 -156.5t66.5 -105.5q53 -45 133 -61.5t173 -16.5h163v1630h422v-287h-135v-1087h262v-287h-262v-256h-471q-92 0 -167 9t-138.5 29.5t-115.5 52.5t-99 77q-76 72 -106.5 185.5t-30.5 238.5z" />
    <glyph glyph-name="uniFEDF" unicode="&#x644;" horiz-adv-x="702" arabic-form="initial" 
d="M0 0v287h201v1374h420v-287h-134v-1374h-487z" />
    <glyph glyph-name="uniFEE0" unicode="&#x644;" horiz-adv-x="708" arabic-form="medial" 
d="M0 0v287h201v1374h286v-1374h263v-287h-750z" />
    <glyph glyph-name="uniFEE2" unicode="&#x645;" horiz-adv-x="1970" arabic-form="final" 
d="M72 -139q0 160 36.5 276.5t114.5 202.5q33 37 75 64.5t88 47t93 30t88 10.5q18 111 71.5 207t134.5 165.5t182.5 109.5t215.5 40q129 0 243 -48t199 -132t133 -199t48 -248q0 -27 -2 -51.5t-6 -48.5h225v-287h-358q-86 -104 -212.5 -164.5t-269.5 -60.5q-102 0 -195 32.5
t-170 90t-133.5 136.5t-84.5 171q-115 -8 -168 -82q-35 -47 -48.5 -116.5t-13.5 -149.5v-308h-286v312zM846 391.5q0 -69.5 24.5 -130t68.5 -104.5t103.5 -70t129 -26t131 25t107.5 69t71.5 104t25.5 132t-24.5 133.5t-69.5 106.5t-106.5 70.5t-135.5 25.5q-72 0 -131 -26.5
t-102 -71.5t-67.5 -106.5t-24.5 -131z" />
    <glyph glyph-name="uniFEE3" unicode="&#x645;" horiz-adv-x="1495" arabic-form="initial" 
d="M0 0v287h199q-8 31 -11.5 63.5t-3.5 67.5q0 131 48.5 244.5t131 198.5t194.5 134t239 49q129 0 242.5 -48t198.5 -132t133 -198.5t48 -247.5q0 -131 -50 -243t-136 -193.5t-198.5 -129t-237.5 -47.5q-131 0 -246 52.5t-201 142.5h-350zM471 422q0 -70 24.5 -130.5
t68.5 -104.5t103.5 -69.5t129 -25.5t131 24.5t107.5 68.5t72 104.5t26 132.5t-25 133t-70 106.5t-106.5 71t-134.5 25.5q-72 0 -131.5 -26.5t-102.5 -72t-67.5 -106.5t-24.5 -131z" />
    <glyph glyph-name="uniFEE4" unicode="&#x645;" horiz-adv-x="1593" arabic-form="medial" 
d="M0 0v287h199q-8 31 -11.5 63.5t-3.5 67.5q0 131 48.5 244.5t131 198.5t194.5 134t239 49q129 0 242.5 -48t198.5 -132t133 -198.5t48 -247.5q0 -35 -4 -68t-10 -63h229v-287h-383q-86 -92 -203.5 -143.5t-250.5 -51.5q-131 0 -246 52.5t-201 142.5h-350zM471 422
q0 -70 24.5 -130.5t68.5 -104.5t103.5 -69.5t129 -25.5t131 24.5t107.5 68.5t72 104.5t26 132.5t-25 133t-70 106.5t-106.5 71t-134.5 25.5q-72 0 -131.5 -26.5t-102.5 -72t-67.5 -106.5t-24.5 -131z" />
    <glyph glyph-name="uniFEE6" unicode="&#x646;" horiz-adv-x="1423" arabic-form="final" 
d="M113 336v670h286v-635q0 -92 19.5 -156.5t66.5 -105.5q53 -45 133 -61.5t173 -16.5h163v975h287v-719h221v-287h-221v-256h-471q-92 0 -167 9t-138.5 29.5t-115.5 52.5t-99 77q-76 72 -106.5 185.5t-30.5 238.5zM524 1341q0 68 48.5 110t120 42t119.5 -42t48 -110
q0 -76 -50 -114.5t-117.5 -38.5t-118 39t-50.5 114z" />
    <glyph glyph-name="uniFEE7" unicode="&#x646;" horiz-adv-x="663" arabic-form="initial" 
d="M0 0v287h254v866h287v-1153h-541zM223 1481q0 68 48 109.5t120 41.5t120 -42t48 -109q0 -76 -50 -115t-117.5 -39t-118 39t-50.5 115z" />
    <glyph glyph-name="uniFEE8" unicode="&#x646;" horiz-adv-x="720" arabic-form="medial" 
d="M0 0v287h254v866h287v-866h219v-287h-760zM221 1481q0 68 48 109.5t120 41.5t120 -42t48 -109q0 -76 -50 -115t-117.5 -39t-118 39t-50.5 115z" />
    <glyph glyph-name="uniFEE9" unicode="&#x647;" horiz-adv-x="1265" arabic-form="isolated" 
d="M113 575q0 125 47 230.5t137 182.5t220 121t296 44h41v102h287v-1255h-328q-154 0 -282 35t-221 106.5t-145 180t-52 253.5zM399 575q0 -72 28 -125t74 -89.5t105.5 -55t122.5 -18.5h125v579h-111q-63 0 -124.5 -19.5t-110.5 -56t-79 -91t-30 -124.5z" />
    <glyph glyph-name="uniFEEA" unicode="&#x647;" horiz-adv-x="1290" arabic-form="final" 
d="M113 575q0 125 47 230.5t137 182.5t220 121t296 44h41v102h287v-968h188v-287h-516q-154 0 -282 35t-221 106.5t-145 180t-52 253.5zM399 575q0 -72 28 -125t74 -89.5t105.5 -55t122.5 -18.5h125v579h-111q-63 0 -124.5 -19.5t-110.5 -56t-79 -91t-30 -124.5z" />
    <glyph glyph-name="uniFEEB" unicode="&#x647;" horiz-adv-x="1650" arabic-form="initial" 
d="M0 0v287h233q-6 29 -12 68.5t-6 78.5q0 229 112.5 351t311.5 122q92 0 171 -33.5t136.5 -95t89 -148.5t31.5 -194q0 -39 -5 -80t-11 -69h186q8 53 12 102t4 92q0 123 -25.5 217.5t-80.5 180.5q-70 104 -183.5 157.5t-287.5 53.5q-129 0 -240.5 -43t-193.5 -89l-97 261
q139 70 295 114.5t310 44.5q113 0 207 -24.5t170.5 -67.5t137 -102.5t107.5 -126.5q86 -125 127 -282t41 -343q0 -51 -7 -108.5t-17.5 -114.5t-23.5 -111.5t-28 -97.5h-1464zM471 440q0 -45 5 -85t9 -68h312q4 29 9 68.5t5 84.5q0 98 -45 154.5t-127 56.5q-86 0 -127 -56.5
t-41 -154.5z" />
    <glyph glyph-name="uniFEEC" unicode="&#x647;" horiz-adv-x="1683" arabic-form="medial" 
d="M0 0v287h233q-6 29 -12 68.5t-6 78.5q0 229 112.5 351t311.5 122q92 0 171 -33.5t136.5 -95t89 -148.5t31.5 -194q0 -39 -5 -80t-11 -69h186q8 53 12 102t4 92q0 123 -25.5 217.5t-80.5 180.5q-70 104 -183.5 157.5t-287.5 53.5q-129 0 -240.5 -43t-193.5 -89l-97 261
q139 70 295 114.5t310 44.5q113 0 207 -24.5t170.5 -67.5t137 -102.5t107.5 -126.5q86 -125 127 -282t41 -343q0 -70 -12 -145h196v-287h-1724zM471 440q0 -45 5 -85t9 -68h312q4 29 9 68.5t5 84.5q0 98 -45 154.5t-127 56.5q-86 0 -127 -56.5t-41 -154.5z" />
    <glyph glyph-name="uniFEEE" unicode="&#x648;" horiz-adv-x="1288" arabic-form="final" 
d="M113 578q0 135 52 241.5t145 180t222.5 113.5t282.5 40h324l-2 -866h190v-287h-194q-8 -100 -39 -183t-92.5 -142.5t-157.5 -92.5t-234 -33q-41 0 -75.5 3.5t-68.5 9.5t-71 14l-84 23l-20 288q84 -27 155.5 -39t143.5 -12q59 0 104 5t77 22.5t51.5 50.5t25.5 86h-33
q-147 0 -275 33t-223.5 102.5t-149.5 179t-54 263.5zM399 578q0 -72 26 -126.5t71 -91t105.5 -55t129.5 -18.5h121v579h-121q-63 0 -123.5 -20.5t-106.5 -58t-74 -90.5t-28 -119z" />
    <glyph glyph-name="uniFEF0" unicode="&#x649;" horiz-adv-x="2213" arabic-form="final" 
d="M102 336v448h287v-413q0 -92 19.5 -156.5t66.5 -105.5q53 -45 133 -61.5t172 -16.5h299v577q0 147 42 255t134 181q72 55 172.5 82t219.5 27h387v-866h219v-287h-506v866h-131q-53 0 -96 -11t-78 -40t-55.5 -82t-20.5 -106v-883h-606q-92 0 -167 9t-138.5 29.5
t-115.5 52.5t-99 77q-76 72 -107 185.5t-31 238.5z" />
    <glyph glyph-name="uniFEF2" unicode="&#x64a;" horiz-adv-x="2072" arabic-form="final" 
d="M45 -119l115 252q100 -57 189 -79.5t190 -22.5h399v577q0 147 42 255t134 181q72 55 172 82t219 27h387v-866h219v-287h-505v866h-131q-53 0 -96.5 -11t-78 -40t-55 -82t-20.5 -106v-883h-594q-106 0 -185 7t-146 22.5t-126 42t-129 65.5zM420 344q0 68 48 110t119.5 42
t120 -42t48.5 -110q0 -76 -50.5 -115t-118 -39t-117.5 39t-50 115zM420 778q0 68 48 110t119.5 42t120 -42t48.5 -110q0 -76 -50.5 -114.5t-118 -38.5t-117.5 38.5t-50 114.5z" />
    <glyph glyph-name="uniFEF3" unicode="&#x64a;" horiz-adv-x="872" arabic-form="initial" 
d="M2 0v287h428v866h287v-1153h-715zM70 -291q0 66 46 107t113.5 41t113.5 -41t46 -107q0 -72 -47 -108.5t-112.5 -36.5t-112.5 37t-47 108zM514 -291q0 66 46 107t114 41q70 0 115 -41t45 -107q0 -72 -47.5 -108.5t-113 -36.5t-112.5 37t-47 108z" />
    <glyph glyph-name="uniFEF4" unicode="&#x64a;" horiz-adv-x="1050" arabic-form="medial" 
d="M0 0v287h428v866h287v-866h377v-287h-1092zM174 -291q0 66 46 107t113.5 41t114 -41t46.5 -107q0 -72 -47.5 -108.5t-113 -36.5t-112.5 37t-47 108zM618 -291q0 66 46.5 107t113.5 41q70 0 115 -41t45 -107q0 -72 -47 -108.5t-112.5 -36.5t-113 37t-47.5 108z" />
    <glyph glyph-name=".notdef" horiz-adv-x="1024" 
 />
    <glyph glyph-name=".null" horiz-adv-x="1024" 
 />
    <glyph glyph-name=".null" horiz-adv-x="1024" 
 />
    <glyph glyph-name="nonmarkingreturn" horiz-adv-x="1000" 
 />
    <glyph glyph-name="uni000D" unicode="&#xd;" horiz-adv-x="1024" 
 />
    <glyph glyph-name="space" unicode=" " horiz-adv-x="614" 
 />
    <glyph glyph-name="exclam" unicode="!" horiz-adv-x="714" 
d="M166 141q0 37 16.5 69t43 53.5t60 33.5t70.5 12q35 0 69 -12t59.5 -33.5t42 -53.5t16.5 -69t-16.5 -67.5t-42 -52t-59.5 -33t-69 -11.5q-37 0 -70.5 11.5t-60 33t-43 52t-16.5 67.5zM211 485v1176h287v-1176h-287z" />
    <glyph glyph-name="quotedbl" unicode="&#x22;" horiz-adv-x="989" 
d="M96 1661h307l-53 -655h-198zM586 1661h305l-53 -655h-197z" />
    <glyph glyph-name="numbersign" unicode="#" horiz-adv-x="1691" 
d="M61 430l39 219h324l51 375h-332l39 219h322l57 418h219l-57 -418h356l58 418h217l-58 -418h334l-39 -219h-323l-51 -375h331l-39 -219h-321l-58 -430h-219l58 430h-357l-57 -430h-217l57 430h-334zM643 649h356l52 375h-357z" />
    <glyph glyph-name="dollar" unicode="$" horiz-adv-x="1474" 
d="M92 123l117 260q43 -29 100.5 -52.5t122 -40t132 -26.5t132.5 -10q76 0 140.5 12.5t111.5 39t75 68.5t28 99q0 51 -22.5 90t-63.5 66.5t-99.5 48t-130.5 39.5l-137 35q-227 55 -342 182t-115 313q0 180 129 294t348 142v220h240v-217q131 -14 255 -52.5t212 -91.5
l-117 -260q-92 59 -219 94t-248 35q-55 0 -108 -10t-94 -30.5t-67 -52.5t-26 -77q0 -82 62.5 -130t202.5 -85l139 -35q104 -27 197.5 -69.5t163 -105t110.5 -148.5t41 -197q0 -102 -37 -185t-103.5 -144.5t-159.5 -100.5t-204 -53v-230h-240v222q-154 10 -294 48t-232 95z
" />
    <glyph glyph-name="percent" unicode="%" horiz-adv-x="2205" 
d="M102 1200q0 113 25 203t74 154.5t121.5 99.5t171 35t172 -35t123 -99.5t74 -154.5t24.5 -203t-24.5 -203t-74 -154.5t-123 -99t-172 -34.5t-171 34.5t-121.5 99t-74 154.5t-25 203zM336 1200q0 -139 43 -198.5t114.5 -59.5t114.5 59.5t43 198.5t-43 199.5t-114.5 60.5
t-114.5 -60.5t-43 -199.5zM377 2l1161 1659h293l-1161 -1659h-293zM1319 465q0 113 24.5 203t73.5 154.5t122 99t171 34.5t172 -34.5t123 -99t73.5 -154.5t24.5 -203t-24.5 -203t-73.5 -154.5t-123 -99.5t-172 -35t-171 35t-122 99.5t-73.5 154.5t-24.5 203zM1552 465
q0 -139 43 -198.5t115 -59.5t115 59.5t43 198.5t-43 199.5t-115 60.5t-115 -60.5t-43 -199.5z" />
    <glyph glyph-name="ampersand" unicode="&#x26;" horiz-adv-x="1800" 
d="M63 479q0 172 101.5 294t322.5 200q-78 90 -125 176t-47 184q0 80 36 145.5t100.5 113.5t155.5 74t200 26q121 0 213 -29t155.5 -81t95.5 -125t32 -161q0 -55 -19.5 -114.5t-61.5 -116.5t-107.5 -108.5t-160.5 -90.5l279 -301q49 80 83 169t50 181h299
q-25 -145 -87 -286.5t-157 -263.5l338 -365h-362l-164 172q-115 -92 -253 -144.5t-298 -52.5q-141 0 -255 35t-194.5 100.5t-125 158.5t-44.5 210zM365 498q0 -59 24.5 -107.5t68.5 -81.5t103 -50t129 -17q104 0 195.5 32.5t167.5 90.5l-391 417q-166 -49 -231.5 -118.5
t-65.5 -165.5zM614 1317q0 -68 49.5 -129.5t116.5 -132.5q131 43 185.5 105.5t54.5 127.5q0 80 -61.5 121t-141.5 41t-141.5 -31.5t-61.5 -101.5z" />
    <glyph glyph-name="quotesingle" unicode="'" horiz-adv-x="499" 
d="M96 1661h307l-53 -655h-198z" />
    <glyph glyph-name="parenleft" unicode="(" horiz-adv-x="667" 
d="M92 608q0 162 27.5 316.5t72 291t99.5 251t108 194.5h283q-61 -102 -116.5 -223t-97.5 -255t-65.5 -279.5t-23.5 -295.5q0 -147 23.5 -293.5t65.5 -281.5t97.5 -258t116.5 -226h-283q-53 80 -108 196t-99.5 254t-72 293.5t-27.5 315.5z" />
    <glyph glyph-name="parenright" unicode=")" horiz-adv-x="665" 
d="M-14 -451q61 102 117.5 225.5t97.5 258.5t65.5 281.5t24.5 293.5q0 150 -24.5 294.5t-65.5 279.5t-97.5 256t-117.5 223h284q53 -80 107.5 -194.5t97.5 -251t70.5 -291t27.5 -316.5q0 -160 -27.5 -315.5t-70.5 -293.5t-97 -254t-108 -196h-284z" />
    <glyph glyph-name="asterisk" unicode="*" horiz-adv-x="978" 
d="M61 1309l58 164l280 -99v287h174v-287l285 99l60 -164l-285 -97l174 -239l-139 -105l-181 244l-170 -244l-145 101l172 241z" />
    <glyph glyph-name="plus" unicode="+" horiz-adv-x="1382" 
d="M94 451v266h453v436h289v-436h450v-266h-450v-451h-289v451h-453z" />
    <glyph glyph-name="comma" unicode="," horiz-adv-x="616" 
d="M35 -340l194 621h303l-266 -621h-231z" />
    <glyph glyph-name="hyphen" unicode="-" horiz-adv-x="835" 
d="M94 451v266h647v-266h-647z" />
    <glyph glyph-name="period" unicode="." horiz-adv-x="589" 
d="M106 139q0 39 16.5 70t42 52.5t59.5 33.5t71 12t70.5 -12t59.5 -33.5t42 -52.5t16 -70q0 -37 -16 -67.5t-42 -51t-59.5 -32t-70.5 -11.5t-71 11.5t-59.5 32t-42 51t-16.5 67.5z" />
    <glyph glyph-name="slash" unicode="/" horiz-adv-x="1263" 
d="M-61 -307l1114 1968h272l-1108 -1968h-278z" />
    <glyph glyph-name="zero" unicode="0" horiz-adv-x="1409" 
d="M119 702.5q0 157.5 37 290.5t110.5 229.5t183 150.5t255.5 54q143 0 252.5 -54t183 -150.5t111.5 -229.5t38 -290.5t-38 -290.5t-111.5 -229.5t-183 -151t-252.5 -54.5q-145 0 -255 54.5t-183.5 151t-110.5 229.5t-37 290.5zM416 702.5q0 -210.5 73.5 -327.5t215 -117
t214 117t72.5 327.5t-72.5 327.5t-214 117t-215 -117t-73.5 -327.5z" />
    <glyph glyph-name="one" unicode="1" horiz-adv-x="819" 
d="M41 999v263l608 135v-1397h-287v1071z" />
    <glyph glyph-name="two" unicode="2" horiz-adv-x="1241" 
d="M94 0v256l256 188q125 94 225.5 184.5t162 175.5t61.5 159q0 47 -20.5 81.5t-55.5 57t-80 34t-96 11.5q-94 0 -171 -33t-149 -88l-129 252q92 70 220 109.5t264 39.5q106 0 200.5 -24.5t165 -74.5t112.5 -127t42 -181q0 -100 -38 -192.5t-110.5 -184.5t-180 -184
t-245.5 -193h588v-266h-1022z" />
    <glyph glyph-name="three" unicode="3" horiz-adv-x="1251" 
d="M51 125l127 256q72 -57 157 -90t177 -33q59 0 114.5 10.5t97.5 32t67.5 54t25.5 77.5q0 47 -24.5 77t-67.5 46t-103.5 22.5t-132.5 6.5h-47v270h43q76 0 132.5 5t93.5 19.5t54 40t17 66.5q0 78 -74.5 120t-189.5 42q-92 0 -175 -33t-155 -88l-127 254q92 68 224.5 107.5
t263.5 39.5q117 0 214 -26.5t167.5 -76.5t109.5 -123t39 -165q0 -53 -13 -102t-36.5 -89t-55.5 -71t-69 -45q92 -35 151.5 -117t59.5 -217q0 -100 -42 -178t-117.5 -131t-180 -81t-229.5 -28q-66 0 -133.5 10.5t-133 30t-125 46t-104.5 61.5z" />
    <glyph glyph-name="four" unicode="4" horiz-adv-x="1384" 
d="M76 317v265l622 798h367v-796h209v-267h-209v-317h-287v317h-702zM369 584h409v532z" />
    <glyph glyph-name="five" unicode="5" horiz-adv-x="1331" 
d="M102 125l129 258q35 -29 80 -51.5t94.5 -39t98.5 -24.5t96 -8q55 0 109.5 9.5t96.5 33t67.5 61t25.5 95.5q0 55 -22.5 92t-61.5 60.5t-93 33.5t-116 10q-49 0 -104.5 -7t-109.5 -17t-105 -24.5t-92 -28.5l98 802h827v-266h-596l-26 -211q43 8 87 11.5t89 3.5
q98 0 191 -22t167 -75t119 -142t45 -224q0 -117 -45 -206t-122 -149.5t-179 -91.5t-217 -31q-145 0 -280.5 39t-250.5 109z" />
    <glyph glyph-name="six" unicode="6" horiz-adv-x="1282" 
d="M100 487q0 150 53.5 268.5t141.5 233.5l299 391h369l-314 -379q14 2 27.5 3.5t28.5 1.5q86 0 171 -36t152.5 -103.5t109.5 -164t42 -215.5q0 -113 -44 -206t-119 -160.5t-172 -105.5t-203.5 -38t-205 37t-173.5 104.5t-119 162t-44 206.5zM397 498q0 -100 64.5 -170
t179.5 -70q113 0 177.5 69.5t64.5 170.5q0 98 -64.5 167.5t-177.5 69.5q-115 0 -179.5 -69.5t-64.5 -167.5z" />
    <glyph glyph-name="seven" unicode="7" horiz-adv-x="1214" 
d="M76 1116v264h1046v-264l-667 -1116h-344l690 1116h-725z" />
    <glyph glyph-name="eight" unicode="8" horiz-adv-x="1380" 
d="M135 393q0 68 17.5 123t47 98t66.5 74t76 49q-31 14 -59.5 44t-52 70t-38 89t-14.5 100q0 98 44 171t116 121t164 71.5t188 23.5t188.5 -23.5t164 -71.5t115.5 -120.5t44 -171.5q0 -51 -14 -100t-38 -89t-52.5 -69.5t-59.5 -44.5q39 -18 76 -49t65.5 -74t47 -98
t18.5 -123q0 -111 -50 -189.5t-130 -128.5t-178.5 -74t-196.5 -24t-196.5 24t-178 74t-130 129t-50.5 189zM436 434q0 -80 71 -128t183.5 -48t183 48t70.5 128q0 82 -69.5 130t-184.5 48t-184.5 -48t-69.5 -130zM471 1001q0 -59 57.5 -102t162 -43t160.5 43t56 102
q0 68 -62.5 107t-154.5 39t-155.5 -39t-63.5 -107z" />
    <glyph glyph-name="nine" unicode="9" horiz-adv-x="1282" 
d="M100 918q0 113 44 206t119 160.5t172 105t206 37.5q106 0 203.5 -36.5t172.5 -104t119 -162t44 -206.5q0 -150 -54.5 -268t-138.5 -234l-299 -416h-369l312 406q-12 -4 -27 -5h-29q-84 0 -168.5 36t-152.5 102.5t-111 162t-43 216.5zM397 909.5q0 -100.5 64.5 -170
t179.5 -69.5q113 0 177.5 69.5t64.5 170t-63.5 169t-178.5 68.5t-179.5 -68.5t-64.5 -169z" />
    <glyph glyph-name="colon" unicode=":" horiz-adv-x="608" 
d="M117 139q0 39 16.5 70t42 52.5t59 33.5t70.5 12q35 0 69 -12t59.5 -33.5t42 -52.5t16.5 -70q0 -37 -16.5 -67.5t-42 -51t-59.5 -32t-69 -11.5q-37 0 -70.5 11.5t-59 32t-42 51t-16.5 67.5zM117 944q0 37 16.5 67.5t42 52t59 34t70.5 12.5q35 0 69 -12.5t59.5 -34t42 -52
t16.5 -67.5q0 -39 -16.5 -69.5t-42 -52t-59.5 -33t-69 -11.5q-37 0 -70.5 11.5t-59 33t-42 52t-16.5 69.5z" />
    <glyph glyph-name="semicolon" unicode=";" horiz-adv-x="645" 
d="M35 -340l194 621h303l-266 -621h-231zM182 944q0 37 16.5 67.5t42 52t59.5 34t71 12.5q35 0 68.5 -12.5t60 -34t43 -52t16.5 -67.5q0 -39 -16.5 -69.5t-43 -52t-60 -33t-68.5 -11.5q-37 0 -71 11.5t-59.5 33t-42 52t-16.5 69.5z" />
    <glyph glyph-name="less" unicode="&#x3c;" horiz-adv-x="1386" 
d="M94 438v275l1198 467v-273l-891 -334l891 -327v-275z" />
    <glyph glyph-name="equal" unicode="=" horiz-adv-x="1247" 
d="M94 186v269h1059v-269h-1059zM94 715v266h1059v-266h-1059z" />
    <glyph glyph-name="greater" unicode="&#x3e;" horiz-adv-x="1386" 
d="M94 -29v291l891 311l-891 320v287l1198 -467v-275z" />
    <glyph glyph-name="question" unicode="?" horiz-adv-x="1163" 
d="M92 1327l37 297q70 29 156 48.5t207 19.5q123 0 230 -36t186 -102.5t124 -161t45 -210.5q0 -109 -36.5 -194t-98 -148.5t-144.5 -105.5t-175 -62v-187h-287v404h24q82 0 158 13t133.5 45t91 83t33.5 125q0 59 -27.5 107.5t-72.5 81t-100.5 50t-112.5 17.5
q-96 0 -190.5 -23.5t-180.5 -60.5zM276 145q0 39 16.5 71t43 54.5t61.5 34.5t72 12t71.5 -12t62.5 -34.5t44.5 -54.5t16.5 -71t-16.5 -70.5t-44.5 -53t-62.5 -34t-71.5 -12.5t-72 12.5t-61.5 34t-43 53t-16.5 70.5z" />
    <glyph glyph-name="at" unicode="@" horiz-adv-x="1923" 
d="M92 819q0 186 70.5 347t193.5 279t290 184.5t362 66.5q170 0 319.5 -44t262 -136.5t177 -232.5t64.5 -331q0 -141 -37 -251.5t-97.5 -185.5t-136 -114t-155.5 -39q-92 0 -156.5 54.5t-79.5 161.5q-53 -100 -140 -154.5t-214 -54.5q-68 0 -130 24.5t-109.5 75.5t-76 130
t-28.5 187q0 100 33 197.5t94 174.5t149.5 123t200.5 46q96 0 166 -48t103 -130q6 35 9 70.5t7 68.5h166l-68 -508q-6 -53 -6 -94q0 -80 24.5 -118t80.5 -38q45 0 85.5 28t71.5 81t48.5 130t17.5 175q0 145 -47 256t-133.5 184.5t-206 111.5t-262.5 38q-162 0 -296.5 -55.5
t-229.5 -151.5t-147 -228t-52 -286q0 -143 43 -264t124.5 -209t199.5 -138t267 -50q106 0 228.5 24.5t222.5 75.5l66 -164q-59 -27 -126 -48.5t-134.5 -35.5t-133 -21.5t-123.5 -7.5q-184 0 -334.5 63.5t-259 176.5t-168 267.5t-59.5 336.5zM672 782q0 -123 50 -182t146 -59
q68 0 121 30.5t90 84t55.5 122t18.5 146.5q0 111 -53.5 170t-149.5 59q-66 0 -117 -30.5t-86.5 -81t-55 -118t-19.5 -141.5z" />
    <glyph glyph-name="A" unicode="A" horiz-adv-x="1628" 
d="M20 0l615 1661h358l615 -1661h-310l-141 391h-688l-139 -391h-310zM567 668h492l-246 690z" />
    <glyph glyph-name="B" unicode="B" horiz-adv-x="1564" 
d="M205 0v1661h571q156 0 268.5 -33t186.5 -89t109.5 -132t35.5 -164q0 -104 -56 -200.5t-175 -149.5q84 -25 144.5 -68t98 -97t56 -115.5t18.5 -125.5q0 -131 -52 -223t-136 -150.5t-193.5 -86t-222.5 -27.5h-653zM500 274h317q174 0 257 52.5t83 167.5q0 66 -23.5 108.5
t-68.5 67t-109.5 35t-146.5 10.5h-309v-441zM500 991h258q164 0 238.5 49.5t74.5 151.5q0 86 -71.5 140t-241.5 54h-258v-395z" />
    <glyph glyph-name="C" unicode="C" horiz-adv-x="1585" 
d="M92 833.5q0 184.5 60.5 341t172 272.5t271.5 180.5t356 64.5q158 0 301.5 -39t249.5 -105l-114 -260q-90 55 -195.5 89t-228.5 34q-113 0 -214.5 -35t-178 -106.5t-121.5 -180t-45 -256t45 -256t121.5 -181t178 -107.5t214.5 -35q123 0 228 34t196 91l114 -262
q-106 -66 -249.5 -104t-301.5 -38q-197 0 -356.5 64.5t-271 180.5t-172 272.5t-60.5 341z" />
    <glyph glyph-name="D" unicode="D" horiz-adv-x="1699" 
d="M205 0v1661h438q207 0 384 -52.5t306 -154.5t202 -257t73 -357q0 -201 -71 -357.5t-197 -264t-301 -163t-384 -55.5h-450zM500 274h137q152 0 273.5 30t207.5 97.5t132 175t46 263.5q0 145 -47 248.5t-132 170t-204.5 97t-265.5 30.5h-147v-1112z" />
    <glyph glyph-name="E" unicode="E" horiz-adv-x="1402" 
d="M205 0v1661h1061v-275h-766v-395h694v-278h-694v-439h770v-274h-1065z" />
    <glyph glyph-name="F" unicode="F" horiz-adv-x="1325" 
d="M205 0v1661h1059v-275h-764v-395h690v-278h-690v-713h-295z" />
    <glyph glyph-name="G" unicode="G" horiz-adv-x="1804" 
d="M92 833.5q0 184.5 60.5 341t172 272.5t271.5 180.5t356 64.5q180 0 340 -39t267 -105l-113 -260q-90 55 -213 89t-268 34q-113 0 -214.5 -35t-178 -106.5t-121.5 -180t-45 -256t45 -256t121.5 -181t178 -107.5t214.5 -35q88 0 176 18.5t164 53.5v299h-371v278h665v-776
q-59 -37 -138 -64.5t-165 -47t-175 -30t-169 -10.5q-197 0 -356.5 64.5t-271 180.5t-172 272.5t-60.5 341z" />
    <glyph glyph-name="H" unicode="H" horiz-adv-x="1798" 
d="M205 0v1661h295v-670h796v670h297v-1661h-297v713h-796v-713h-295z" />
    <glyph glyph-name="I" unicode="I" horiz-adv-x="704" 
d="M205 0v1661h295v-1661h-295z" />
    <glyph glyph-name="J" unicode="J" horiz-adv-x="1060" 
d="M0 70l109 252q53 -31 116.5 -49.5t136.5 -18.5q94 0 146.5 54t52.5 186v1167h295v-1180q0 -135 -30.5 -231t-87 -156.5t-138.5 -89.5t-182 -29q-137 0 -244.5 29t-173.5 66z" />
    <glyph glyph-name="K" unicode="K" horiz-adv-x="1568" 
d="M205 0v1661h295v-830l647 830h360l-667 -823l708 -838h-370l-678 827v-827h-295z" />
    <glyph glyph-name="L" unicode="L" horiz-adv-x="1306" 
d="M205 0v1661h297v-1387h764v-274h-1061z" />
    <glyph glyph-name="M" unicode="M" horiz-adv-x="2134" 
d="M205 0v1661h500l362 -1399l367 1399h495v-1661h-295v1417l-383 -1417h-366l-385 1417v-1417h-295z" />
    <glyph glyph-name="N" unicode="N" horiz-adv-x="1759" 
d="M205 0v1661h454l607 -1385v1385h288v-1661h-452l-606 1384v-1384h-291z" />
    <glyph glyph-name="O" unicode="O" horiz-adv-x="1908" 
d="M92 834q0 180 63.5 337.5t178.5 272.5t272.5 181.5t348 66.5t348 -66.5t272.5 -181.5t178.5 -272.5t63.5 -337.5q0 -182 -63.5 -339t-178.5 -273t-272.5 -181.5t-348 -65.5t-348 65.5t-272.5 181.5t-178.5 272.5t-63.5 339.5zM406 833.5q0 -131.5 41.5 -238t115.5 -182
t174.5 -116.5t216.5 -41q119 0 219.5 41t174 116.5t115.5 182t42 238t-42 238t-115.5 182t-174 116.5t-219.5 41q-117 0 -217 -41t-174 -116.5t-115.5 -182t-41.5 -238z" />
    <glyph glyph-name="P" unicode="P" horiz-adv-x="1476" 
d="M205 0v1661h622q160 0 275 -43t188.5 -113.5t109.5 -162t36 -189.5q0 -104 -37 -200.5t-113 -170t-190.5 -117.5t-268.5 -44h-327v-621h-295zM500 895h264q80 0 146.5 12.5t114.5 41t73.5 77.5t25.5 121q0 123 -88 181t-272 58h-264v-491z" />
    <glyph glyph-name="Q" unicode="Q" horiz-adv-x="1908" 
d="M92 834q0 180 63.5 337.5t178.5 272.5t272.5 181.5t348 66.5t348 -66.5t272.5 -181.5t178.5 -272.5t63.5 -337.5q0 -199 -74 -366t-209 -284l260 -274l-143 -143l-285 303q-184 -94 -412 -95q-190 0 -347.5 65.5t-272.5 181.5t-178.5 272.5t-63.5 339.5zM406 833.5
q0 -131.5 41.5 -238t115.5 -182t174.5 -117.5t216.5 -42q109 0 203 35l-174 186l145 139l205 -217q80 78 126 188t46 249q0 131 -42 237.5t-115.5 182t-174 116.5t-219.5 41q-117 0 -217 -41t-174 -116.5t-115.5 -182t-41.5 -238z" />
    <glyph glyph-name="R" unicode="R" horiz-adv-x="1601" 
d="M205 0v1661h622q162 0 277 -42t188.5 -112.5t107.5 -161t34 -186.5q0 -72 -18.5 -141.5t-58.5 -131t-104.5 -110.5t-156.5 -80l434 -696h-332l-405 655h-293v-655h-295zM500 911h262q82 0 148.5 10.5t113.5 38t72.5 74.5t25.5 119q0 125 -88 179t-272 54h-262v-475z" />
    <glyph glyph-name="S" unicode="S" horiz-adv-x="1474" 
d="M92 123l117 260q43 -29 100.5 -52.5t122 -40t132 -26.5t132.5 -10q76 0 140.5 12.5t111.5 39t75 68.5t28 99q0 51 -22.5 88t-63.5 63.5t-99.5 45t-130.5 37.5l-137 34q-227 55 -342 182.5t-115 313.5q0 100 43 184t123 144.5t190.5 93.5t245.5 33q78 0 159 -11.5t157 -32
t144.5 -47t121.5 -59.5l-117 -260q-92 59 -219 94t-248 35q-59 0 -112.5 -11t-94 -34t-64.5 -56.5t-24 -78.5q0 -82 62.5 -131t202.5 -84l139 -35q104 -27 197.5 -68t163 -102t110.5 -145t41 -195q0 -121 -50 -213t-137.5 -154.5t-208 -95.5t-261.5 -33q-86 0 -173.5 11.5
t-167 31t-149.5 46t-123 59.5z" />
    <glyph glyph-name="T" unicode="T" horiz-adv-x="1484" 
d="M41 1386v275h1403v-275h-553v-1386h-297v1386h-553z" />
    <glyph glyph-name="U" unicode="U" horiz-adv-x="1794" 
d="M184 651v1010h295v-942q0 -115 21.5 -202t71 -145.5t129 -88t196.5 -29.5q115 0 194.5 29.5t129 88t72 145.5t22.5 202v942h295v-1010q0 -141 -39 -265t-124 -215t-220 -143.5t-330 -52.5t-330 52.5t-220 143.5t-124 215t-39 265z" />
    <glyph glyph-name="V" unicode="V" horiz-adv-x="1599" 
d="M41 1661h326l432 -1358l434 1358h326l-566 -1661h-387z" />
    <glyph glyph-name="W" unicode="W" horiz-adv-x="2195" 
d="M61 1661h326l270 -1315l234 1315h412l233 -1315l270 1315h328l-383 -1661h-412l-241 1380l-242 -1380h-412z" />
    <glyph glyph-name="X" unicode="X" horiz-adv-x="1644" 
d="M41 0l610 854l-575 807h344l403 -567l406 567h330l-572 -797l617 -864h-342l-447 625l-446 -625h-328z" />
    <glyph glyph-name="Y" unicode="Y" horiz-adv-x="1536" 
d="M31 1661h342l395 -748l395 748h342l-587 -1038v-623h-297v623z" />
    <glyph glyph-name="Z" unicode="Z" horiz-adv-x="1544" 
d="M113 0v272l921 1114h-850v275h1205v-272l-920 -1115h942v-274h-1298z" />
    <glyph glyph-name="bracketleft" unicode="[" horiz-adv-x="688" 
d="M166 -451v2112h491v-207h-204v-1698h204v-207h-491z" />
    <glyph glyph-name="backslash" unicode="\" horiz-adv-x="1263" 
d="M-61 1661h272l1114 -1968h-278z" />
    <glyph glyph-name="bracketright" unicode="]" horiz-adv-x="688" 
d="M31 -244h205v1698h-205v207h491v-2112h-491v207z" />
    <glyph glyph-name="asciicircum" unicode="^" horiz-adv-x="1138" 
d="M12 838l422 823h268l424 -823h-252l-305 622l-307 -622h-250z" />
    <glyph glyph-name="underscore" unicode="_" horiz-adv-x="1241" 
d="M94 0h1055v-268h-1055v268z" />
    <glyph glyph-name="grave" unicode="`" horiz-adv-x="587" 
d="M31 1661h286l240 -287h-233z" />
    <glyph glyph-name="a" unicode="a" horiz-adv-x="1294" 
d="M102 358q0 96 40 170t111 123t170 74t216 25q47 0 103.5 -3.5t121.5 -13.5v17q0 98 -73.5 133t-192.5 35q-45 0 -98.5 -8.5t-107.5 -23t-105 -32.5t-94 -39l36 293q70 35 178.5 60.5t229.5 25.5q111 0 205 -24.5t162.5 -78t107.5 -141.5t39 -213v-671q-111 -43 -242 -67
t-260 -24q-109 0 -208 20.5t-173.5 65.5t-120 118t-45.5 179zM401 377q0 -80 73 -112t179 -32q53 0 108.5 8.5t102.5 24.5v234q-41 10 -94 17t-100 7q-55 0 -103.5 -7t-85.5 -24.5t-58.5 -46t-21.5 -69.5z" />
    <glyph glyph-name="b" unicode="b" horiz-adv-x="1368" 
d="M166 35v1626h287v-483q59 8 108 12t90 4q147 0 267 -47t205 -130t131 -194.5t46 -240.5t-45 -240t-131 -192.5t-211 -128t-284 -46.5q-250 0 -463 60zM453 279q100 -23 178 -23q170 0 270 79t100 247t-100 249.5t-270 81.5q-41 0 -84 -5t-94 -19v-610z" />
    <glyph glyph-name="c" unicode="c" horiz-adv-x="1142" 
d="M68 584q0 131 46 242.5t129 193.5t196.5 128t246.5 46q119 0 215 -24.5t184 -69.5l-114 -258q-57 33 -125 52t-148 19q-74 0 -135 -23.5t-104 -67.5t-66.5 -104.5t-23.5 -134t23.5 -134t66.5 -103.5t104.5 -66.5t134.5 -23.5q80 0 147.5 18.5t125.5 53.5l114 -260
q-88 -45 -184 -69t-215 -24q-133 0 -246.5 46.5t-196.5 127t-129 192.5t-46 243z" />
    <glyph glyph-name="d" unicode="d" horiz-adv-x="1370" 
d="M68 582q0 129 46 240.5t132 194.5t205.5 130t267.5 47q39 0 89 -4t110 -12v483h286v-1626q-215 -59 -463 -60q-160 0 -284.5 46.5t-211.5 128t-132 192.5t-45 240zM369 582q0 -168 100 -247t270 -79q78 0 179 23v610q-53 14 -96.5 19t-82.5 5q-170 0 -270 -81.5
t-100 -249.5z" />
    <glyph glyph-name="e" unicode="e" horiz-adv-x="1333" 
d="M68 584q0 133 48 245.5t131 193.5t194.5 126t238.5 45q133 0 244.5 -47t191.5 -138t123 -223q38 -115 38 -257q0 -20 -1 -40h-914q29 -119 120 -176t227 -57h30q45 0 95.5 8t96.5 21.5t85 32t61 40.5l127 -256q-92 -51 -213 -89t-291 -38q-137 0 -252.5 46.5t-200.5 128
t-132 193.5t-47 241zM373 727h602q-23 106 -102.5 159.5t-196.5 53.5t-197 -60.5t-106 -152.5z" />
    <glyph glyph-name="f" unicode="f" horiz-adv-x="1042" 
d="M51 887v266h217v111q0 207 109.5 302t349.5 95h274v-266h-272q-55 0 -89 -11.5t-53.5 -34t-25.5 -57.5t-6 -82v-57h438v-266h-438v-887h-287v887h-217z" />
    <glyph glyph-name="g" unicode="g" horiz-adv-x="1370" 
d="M68 600q0 127 45 235.5t132 188.5t212 125t284 45q250 0 463 -61v-1045q0 -154 -29.5 -258t-99 -168.5t-184.5 -93.5t-287 -29q-35 0 -78 4t-88 11.5t-88 16.5t-78 19l-61 299q43 -18 95 -33.5t107.5 -27.5t107.5 -18.5t95 -6.5q66 0 121.5 11.5t95 35t62.5 59.5t23 87
v24q-59 -10 -109.5 -13t-89.5 -3q-147 0 -267 46t-206 126t-132 188.5t-46 235.5zM369 600q0 -160 100 -237.5t270 -77.5q39 0 82 5t97 17v582q-47 10 -92.5 17t-86.5 7q-170 0 -270 -75.5t-100 -237.5z" />
    <glyph glyph-name="h" unicode="h" horiz-adv-x="1359" 
d="M166 0v1661h287v-492q66 10 125 17.5t106 7.5q111 0 208 -20.5t169 -73.5t114 -145.5t42 -233.5v-721h-287v639q0 158 -65.5 216t-192.5 58q-47 0 -102.5 -6t-116.5 -16v-891h-287z" />
    <glyph glyph-name="i" unicode="i" horiz-adv-x="616" 
d="M141 1487q0 68 48.5 109.5t120 41.5t118.5 -42t47 -109q0 -70 -46 -112t-120 -42q-68 0 -118 39t-50 115zM166 0v1153h287v-1153h-287z" />
    <glyph glyph-name="j" unicode="j" horiz-adv-x="659" 
d="M-82 -182q39 -10 68.5 -13.5t58.5 -3.5q94 0 128 59.5t34 202.5v1090h287v-1055q0 -152 -19.5 -258t-70 -172.5t-135.5 -97.5t-214 -31q-25 0 -52.5 3t-51.5 9zM182 1487q0 68 48.5 109.5t120 41.5t118.5 -42t47 -109q0 -70 -46 -112t-120 -42q-68 0 -118 39t-50 115z
" />
    <glyph glyph-name="k" unicode="k" horiz-adv-x="1247" 
d="M166 0v1661h287v-1075l428 567h340l-433 -571l459 -582h-344l-450 569v-569h-287z" />
    <glyph glyph-name="l" unicode="l" horiz-adv-x="618" 
d="M166 0v1661h287v-1661h-287z" />
    <glyph glyph-name="m" unicode="m" horiz-adv-x="2004" 
d="M166 0v1130q137 25 264 44.5t215 19.5q92 0 180 -18.5t146 -65.5q90 37 195.5 60.5t191.5 23.5q106 0 198.5 -20.5t160 -73.5t106.5 -145.5t39 -233.5v-721h-287v641q0 158 -54.5 215t-172.5 57q-47 0 -105.5 -12t-112.5 -37q6 -12 12.5 -38.5t10.5 -57.5t6 -62.5
t2 -56.5v-649h-287v641q0 80 -13 132t-41.5 83t-73 44t-105.5 13q-47 0 -88 -8l-100 -16v-889h-287z" />
    <glyph glyph-name="n" unicode="n" horiz-adv-x="1359" 
d="M166 0v1135q68 12 139.5 23t140 18.5t130 12.5t108.5 5q111 0 208 -20.5t169 -73.5t114 -145.5t42 -233.5v-721h-287v639q0 158 -65.5 216t-192.5 58q-47 0 -102.5 -6t-116.5 -16v-891h-287z" />
    <glyph glyph-name="o" unicode="o" horiz-adv-x="1384" 
d="M68 584q0 129 48 239.5t132 193.5t197.5 130t246.5 47t247 -47t198 -130t132 -193.5t48 -239.5t-48 -241t-132 -192.5t-198 -128t-247 -47.5t-246.5 47.5t-197.5 128t-132 192.5t-48 241zM369 583.5q0 -67.5 22.5 -128t64.5 -104.5t101 -69.5t135 -25.5t135.5 25.5
t101.5 69.5t64.5 104.5t22.5 128t-22.5 128t-64.5 104.5t-101.5 70.5t-135.5 26.5t-135 -26.5t-101 -70.5t-64.5 -104.5t-22.5 -128z" />
    <glyph glyph-name="p" unicode="p" horiz-adv-x="1370" 
d="M166 -451v1584q106 31 223 46t240 15q160 0 284.5 -47t211.5 -128t132.5 -192.5t45.5 -240.5t-46.5 -241t-131.5 -193.5t-205.5 -129t-268.5 -47.5q-39 0 -89 3.5t-109 13.5v-443h-287zM453 279q53 -12 96 -17.5t84 -5.5q170 0 270.5 82t100.5 248q0 168 -100.5 247.5
t-270.5 79.5q-43 0 -88 -7t-92 -17v-610z" />
    <glyph glyph-name="q" unicode="q" horiz-adv-x="1370" 
d="M68 586q0 129 45 240.5t132 192.5t212 128t284 47q250 0 463 -61v-1584h-286v443q-59 -10 -109.5 -13.5t-89.5 -3.5q-147 0 -267 47.5t-206 129t-132 193.5t-46 241zM369 586q0 -166 100 -248t270 -82q39 0 82 5t97 18v610q-47 10 -92.5 17t-86.5 7q-170 0 -270 -79.5
t-100 -247.5z" />
    <glyph glyph-name="r" unicode="r" horiz-adv-x="897" 
d="M166 0v1122q53 10 114.5 19.5t121 15.5t115.5 10t101 4h218v-274h-164q-16 0 -48 -1t-66 -4t-63.5 -7t-41.5 -8v-877h-287z" />
    <glyph glyph-name="s" unicode="s" horiz-adv-x="1226" 
d="M82 94l108 279q78 -51 188.5 -84t227.5 -33q88 0 151.5 20.5t63.5 69.5q0 45 -40 69.5t-150 47.5l-92 16q-197 37 -307.5 123t-110.5 236q0 164 128 260t353 96q137 0 265 -26.5t225 -80.5l-105 -266q-39 20 -88 38t-102.5 30t-107.5 18t-103 6q-180 0 -180 -75
q0 -39 40.5 -64.5t149.5 -46.5l90 -16q236 -45 337 -135.5t101 -245.5q0 -76 -32.5 -140.5t-98 -112.5t-165 -75t-230.5 -27q-70 0 -140.5 8.5t-138 24t-128 37t-109.5 49.5z" />
    <glyph glyph-name="t" unicode="t" horiz-adv-x="1083" 
d="M41 887v266h217v422h287v-422h438v-266h-438v-418q0 -59 10 -98t34.5 -61.5t63.5 -33t97 -10.5h241v-266h-272q-121 0 -207 18.5t-143.5 61.5t-84 112.5t-26.5 174.5v520h-217z" />
    <glyph glyph-name="u" unicode="u" horiz-adv-x="1314" 
d="M133 449v704h287v-623q0 -158 53 -216t174 -58q47 0 99.5 6t115.5 23v868h287v-1094q-61 -20 -118.5 -35.5t-116 -26.5t-122 -16.5t-137.5 -5.5q-111 0 -206 24t-165.5 79t-110.5 145t-40 226z" />
    <glyph glyph-name="v" unicode="v" horiz-adv-x="1228" 
d="M20 1153h302l292 -881l293 881h301l-397 -1153h-393z" />
    <glyph glyph-name="w" unicode="w" horiz-adv-x="1851" 
d="M31 1153h313l211 -881l197 881h346l198 -881l209 881h316l-308 -1153h-393l-194 893l-197 -893h-385z" />
    <glyph glyph-name="x" unicode="x" horiz-adv-x="1300" 
d="M23 0l458 594l-432 559h340l262 -340l262 340h342l-434 -561l457 -592h-338l-289 373l-291 -373h-337z" />
    <glyph glyph-name="y" unicode="y" horiz-adv-x="1316" 
d="M133 469v686h289v-604q0 -80 13.5 -132t41 -84t70.5 -45.5t102 -13.5q47 0 99.5 6.5t115.5 24.5v848h287v-1067q0 -154 -29.5 -258t-99.5 -168.5t-184.5 -93.5t-286.5 -29q-35 0 -78 4t-88 11.5t-88 16.5t-78 19l-61 299q43 -18 95 -33.5t107.5 -27.5t107.5 -18.5
t95 -6.5q66 0 121 11.5t95 35t62.5 59.5t22.5 87v24q-112 -24 -220 -24h-9q-111 0 -203 20.5t-158.5 73.5t-103.5 145.5t-37 233.5z" />
    <glyph glyph-name="z" unicode="z" horiz-adv-x="1193" 
d="M82 0v266l637 621h-588v266h940v-264l-625 -623h646v-266h-1010z" />
    <glyph glyph-name="braceleft" unicode="{" horiz-adv-x="747" 
d="M61 502v209q55 2 89 22.5t51.5 55t23.5 80.5t6 102v344q0 102 17.5 169.5t59.5 106.5t111.5 54.5t176.5 15.5h121v-207h-66q-47 0 -73.5 -6t-40 -22.5t-16.5 -46t-3 -76.5v-361q0 -86 -14.5 -144.5t-41 -96t-62 -58t-78.5 -33.5v-4q43 -12 78.5 -33.5t62 -59.5t41 -96.5
t14.5 -144.5v-364q0 -47 3 -77t16.5 -46t40 -22.5t73.5 -6.5h66v-207h-121q-106 0 -176 15.5t-112 54.5t-59.5 106.5t-17.5 170.5v348q0 53 -6 100t-23.5 81t-51 54.5t-89.5 22.5z" />
    <glyph glyph-name="bar" unicode="|" horiz-adv-x="616" 
d="M166 -451v2112h287v-2112h-287z" />
    <glyph glyph-name="braceright" unicode="}" horiz-adv-x="747" 
d="M31 -244h47q47 0 76.5 6.5t46 22.5t21.5 46t5 77v364q0 86 14.5 144.5t41 96.5t62.5 59.5t79 33.5v4q-43 12 -79 33t-62.5 58.5t-41 96t-14.5 144.5v361q0 47 -5 76.5t-21.5 46t-46 22.5t-76.5 6h-47v207h119q106 0 175.5 -15.5t111.5 -54.5t59.5 -106.5t17.5 -169.5
v-344q0 -55 6 -101.5t24.5 -81t52.5 -55t89 -22.5v-209q-55 -2 -89 -22.5t-52.5 -54.5t-24.5 -81t-6 -100v-348q0 -102 -17.5 -170t-59.5 -107t-111.5 -54.5t-175.5 -15.5h-119v207z" />
    <glyph glyph-name="asciitilde" unicode="~" horiz-adv-x="1269" 
d="M84 373q0 199 72.5 307t218.5 108q76 0 142.5 -24.5t123.5 -54.5l111 -56q51 -24 96 -24q57 0 90 33.5t43 125.5h207q-2 -201 -74 -308t-219 -107q-70 0 -132.5 24.5t-120.5 55t-112.5 55t-105.5 24.5q-57 0 -91 -33.5t-44 -125.5h-205z" />
    <glyph glyph-name="uni00A0" unicode="&#xa0;" horiz-adv-x="614" 
 />
    <glyph glyph-name="exclamdown" unicode="&#xa1;" horiz-adv-x="714" 
d="M166 1091.5q0 36.5 15.5 67.5t42 52.5t60 32.5t68.5 11q37 0 71 -11t60.5 -32.5t43 -52.5t16.5 -67.5t-16.5 -68.5t-43 -53.5t-60.5 -33.5t-71 -12q-35 0 -68.5 12t-60 33.5t-42 53.5t-15.5 68.5zM211 -451v1199h287v-1199h-287z" />
    <glyph glyph-name="cent" unicode="&#xa2;" horiz-adv-x="1142" 
d="M68 584q0 123 42 230.5t117.5 188t180 130t227.5 59.5v197h96v-197q104 -4 189.5 -27.5t164.5 -64.5l-114 -258q-51 29 -110.5 47t-129.5 22v-655q137 8 240 72l114 -260q-80 -41 -164.5 -63.5t-189.5 -27.5v-200h-96v200q-123 8 -227.5 57.5t-180 129.5t-117.5 187.5
t-42 232.5zM369 584q0 -133 71.5 -219t194.5 -105v647q-123 -18 -194.5 -105t-71.5 -218z" />
    <glyph glyph-name="sterling" unicode="&#xa3;" horiz-adv-x="1464" 
d="M102 649v266h250l-49 78q-27 39 -47 80t-33.5 87t-13.5 100q0 115 56.5 196.5t145.5 133.5t199 77t219 25q135 0 275.5 -33t245.5 -90l-115 -254q-72 43 -172 69.5t-203 26.5q-59 0 -120.5 -8t-111.5 -29.5t-83 -60.5t-33 -99q0 -41 14.5 -77.5t37 -73.5t50 -73t54.5 -75
h462v-266h-368q-4 -51 -27.5 -100t-59.5 -94t-82 -85t-93 -71l2 -4q53 16 96 22.5t82 6.5q53 0 99 -11.5t91 -25t91.5 -24.5t99.5 -11q61 0 123.5 12t130.5 45l88 -260q-80 -35 -168 -54.5t-193 -19.5q-66 0 -123 13.5t-114 31t-116.5 30.5t-125 13t-150.5 -16t-190 -70
l-106 256q61 31 122.5 69t109.5 87t78 112.5t30 145.5v2h-355z" />
    <glyph glyph-name="currency" unicode="&#xa4;" horiz-adv-x="1183" 
d="M25 227l122 113q-35 51 -56 118.5t-21 155.5t21.5 156t55.5 119l-122 112l151 152l127 -117q47 39 119 64.5t170 25.5t170 -25.5t119 -64.5l127 117l151 -152l-123 -112q35 -51 56.5 -119t21.5 -156t-21.5 -155.5t-56.5 -118.5l123 -113l-151 -151l-127 117
q-47 -39 -119 -65t-170 -26t-170 26t-119 65l-127 -117zM266 614q0 -66 24.5 -123t68.5 -100t103.5 -67.5t129.5 -24.5q68 0 127 24.5t103 67.5t70 100.5t26 122.5q0 70 -25 128.5t-68 99.5t-103 64.5t-130 23.5q-72 0 -131.5 -23.5t-102.5 -64.5t-67.5 -99.5t-24.5 -128.5z
" />
    <glyph glyph-name="yen" unicode="&#xa5;" horiz-adv-x="1536" 
d="M31 1661h307l430 -762l430 762h307l-544 -942h364v-197h-412v-143h412v-215h-412v-164h-288v164h-416v215h416v143h-416v197h369z" />
    <glyph glyph-name="brokenbar" unicode="&#xa6;" horiz-adv-x="616" 
d="M166 369h287v-820h-287v820zM166 842v819h287v-819h-287z" />
    <glyph glyph-name="section" unicode="&#xa7;" horiz-adv-x="1495" 
d="M92 731q0 111 75 200t181 144q-57 53 -88 113.5t-31 132.5q0 90 40 158.5t108.5 115.5t159 71t192.5 24q141 0 265 -32t216 -85l-102 -240q-72 47 -170 80t-201 33q-104 0 -167.5 -31t-63.5 -90q0 -47 41 -89t143 -95l332 -168q86 -43 156.5 -87t120 -93.5t77 -107.5
t27.5 -130q0 -66 -20.5 -120t-56.5 -100t-83 -83t-100 -64q55 -53 84.5 -116.5t29.5 -141.5q0 -96 -39.5 -169.5t-109.5 -124t-164 -77t-205 -26.5q-141 0 -264 32t-217 85l104 237q84 -55 178.5 -81.5t192.5 -26.5q51 0 95 9t78 28.5t53.5 48.5t19.5 67q0 55 -53.5 108.5
t-182.5 119.5l-290 145q-170 86 -265.5 184.5t-95.5 241.5zM377 754q0 -78 46 -130.5t155 -109.5l303 -154q18 -10 36.5 -19t36.5 -19q72 39 117 88t45 112q0 37 -11 69t-37 60.5t-68 58t-103 60.5l-356 176q-72 -35 -118 -82t-46 -110z" />
    <glyph glyph-name="dieresis" unicode="&#xa8;" horiz-adv-x="915" 
d="M31 1501q0 61 43 99t108.5 38t109.5 -37.5t44 -99.5q0 -68 -47 -104q-43 -37 -107 -37q-59 0 -105 37t-46 104zM582 1501q0 61 43 99t108.5 38t108.5 -37.5t43 -99.5q0 -70 -45 -104q-43 -37 -107 -37q-61 0 -106 37t-45 104z" />
    <glyph glyph-name="copyright" unicode="&#xa9;" horiz-adv-x="1902" 
d="M92 829.5q0 190.5 66.5 350t183.5 273.5t273.5 177.5t336.5 63.5q178 0 334 -63.5t272.5 -177.5t184 -273.5t67.5 -350t-67.5 -349t-184 -271.5t-272.5 -175.5t-334 -62.5q-180 0 -336.5 62.5t-273.5 175.5t-183.5 271.5t-66.5 349zM260 829q0 -158 53.5 -287.5
t145.5 -224t219 -145.5t274.5 -51t274.5 51t219 145.5t144 224.5t52 287q0 160 -52 290t-144 224.5t-219 145.5t-274.5 51t-274.5 -51t-219 -145.5t-145.5 -224.5t-53.5 -290zM481 837.5q0 108.5 36 198.5t101.5 154.5t155.5 99.5t201 35q94 0 177 -23.5t146 -64.5l-71 -178
q-53 35 -114.5 54.5t-133.5 19.5q-59 0 -110.5 -20.5t-89.5 -58.5t-59.5 -92.5t-21.5 -123.5q0 -68 21.5 -123.5t59.5 -94t89.5 -59t110.5 -20.5q72 0 132 19.5t114 51.5l73 -174q-63 -41 -146 -64.5t-177 -23.5q-111 0 -201 36t-155.5 100.5t-101.5 153.5t-36 197.5z" />
    <glyph glyph-name="ordfeminine" unicode="&#xaa;" horiz-adv-x="935" 
d="M82 1137q0 63 26.5 113t73.5 84t112.5 51.5t143.5 17.5q23 0 64 -3t86 -9v16q0 61 -50.5 78.5t-123.5 17.5q-53 0 -126 -19.5t-145 -47.5l21 192q53 23 127 41.5t145 18.5q74 0 137.5 -16.5t109.5 -52.5t72.5 -93.5t26.5 -141.5v-434q-78 -29 -167 -50t-171 -21
q-72 0 -137 13t-115.5 44t-80 80t-29.5 121zM287 1149q0 -51 46 -70.5t116 -19.5q68 0 139 18v140q-29 6 -67 10t-60 4q-70 0 -122 -16.5t-52 -65.5z" />
    <glyph glyph-name="guillemotleft" unicode="&#xab;" horiz-adv-x="1249" 
d="M53 590l320 524h301l-309 -522l307 -529h-297zM580 590l319 524h297l-307 -522l305 -529h-295z" />
    <glyph glyph-name="logicalnot" unicode="&#xac;" horiz-adv-x="1458" 
d="M94 680v266h1198v-719h-286v453h-912z" />
    <glyph glyph-name="uni00AD" unicode="&#xad;" horiz-adv-x="835" 
d="M94 451v266h647v-266h-647z" />
    <glyph glyph-name="registered" unicode="&#xae;" horiz-adv-x="1902" 
d="M92 829.5q0 190.5 66.5 350t183.5 273.5t273.5 177.5t336.5 63.5q178 0 334 -63.5t272.5 -177.5t184 -273.5t67.5 -350t-67.5 -349t-184 -271.5t-272.5 -175.5t-334 -62.5q-180 0 -336.5 62.5t-273.5 175.5t-183.5 271.5t-66.5 349zM260 829q0 -158 53.5 -287.5
t145.5 -224t219 -145.5t274.5 -51t274.5 51t219 145.5t144 224.5t52 287q0 160 -52 290t-144 224.5t-219 145.5t-274.5 51t-274.5 -51t-219 -145.5t-145.5 -224.5t-53.5 -290zM612 406v911h318q88 0 162.5 -12.5t130 -44t87 -88t31.5 -142.5q0 -100 -47 -159.5t-125 -88.5
l215 -376h-221l-192 344h-29h-133v-344h-197zM809 922h174q84 0 121 27.5t37 80.5q0 59 -42 87t-118 28h-172v-223z" />
    <glyph glyph-name="macron" unicode="&#xaf;" horiz-adv-x="663" 
d="M31 1421v176h602v-176h-602z" />
    <glyph glyph-name="degree" unicode="&#xb0;" horiz-adv-x="899" 
d="M61 1298q0 82 31 154t83 125t123 84t151 31q82 0 152.5 -31t122.5 -84t83 -125t31 -154q0 -80 -31 -150.5t-83 -122.5t-123 -83t-152 -31q-80 0 -151 31t-123 83t-83 122.5t-31 150.5zM238 1298q0 -96 58 -160.5t153 -64.5q96 0 155.5 64.5t59.5 160.5q0 98 -59.5 164
t-155.5 66q-94 0 -152.5 -66t-58.5 -164z" />
    <glyph glyph-name="plusminus" unicode="&#xb1;" horiz-adv-x="1384" 
d="M94 0v217h1192v-217h-1192zM94 614v215h455v324h287v-324h452v-215h-452v-331h-287v331h-455z" />
    <glyph glyph-name="uni00B2" unicode="&#xb2;" horiz-adv-x="688" 
d="M102 983v102l134 99q63 49 112 94t78 87t29 81q0 53 -39 76.5t-92 23.5q-47 0 -86 -15t-74 -44l-53 100q43 35 101 53.5t124 18.5q98 0 168.5 -47t70.5 -144q0 -100 -76.5 -186t-224.5 -192h312v-107h-484z" />
    <glyph glyph-name="uni00B3" unicode="&#xb3;" horiz-adv-x="702" 
d="M102 1042l54 101q35 -29 76.5 -44.5t89.5 -15.5q63 0 110 23.5t47 73.5q0 55 -47 72.5t-123 17.5h-18v108h16q80 0 118 16.5t38 63.5q0 43 -39 65.5t-98 22.5q-47 0 -88 -15t-76 -44l-53 100q45 33 105 52.5t122 19.5q109 0 177.5 -47t68.5 -133q0 -55 -28 -95.5
t-67 -56.5q47 -14 80 -53t33 -107q0 -98 -74.5 -147t-191.5 -49q-63 0 -125 18.5t-107 52.5z" />
    <glyph glyph-name="acute" unicode="&#xb4;" horiz-adv-x="587" 
d="M31 1374l241 287h285l-293 -287h-233z" />
    <glyph glyph-name="mu" unicode="&#xb5;" horiz-adv-x="1382" 
d="M147 -440q10 66 16.5 141.5t6.5 173.5v1278h287v-532q0 -184 59 -275.5t174 -91.5q117 0 178.5 94t61.5 273v532h287v-1153h-256v203q-41 -94 -116 -156.5t-200 -69.5q-88 -2 -140 41t-79 107v-223q0 -104 -5 -189.5t-15 -152.5h-259z" />
    <glyph glyph-name="paragraph" unicode="&#xb6;" horiz-adv-x="1323" 
d="M68 1221q0 102 39.5 184t112.5 138t176.5 87t232.5 31h528v-1831h-194v1647h-250v-1647h-195v956q-80 6 -159.5 34t-144 81t-105.5 132t-41 188z" />
    <glyph glyph-name="periodcentered" unicode="&#xb7;" horiz-adv-x="645" 
d="M152 582q0 70 50 119t122 49q70 0 119 -49.5t49 -118.5q0 -72 -49 -121t-119 -49q-72 0 -122 49t-50 121z" />
    <glyph glyph-name="cedilla" unicode="&#xb8;" horiz-adv-x="516" 
d="M41 -313q23 -10 74 -21.5t92 -11.5q47 0 89 14.5t42 57.5q0 45 -43 59t-96 14q-39 0 -75 -5t-58 -9l129 217h112l-69 -117q33 2 72.5 -2t74.5 -21.5t57.5 -48t22.5 -79.5q0 -51 -20.5 -87t-55.5 -59.5t-80 -34t-94 -10.5q-47 0 -84 5.5t-82 21.5z" />
    <glyph glyph-name="uni00B9" unicode="&#xb9;" horiz-adv-x="471" 
d="M102 1489v104l267 60v-670h-115v541z" />
    <glyph glyph-name="ordmasculine" unicode="&#xba;" horiz-adv-x="956" 
d="M63 1282q0 84 32 157.5t87.5 129t131 87.5t163.5 32t164 -32t132 -87.5t88 -129t32 -157.5q0 -86 -32 -159.5t-88 -128t-132 -86t-164 -31.5t-163.5 31.5t-131 86t-87.5 128t-32 159.5zM266 1282q0 -94 56.5 -154.5t154.5 -60.5q100 0 156.5 60.5t56.5 154.5
q0 88 -56 151.5t-157 63.5q-98 0 -154.5 -63.5t-56.5 -151.5z" />
    <glyph glyph-name="guillemotright" unicode="&#xbb;" horiz-adv-x="1249" 
d="M53 1114h297l320 -524l-320 -527h-295l305 529zM575 1114h302l319 -524l-322 -527h-296l307 529z" />
    <glyph glyph-name="onequarter" unicode="&#xbc;" horiz-adv-x="2021" 
d="M205 1389v155h327v-926h-196v771h-131zM487 8l830 1589l139 -69l-827 -1591zM1085 164v80l447 700h178v-635h107v-145h-107v-164h-184v164h-441zM1311 309h215v369h-4z" />
    <glyph glyph-name="onehalf" unicode="&#xbd;" horiz-adv-x="2021" 
d="M205 1389v155h327v-926h-196v771h-131zM393 8l830 1589l139 -69l-827 -1591zM1141 0l256 297l63 74q37 43 71 91t58.5 95t24.5 86q0 66 -33 109t-96 43q-33 0 -56.5 -15.5t-39 -39t-22.5 -51t-5 -54.5h-207q4 68 27.5 125t64.5 99t100.5 66.5t137.5 24.5q68 0 127 -22.5
t103 -62.5t69.5 -94t25.5 -118q0 -102 -52 -183t-122 -155l-147 -157h328v-158h-676z" />
    <glyph glyph-name="threequarters" unicode="&#xbe;" horiz-adv-x="2021" 
d="M205 903h196q4 -55 41 -95t102.5 -40t100.5 47t35 100q0 27 -9 54.5t-27.5 49t-45.5 34t-59 10.5l-37 -2v129h22q61 0 94 35t33 94q0 47 -29.5 82t-84.5 35q-53 0 -80 -37t-29 -80h-186q12 121 92 193.5t215 72.5q129 0 209 -69.5t80 -190.5q0 -53 -22.5 -107.5
t-74.5 -87.5q70 -29 99.5 -95t29.5 -130q0 -68 -25.5 -123t-69.5 -93t-105.5 -58.5t-132.5 -20.5q-70 0 -128.5 22.5t-102.5 61.5t-70.5 93.5t-30.5 115.5zM594 8l829 1589l140 -69l-828 -1591zM1085 164v80l447 700h178v-635h107v-145h-107v-164h-184v164h-441zM1311 309
h215v369h-4z" />
    <glyph glyph-name="questiondown" unicode="&#xbf;" horiz-adv-x="1163" 
d="M92 49q0 -117 45 -211t124 -160.5t186.5 -102.5t230.5 -36q121 0 207 19.5t155 48.5l37 297q-86 -37 -180 -60.5t-190 -23.5q-57 0 -113.5 17.5t-100.5 50t-72 80.5t-28 108q0 74 34 125t91 82.5t132 45t159 13.5h25v403h-287v-186q-92 -23 -175 -63.5t-144.5 -104
t-98.5 -148.5t-37 -194zM506 1085.5q0 38.5 16.5 70.5t44 53.5t62.5 33.5t71.5 12t71.5 -12t61.5 -33.5t43 -53.5t16.5 -70.5t-16.5 -70.5t-43 -54.5t-61.5 -35t-71.5 -12.5t-71.5 12.5t-62.5 35t-44 54.5t-16.5 70.5z" />
    <glyph glyph-name="Agrave" unicode="&#xc0;" horiz-adv-x="1628" 
d="M20 0l615 1661h358l615 -1661h-310l-141 391h-688l-139 -391h-310zM401 2017h287l240 -286h-234zM567 668h492l-246 690z" />
    <glyph glyph-name="Aacute" unicode="&#xc1;" horiz-adv-x="1628" 
d="M20 0l615 1661h358l615 -1661h-310l-141 391h-688l-139 -391h-310zM567 668h492l-246 690zM666 1731l241 286h285l-293 -286h-233z" />
    <glyph glyph-name="Acircumflex" unicode="&#xc2;" horiz-adv-x="1628" 
d="M20 0l615 1661h358l615 -1661h-310l-141 391h-688l-139 -391h-310zM391 1731l277 286h297l272 -286h-240l-180 172l-186 -172h-240zM567 668h492l-246 690z" />
    <glyph glyph-name="Atilde" unicode="&#xc3;" horiz-adv-x="1628" 
d="M20 0l615 1661h358l615 -1661h-310l-141 391h-688l-139 -391h-310zM424 1741q10 123 73.5 194.5t157.5 71.5q51 0 91 -17.5t74 -38t65.5 -38t68.5 -17.5q51 0 74 29t33 82h139q-10 -133 -73.5 -199.5t-155.5 -66.5q-51 0 -91 17.5t-75 38t-67.5 37.5t-69.5 17
q-51 0 -72 -28.5t-31 -81.5h-141zM567 668h492l-246 690z" />
    <glyph glyph-name="Adieresis" unicode="&#xc4;" horiz-adv-x="1628" 
d="M20 0l615 1661h358l615 -1661h-310l-141 391h-688l-139 -391h-310zM385 1876q0 61 43 99t108.5 38t109.5 -38t44 -99q0 -68 -47 -104q-43 -37 -106 -37q-59 0 -105.5 36.5t-46.5 104.5zM567 668h492l-246 690zM936 1876q0 61 43 99t108.5 38t108.5 -38t43 -99
q0 -70 -45 -104q-43 -37 -107 -37q-61 0 -106 36.5t-45 104.5z" />
    <glyph glyph-name="Aring" unicode="&#xc5;" horiz-adv-x="1628" 
d="M20 0l615 1661h358l615 -1661h-310l-141 391h-688l-139 -391h-310zM567 668h492l-246 690zM594 1937q0 90 63.5 147.5t155.5 57.5q90 0 152.5 -57t62.5 -148q0 -92 -61.5 -149t-153.5 -57t-155.5 57t-63.5 149zM694 1937q0 -53 36 -83.5t83 -30.5t81 30.5t34 83.5
q0 51 -34 83t-81 32t-83 -31.5t-36 -83.5z" />
    <glyph glyph-name="AE" unicode="&#xc6;" horiz-adv-x="2238" 
d="M-20 0l1060 1661h1061v-275h-766v-395h695v-278h-695v-439h770v-274h-1065v391h-471l-239 -391h-350zM741 668h299v485z" />
    <glyph glyph-name="Ccedilla" unicode="&#xc7;" horiz-adv-x="1585" 
d="M92 834q0 184 60.5 340.5t172 272.5t271.5 180.5t356 64.5q158 0 301.5 -39t249.5 -105l-114 -260q-90 55 -196 89t-228 34q-113 0 -214.5 -35t-178 -106.5t-121.5 -180t-45 -256t45 -256t121.5 -181t178 -107.5t214.5 -35q123 0 228 34t196 91l114 -262
q-106 -66 -249.5 -104t-301.5 -38q-18 0 -37.5 1t-35.5 4l-56 -95q33 2 73 -2t75 -21.5t57.5 -48t22.5 -79.5q0 -51 -20.5 -87t-55.5 -59.5t-80 -34t-94 -10.5q-47 0 -84 5.5t-82 21.5l-8 117q23 -10 74 -21.5t92 -11.5q47 0 89 14.5t42 57.5q0 45 -43 59t-97 14
q-39 0 -74.5 -5t-58.5 -9l121 207q-158 27 -284 100.5t-214 184t-135 252t-47 305.5z" />
    <glyph glyph-name="Egrave" unicode="&#xc8;" horiz-adv-x="1402" 
d="M205 0v1661h1061v-275h-766v-395h694v-278h-694v-439h770v-274h-1065zM344 2017h287l239 -286h-233z" />
    <glyph glyph-name="Eacute" unicode="&#xc9;" horiz-adv-x="1402" 
d="M205 0v1661h1061v-275h-766v-395h694v-278h-694v-439h770v-274h-1065zM580 1731l241 286h285l-293 -286h-233z" />
    <glyph glyph-name="Ecircumflex" unicode="&#xca;" horiz-adv-x="1402" 
d="M205 0v1661h1061v-275h-766v-395h694v-278h-694v-439h770v-274h-1065zM313 1731l277 286h297l272 -286h-239l-181 172l-186 -172h-240z" />
    <glyph glyph-name="Edieresis" unicode="&#xcb;" horiz-adv-x="1402" 
d="M205 0v1661h1061v-275h-766v-395h694v-278h-694v-439h770v-274h-1065zM299 1876q0 61 43 99t108.5 38t109.5 -38t44 -99q0 -68 -47 -104q-43 -37 -106 -37q-59 0 -105.5 36.5t-46.5 104.5zM850 1876q0 61 43 99t108.5 38t108.5 -38t43 -99q0 -70 -45 -104
q-43 -37 -107 -37q-61 0 -106 36.5t-45 104.5z" />
    <glyph glyph-name="Igrave" unicode="&#xcc;" horiz-adv-x="704" 
d="M-57 2017h286l240 -286h-233zM205 0v1661h295v-1661h-295z" />
    <glyph glyph-name="Iacute" unicode="&#xcd;" horiz-adv-x="704" 
d="M197 1731l241 286h285l-293 -286h-233zM205 0v1661h295v-1661h-295z" />
    <glyph glyph-name="Icircumflex" unicode="&#xce;" horiz-adv-x="704" 
d="M-68 1731l277 286h297l272 -286h-239l-181 172l-186 -172h-240zM205 0v1661h295v-1661h-295z" />
    <glyph glyph-name="Idieresis" unicode="&#xcf;" horiz-adv-x="704" 
d="M-76 1876q0 61 43 99t108.5 38t109.5 -38t44 -99q0 -68 -47 -104q-43 -37 -106 -37q-59 0 -105.5 36.5t-46.5 104.5zM205 0v1661h295v-1661h-295zM475 1876q0 61 43 99t108.5 38t108.5 -38t43 -99q0 -70 -45 -104q-43 -37 -106 -37q-61 0 -106.5 36.5t-45.5 104.5z" />
    <glyph glyph-name="Eth" unicode="&#xd0;" horiz-adv-x="1755" 
d="M14 717v274h246v670h438q207 0 384.5 -52.5t306.5 -154.5t201.5 -257t72.5 -357q0 -201 -70.5 -357.5t-196.5 -264t-300 -163t-383 -55.5h-453v717h-246zM557 274h137q150 0 271.5 30t208 97.5t132.5 175t46 263.5q0 145 -47.5 248.5t-132.5 170t-203.5 97t-263.5 30.5
h-148v-395h387v-274h-387v-443z" />
    <glyph glyph-name="Ntilde" unicode="&#xd1;" horiz-adv-x="1759" 
d="M205 0v1661h454l607 -1385v1385h288v-1661h-452l-606 1384v-1384h-291zM496 1741q10 123 73.5 194.5t157.5 71.5q51 0 91 -17.5t74 -38t65.5 -38t68.5 -17.5q51 0 73.5 29t33.5 82h139q-10 -133 -73.5 -199.5t-156.5 -66.5q-51 0 -91 17.5t-74.5 38t-67.5 37.5t-70 17
q-51 0 -71.5 -28.5t-30.5 -81.5h-141z" />
    <glyph glyph-name="Ograve" unicode="&#xd2;" horiz-adv-x="1908" 
d="M92 834q0 180 63.5 337.5t178.5 272.5t272.5 181.5t348 66.5t348 -66.5t272.5 -181.5t178.5 -272.5t63.5 -337.5q0 -182 -63.5 -339t-178.5 -273t-272.5 -181.5t-348 -65.5t-348 65.5t-272.5 181.5t-178.5 272.5t-63.5 339.5zM406 833.5q0 -131.5 41.5 -238t115.5 -182
t174.5 -116.5t216.5 -41q119 0 219.5 41t174 116.5t115.5 182t42 238t-42 238t-115.5 182t-174 116.5t-219.5 41q-117 0 -217 -41t-174 -116.5t-115.5 -182t-41.5 -238zM541 2017h286l240 -286h-233z" />
    <glyph glyph-name="Oacute" unicode="&#xd3;" horiz-adv-x="1908" 
d="M92 834q0 180 63.5 337.5t178.5 272.5t272.5 181.5t348 66.5t348 -66.5t272.5 -181.5t178.5 -272.5t63.5 -337.5q0 -182 -63.5 -339t-178.5 -273t-272.5 -181.5t-348 -65.5t-348 65.5t-272.5 181.5t-178.5 272.5t-63.5 339.5zM406 833.5q0 -131.5 41.5 -238t115.5 -182
t174.5 -116.5t216.5 -41q119 0 219.5 41t174 116.5t115.5 182t42 238t-42 238t-115.5 182t-174 116.5t-219.5 41q-117 0 -217 -41t-174 -116.5t-115.5 -182t-41.5 -238zM829 1731l242 286h285l-293 -286h-234z" />
    <glyph glyph-name="Ocircumflex" unicode="&#xd4;" horiz-adv-x="1908" 
d="M92 834q0 180 63.5 337.5t178.5 272.5t272.5 181.5t348 66.5t348 -66.5t272.5 -181.5t178.5 -272.5t63.5 -337.5q0 -182 -63.5 -339t-178.5 -273t-272.5 -181.5t-348 -65.5t-348 65.5t-272.5 181.5t-178.5 272.5t-63.5 339.5zM406 833.5q0 -131.5 41.5 -238t115.5 -182
t174.5 -116.5t216.5 -41q119 0 219.5 41t174 116.5t115.5 182t42 238t-42 238t-115.5 182t-174 116.5t-219.5 41q-117 0 -217 -41t-174 -116.5t-115.5 -182t-41.5 -238zM532 1729l277 286h297l272 -286h-239l-181 172l-186 -172h-240z" />
    <glyph glyph-name="Otilde" unicode="&#xd5;" horiz-adv-x="1908" 
d="M92 834q0 180 63.5 337.5t178.5 272.5t272.5 181.5t348 66.5t348 -66.5t272.5 -181.5t178.5 -272.5t63.5 -337.5q0 -182 -63.5 -339t-178.5 -273t-272.5 -181.5t-348 -65.5t-348 65.5t-272.5 181.5t-178.5 272.5t-63.5 339.5zM406 833.5q0 -131.5 41.5 -238t115.5 -182
t174.5 -116.5t216.5 -41q119 0 219.5 41t174 116.5t115.5 182t42 238t-42 238t-115.5 182t-174 116.5t-219.5 41q-117 0 -217 -41t-174 -116.5t-115.5 -182t-41.5 -238zM561 1741q10 123 73.5 194.5t158.5 71.5q51 0 91 -17.5t73.5 -38t65.5 -38t69 -17.5q51 0 73.5 29
t32.5 82h139q-10 -133 -73.5 -199.5t-155.5 -66.5q-51 0 -91 17.5t-75 38t-67.5 37.5t-69.5 17q-51 0 -71.5 -28.5t-31.5 -81.5h-141z" />
    <glyph glyph-name="Odieresis" unicode="&#xd6;" horiz-adv-x="1908" 
d="M92 834q0 180 63.5 337.5t178.5 272.5t272.5 181.5t348 66.5t348 -66.5t272.5 -181.5t178.5 -272.5t63.5 -337.5q0 -182 -63.5 -339t-178.5 -273t-272.5 -181.5t-348 -65.5t-348 65.5t-272.5 181.5t-178.5 272.5t-63.5 339.5zM406 833.5q0 -131.5 41.5 -238t115.5 -182
t174.5 -116.5t216.5 -41q119 0 219.5 41t174 116.5t115.5 182t42 238t-42 238t-115.5 182t-174 116.5t-219.5 41q-117 0 -217 -41t-174 -116.5t-115.5 -182t-41.5 -238zM524 1876q0 61 43 99t108.5 38t109.5 -38t44 -99q0 -68 -47 -104q-43 -37 -106 -37q-59 0 -105.5 36.5
t-46.5 104.5zM1075 1876q0 61 43 99t108.5 38t108.5 -38t43 -99q0 -70 -45 -104q-43 -37 -106 -37q-61 0 -106.5 36.5t-45.5 104.5z" />
    <glyph glyph-name="multiply" unicode="&#xd7;" horiz-adv-x="1202" 
d="M39 190l393 392l-393 393l172 170l389 -393l393 393l170 -170l-391 -393l391 -392l-170 -170l-393 392l-389 -392z" />
    <glyph glyph-name="Oslash" unicode="&#xd8;" horiz-adv-x="1908" 
d="M92 25l207 235q-98 113 -152.5 259.5t-54.5 314.5q0 180 63.5 337.5t178.5 272.5t272.5 181.5t347.5 66.5q137 0 258 -35t222 -101l211 240l159 -131l-211 -242q106 -115 165 -265t59 -324q0 -182 -63.5 -339t-178.5 -273t-272.5 -181.5t-348.5 -65.5q-145 0 -270 38
t-229 108l-201 -230zM406 834q0 -102 24.5 -187.5t71.5 -154.5l739 843q-129 76 -287 76q-117 0 -217 -41t-174 -116.5t-115.5 -182t-41.5 -237.5zM647 344q131 -88 307 -88q119 0 219.5 41t174 116.5t115.5 182.5t42 238q0 109 -28.5 199.5t-81.5 162.5z" />
    <glyph glyph-name="Ugrave" unicode="&#xd9;" horiz-adv-x="1794" 
d="M184 651v1010h295v-942q0 -115 21.5 -202t71 -145.5t129 -88t196.5 -29.5q115 0 194.5 29.5t129 88t72 145.5t22.5 202v942h295v-1010q0 -141 -39 -265t-124 -215t-220 -143.5t-330 -52.5t-330 52.5t-220 143.5t-124 215t-39 265zM563 2017h287l240 -286h-234z" />
    <glyph glyph-name="Uacute" unicode="&#xda;" horiz-adv-x="1794" 
d="M184 651v1010h295v-942q0 -115 21.5 -202t71 -145.5t129 -88t196.5 -29.5q115 0 194.5 29.5t129 88t72 145.5t22.5 202v942h295v-1010q0 -141 -39 -265t-124 -215t-220 -143.5t-330 -52.5t-330 52.5t-220 143.5t-124 215t-39 265zM727 1731l242 286h284l-292 -286h-234z
" />
    <glyph glyph-name="Ucircumflex" unicode="&#xdb;" horiz-adv-x="1794" 
d="M184 651v1010h295v-942q0 -115 21.5 -202t71 -145.5t129 -88t196.5 -29.5q115 0 194.5 29.5t129 88t72 145.5t22.5 202v942h295v-1010q0 -141 -39 -265t-124 -215t-220 -143.5t-330 -52.5t-330 52.5t-220 143.5t-124 215t-39 265zM477 1731l277 286h297l272 -286h-240
l-180 172l-186 -172h-240z" />
    <glyph glyph-name="Udieresis" unicode="&#xdc;" horiz-adv-x="1794" 
d="M184 651v1010h295v-942q0 -115 21.5 -202t71 -145.5t129 -88t196.5 -29.5q115 0 194.5 29.5t129 88t72 145.5t22.5 202v942h295v-1010q0 -141 -39 -265t-124 -215t-220 -143.5t-330 -52.5t-330 52.5t-220 143.5t-124 215t-39 265zM471 1876q0 61 43 99t108.5 38
t109.5 -38t44 -99q0 -68 -47 -104q-43 -37 -106 -37q-59 0 -105.5 36.5t-46.5 104.5zM1022 1876q0 61 43 99t108.5 38t108.5 -38t43 -99q0 -70 -45 -104q-43 -37 -106 -37q-61 0 -106.5 36.5t-45.5 104.5z" />
    <glyph glyph-name="Yacute" unicode="&#xdd;" horiz-adv-x="1536" 
d="M31 1661h342l395 -748l395 748h342l-587 -1038v-623h-297v623zM600 1731l242 286h284l-292 -286h-234z" />
    <glyph glyph-name="Thorn" unicode="&#xde;" horiz-adv-x="1517" 
d="M205 0v1661h295v-309h327q160 0 275 -43t188.5 -114t109.5 -162t36 -189q0 -104 -37 -200.5t-113 -170.5t-190.5 -118t-268.5 -44h-327v-311h-295zM500 586h264q80 0 146.5 12t114.5 41t73.5 78t25.5 121q0 123 -88 181t-272 58h-264v-491z" />
    <glyph glyph-name="germandbls" unicode="&#xdf;" horiz-adv-x="1597" 
d="M166 0v1059q0 168 42 287.5t124 196.5t200.5 113t272.5 36q125 0 232.5 -28t185 -83t123 -138t45.5 -194q0 -53 -14.5 -103t-39 -92t-58.5 -75t-73 -51q55 -16 108.5 -51t95.5 -89.5t68.5 -128t26.5 -167.5q0 -135 -48 -233.5t-131 -161t-195.5 -92.5t-241.5 -30
q-59 0 -142 7.5t-155 19.5l55 279q45 -10 98.5 -17.5t106.5 -7.5q68 0 131.5 11.5t112.5 39t78.5 76.5t29.5 125q0 70 -31.5 117t-88 73.5t-131 38t-160.5 11.5h-54v264h43q154 0 231 46t77 146q0 98 -85 153.5t-214 55.5q-94 0 -159 -21.5t-105 -66.5t-58 -114.5
t-18 -163.5v-1047h-285z" />
    <glyph glyph-name="agrave" unicode="&#xe0;" horiz-adv-x="1294" 
d="M102 358q0 96 40 170t111 123t170 74t216 25q47 0 103.5 -3.5t121.5 -13.5v17q0 98 -73.5 133t-192.5 35q-45 0 -98.5 -8.5t-107.5 -23t-105 -32.5t-94 -39l36 293q70 35 178.5 60.5t229.5 25.5q111 0 205 -24.5t162.5 -78t107.5 -141.5t39 -213v-671q-111 -43 -242 -67
t-260 -24q-109 0 -208 20.5t-173.5 65.5t-120 118t-45.5 179zM303 1661h287l239 -287h-233zM401 377q0 -80 73 -112t179 -32q53 0 108.5 8.5t102.5 24.5v234q-41 10 -94 17t-100 7q-55 0 -103.5 -7t-85.5 -24.5t-58.5 -46t-21.5 -69.5z" />
    <glyph glyph-name="aacute" unicode="&#xe1;" horiz-adv-x="1294" 
d="M102 358q0 96 40 170t111 123t170 74t216 25q47 0 103.5 -3.5t121.5 -13.5v17q0 98 -73.5 133t-192.5 35q-45 0 -98.5 -8.5t-107.5 -23t-105 -32.5t-94 -39l36 293q70 35 178.5 60.5t229.5 25.5q111 0 205 -24.5t162.5 -78t107.5 -141.5t39 -213v-671q-111 -43 -242 -67
t-260 -24q-109 0 -208 20.5t-173.5 65.5t-120 118t-45.5 179zM401 377q0 -80 73 -112t179 -32q53 0 108.5 8.5t102.5 24.5v234q-41 10 -94 17t-100 7q-55 0 -103.5 -7t-85.5 -24.5t-58.5 -46t-21.5 -69.5zM508 1374l242 287h284l-293 -287h-233z" />
    <glyph glyph-name="acircumflex" unicode="&#xe2;" horiz-adv-x="1294" 
d="M102 358q0 96 40 170t111 123t170 74t216 25q47 0 103.5 -3.5t121.5 -13.5v17q0 98 -73.5 133t-192.5 35q-45 0 -98.5 -8.5t-107.5 -23t-105 -32.5t-94 -39l36 293q70 35 178.5 60.5t229.5 25.5q111 0 205 -24.5t162.5 -78t107.5 -141.5t39 -213v-671q-111 -43 -242 -67
t-260 -24q-109 0 -208 20.5t-173.5 65.5t-120 118t-45.5 179zM244 1374l276 287h297l273 -287h-240l-180 172l-187 -172h-239zM401 377q0 -80 73 -112t179 -32q53 0 108.5 8.5t102.5 24.5v234q-41 10 -94 17t-100 7q-55 0 -103.5 -7t-85.5 -24.5t-58.5 -46t-21.5 -69.5z" />
    <glyph glyph-name="atilde" unicode="&#xe3;" horiz-adv-x="1294" 
d="M102 358q0 96 40 170t111 123t170 74t216 25q47 0 103.5 -3.5t121.5 -13.5v17q0 98 -73.5 133t-192.5 35q-45 0 -98.5 -8.5t-107.5 -23t-105 -32.5t-94 -39l36 293q70 35 178.5 60.5t229.5 25.5q111 0 205 -24.5t162.5 -78t107.5 -141.5t39 -213v-671q-111 -43 -242 -67
t-260 -24q-109 0 -208 20.5t-173.5 65.5t-120 118t-45.5 179zM291 1380q10 123 73.5 195t157.5 72q51 0 91 -17.5t74 -38t65.5 -38t68.5 -17.5q51 0 74 28.5t33 82.5h139q-10 -133 -73.5 -200t-155.5 -67q-51 0 -91 17.5t-75 38t-68 38t-69 17.5q-51 0 -72 -28.5t-31 -82.5
h-141zM401 377q0 -80 73 -112t179 -32q53 0 108.5 8.5t102.5 24.5v234q-41 10 -94 17t-100 7q-55 0 -103.5 -7t-85.5 -24.5t-58.5 -46t-21.5 -69.5z" />
    <glyph glyph-name="adieresis" unicode="&#xe4;" horiz-adv-x="1294" 
d="M102 358q0 96 40 170t111 123t170 74t216 25q47 0 103.5 -3.5t121.5 -13.5v17q0 98 -73.5 133t-192.5 35q-45 0 -98.5 -8.5t-107.5 -23t-105 -32.5t-94 -39l36 293q70 35 178.5 60.5t229.5 25.5q111 0 205 -24.5t162.5 -78t107.5 -141.5t39 -213v-671q-111 -43 -242 -67
t-260 -24q-109 0 -208 20.5t-173.5 65.5t-120 118t-45.5 179zM260 1501q0 61 43 99t108.5 38t109.5 -37.5t44 -99.5q0 -68 -47 -104q-43 -37 -106 -37q-59 0 -105.5 37t-46.5 104zM401 377q0 -80 73 -112t179 -32q53 0 108.5 8.5t102.5 24.5v234q-41 10 -94 17t-100 7
q-55 0 -103.5 -7t-85.5 -24.5t-58.5 -46t-21.5 -69.5zM811 1501q0 61 43 99t108.5 38t108.5 -37.5t43 -99.5q0 -70 -45 -104q-43 -37 -106 -37q-61 0 -106.5 37t-45.5 104z" />
    <glyph glyph-name="aring" unicode="&#xe5;" horiz-adv-x="1294" 
d="M102 358q0 96 40 170t111 123t170 74t216 25q47 0 103.5 -3.5t121.5 -13.5v17q0 98 -73.5 133t-192.5 35q-45 0 -98.5 -8.5t-107.5 -23t-105 -32.5t-94 -39l36 293q70 35 178.5 60.5t229.5 25.5q111 0 205 -24.5t162.5 -78t107.5 -141.5t39 -213v-671q-111 -43 -242 -67
t-260 -24q-109 0 -208 20.5t-173.5 65.5t-120 118t-45.5 179zM401 377q0 -80 73 -112t179 -32q53 0 108.5 8.5t102.5 24.5v234q-41 10 -94 17t-100 7q-55 0 -103.5 -7t-85.5 -24.5t-58.5 -46t-21.5 -69.5zM461 1532q0 90 63.5 147.5t155.5 57.5q90 0 152.5 -57.5
t62.5 -147.5q0 -92 -61.5 -149.5t-153.5 -57.5t-155.5 57.5t-63.5 149.5zM561 1532q0 -53 36 -84t83 -31t81 31t34 84q0 51 -34 83t-81 32t-83 -32t-36 -83z" />
    <glyph glyph-name="ae" unicode="&#xe6;" horiz-adv-x="2088" 
d="M102 358q0 96 40 170t111 123t170 74t216 25q47 0 103.5 -3.5t121.5 -13.5v17q0 98 -73.5 133t-192.5 35q-45 0 -98.5 -8.5t-107.5 -23t-105 -32.5t-94 -39l36 293q70 35 178.5 60.5t229.5 25.5q137 0 237.5 -37t159.5 -123q74 76 176.5 118t225.5 42q133 0 244.5 -47
t191.5 -138t123 -222.5t37 -297.5h-914q29 -119 120 -176t226 -57h31q45 0 95 8t96.5 21.5t85 32t61.5 40.5l127 -256q-92 -51 -213 -89t-291 -38q-106 0 -194 28t-160 79q-98 -47 -213 -77t-240 -30q-109 0 -208 20.5t-173.5 65.5t-120 118t-45.5 179zM401 377
q0 -80 73 -112t179 -32q53 0 108.5 8.5t102.5 24.5v234q-41 10 -94 17t-100 7q-55 0 -103.5 -7t-85.5 -24.5t-58.5 -46t-21.5 -69.5zM1128 727h603q-23 106 -103 159.5t-196.5 53.5t-196.5 -60.5t-107 -152.5z" />
    <glyph glyph-name="ccedilla" unicode="&#xe7;" horiz-adv-x="1142" 
d="M68 584q0 131 46 242.5t129 193.5t196.5 128t246.5 46q119 0 215 -24.5t184 -69.5l-114 -258q-57 33 -125 52t-148 19q-74 0 -135 -23.5t-104 -67.5t-66.5 -104.5t-23.5 -134t23.5 -134t66.5 -103.5t104.5 -66.5t134.5 -23.5q80 0 147.5 18.5t125.5 53.5l114 -260
q-88 -45 -184 -69t-215 -24q-14 0 -26.5 1t-24.5 1l-55 -92q33 2 72.5 -2t74.5 -21.5t57.5 -48t22.5 -79.5q0 -51 -20.5 -87t-55.5 -59.5t-80 -34t-94 -10.5q-47 0 -84 5.5t-82 21.5l-8 117q23 -10 74 -21.5t92 -11.5q47 0 89 14.5t42 57.5q0 45 -43 59t-96 14q-39 0 -75 -5
t-58 -9l122 207q-102 25 -187 78t-146.5 129.5t-95 175t-33.5 209.5z" />
    <glyph glyph-name="egrave" unicode="&#xe8;" horiz-adv-x="1333" 
d="M68 584q0 133 48 245.5t131 193.5t194.5 126t238.5 45q133 0 244.5 -47t191.5 -138t123 -222.5t37 -297.5h-914q29 -119 120 -176t227 -57h30q45 0 95.5 8t96.5 21.5t85 32t61 40.5l127 -256q-92 -51 -213 -89t-291 -38q-137 0 -252.5 46.5t-200.5 128t-132 193.5
t-47 241zM322 1661h286l240 -287h-234zM373 727h602q-23 106 -102.5 159.5t-196.5 53.5t-197 -60.5t-106 -152.5z" />
    <glyph glyph-name="eacute" unicode="&#xe9;" horiz-adv-x="1333" 
d="M68 584q0 133 48 245.5t131 193.5t194.5 126t238.5 45q133 0 244.5 -47t191.5 -138t123 -222.5t37 -297.5h-914q29 -119 120 -176t227 -57h30q45 0 95.5 8t96.5 21.5t85 32t61 40.5l127 -256q-92 -51 -213 -89t-291 -38q-137 0 -252.5 46.5t-200.5 128t-132 193.5
t-47 241zM373 727h602q-23 106 -102.5 159.5t-196.5 53.5t-197 -60.5t-106 -152.5zM532 1374l242 287h285l-293 -287h-234z" />
    <glyph glyph-name="ecircumflex" unicode="&#xea;" horiz-adv-x="1333" 
d="M68 584q0 133 48 245.5t131 193.5t194.5 126t238.5 45q133 0 244.5 -47t191.5 -138t123 -222.5t37 -297.5h-914q29 -119 120 -176t227 -57h30q45 0 95.5 8t96.5 21.5t85 32t61 40.5l127 -256q-92 -51 -213 -89t-291 -38q-137 0 -252.5 46.5t-200.5 128t-132 193.5
t-47 241zM258 1374l277 287h296l273 -287h-240l-180 172l-186 -172h-240zM373 727h602q-23 106 -102.5 159.5t-196.5 53.5t-197 -60.5t-106 -152.5z" />
    <glyph glyph-name="edieresis" unicode="&#xeb;" horiz-adv-x="1333" 
d="M68 584q0 133 48 245.5t131 193.5t194.5 126t238.5 45q133 0 244.5 -47t191.5 -138t123 -222.5t37 -297.5h-914q29 -119 120 -176t227 -57h30q45 0 95.5 8t96.5 21.5t85 32t61 40.5l127 -256q-92 -51 -213 -89t-291 -38q-137 0 -252.5 46.5t-200.5 128t-132 193.5
t-47 241zM274 1501q0 61 43 99t109 38t110 -37.5t44 -99.5q0 -68 -48 -104q-43 -37 -106 -37q-59 0 -105.5 37t-46.5 104zM373 727h602q-23 106 -102.5 159.5t-196.5 53.5t-197 -60.5t-106 -152.5zM825 1501q0 61 43 99t108.5 38t108.5 -37.5t43 -99.5q0 -70 -45 -104
q-43 -37 -106 -37q-61 0 -106.5 37t-45.5 104z" />
    <glyph glyph-name="igrave" unicode="&#xec;" horiz-adv-x="616" 
d="M-39 1661h287l239 -287h-233zM166 0v1153h287v-1153h-287z" />
    <glyph glyph-name="iacute" unicode="&#xed;" horiz-adv-x="616" 
d="M121 1374l241 287h285l-293 -287h-233zM166 0v1153h287v-1153h-287z" />
    <glyph glyph-name="icircumflex" unicode="&#xee;" horiz-adv-x="616" 
d="M-115 1374l277 287h297l272 -287h-239l-181 172l-186 -172h-240zM166 0v1153h287v-1153h-287z" />
    <glyph glyph-name="idieresis" unicode="&#xef;" horiz-adv-x="616" 
d="M-119 1501q0 61 43 99t108.5 38t109.5 -37.5t44 -99.5q0 -68 -47 -104q-43 -37 -106 -37q-59 0 -105.5 37t-46.5 104zM166 0v1153h287v-1153h-287zM432 1501q0 61 43 99t108.5 38t108.5 -37.5t43 -99.5q0 -70 -45 -104q-43 -37 -106 -37q-61 0 -106.5 37t-45.5 104z" />
    <glyph glyph-name="eth" unicode="&#xf0;" horiz-adv-x="1462" 
d="M92 584q0 121 43 231.5t120 195.5t182.5 136t232.5 51q57 0 104 -8l-137 170l-195 -100l-67 106l182 94l-158 201h369l49 -68l209 109l68 -107l-201 -102l256 -340q104 -139 162.5 -273.5t58.5 -295.5q0 -133 -52 -245t-140 -192.5t-204 -126t-243 -45.5
q-129 0 -244.5 46.5t-203.5 127t-139.5 192.5t-51.5 243zM389 594q0 -70 24.5 -131.5t69.5 -107.5t107.5 -72.5t140.5 -26.5t140.5 26.5t107.5 72.5t68.5 107.5t23.5 131.5t-24.5 130t-68.5 106.5t-107.5 73t-139.5 26.5q-78 0 -140.5 -26.5t-107.5 -73t-69.5 -106.5
t-24.5 -130z" />
    <glyph glyph-name="ntilde" unicode="&#xf1;" horiz-adv-x="1359" 
d="M166 0v1135q68 12 139.5 23t140 18.5t130 12.5t108.5 5q111 0 208 -20.5t169 -73.5t114 -145.5t42 -233.5v-721h-287v639q0 158 -65.5 216t-192.5 58q-47 0 -102.5 -6t-116.5 -16v-891h-287zM289 1380q10 123 73.5 195t157.5 72q51 0 91 -17.5t74 -38t65.5 -38
t68.5 -17.5q51 0 73.5 28.5t33.5 82.5h139q-10 -133 -73.5 -200t-155.5 -67q-51 0 -91 17.5t-75 38t-68 38t-70 17.5q-51 0 -71.5 -28.5t-30.5 -82.5h-141z" />
    <glyph glyph-name="ograve" unicode="&#xf2;" horiz-adv-x="1384" 
d="M68 584q0 129 48 239.5t132 193.5t197.5 130t246.5 47t247 -47t198 -130t132 -193.5t48 -239.5t-48 -241t-132 -192.5t-198 -128t-247 -47.5t-246.5 47.5t-197.5 128t-132 192.5t-48 241zM319 1661h287l240 -287h-234zM369 583.5q0 -67.5 22.5 -128t64.5 -104.5
t101 -69.5t135 -25.5t135.5 25.5t101.5 69.5t64.5 104.5t22.5 128t-22.5 128t-64.5 104.5t-101.5 70.5t-135.5 26.5t-135 -26.5t-101 -70.5t-64.5 -104.5t-22.5 -128z" />
    <glyph glyph-name="oacute" unicode="&#xf3;" horiz-adv-x="1384" 
d="M68 584q0 129 48 239.5t132 193.5t197.5 130t246.5 47t247 -47t198 -130t132 -193.5t48 -239.5t-48 -241t-132 -192.5t-198 -128t-247 -47.5t-246.5 47.5t-197.5 128t-132 192.5t-48 241zM369 583.5q0 -67.5 22.5 -128t64.5 -104.5t101 -69.5t135 -25.5t135.5 25.5
t101.5 69.5t64.5 104.5t22.5 128t-22.5 128t-64.5 104.5t-101.5 70.5t-135.5 26.5t-135 -26.5t-101 -70.5t-64.5 -104.5t-22.5 -128zM590 1374l241 287h285l-293 -287h-233z" />
    <glyph glyph-name="ocircumflex" unicode="&#xf4;" horiz-adv-x="1384" 
d="M68 584q0 129 48 239.5t132 193.5t197.5 130t246.5 47t247 -47t198 -130t132 -193.5t48 -239.5t-48 -241t-132 -192.5t-198 -128t-247 -47.5t-246.5 47.5t-197.5 128t-132 192.5t-48 241zM274 1374l277 287h297l272 -287h-239l-181 172l-186 -172h-240zM369 583.5
q0 -67.5 22.5 -128t64.5 -104.5t101 -69.5t135 -25.5t135.5 25.5t101.5 69.5t64.5 104.5t22.5 128t-22.5 128t-64.5 104.5t-101.5 70.5t-135.5 26.5t-135 -26.5t-101 -70.5t-64.5 -104.5t-22.5 -128z" />
    <glyph glyph-name="otilde" unicode="&#xf5;" horiz-adv-x="1384" 
d="M68 584q0 129 48 239.5t132 193.5t197.5 130t246.5 47t247 -47t198 -130t132 -193.5t48 -239.5t-48 -241t-132 -192.5t-198 -128t-247 -47.5t-246.5 47.5t-197.5 128t-132 192.5t-48 241zM303 1380q10 123 73.5 195t158.5 72q51 0 91 -17.5t73.5 -38t65.5 -38t69 -17.5
q51 0 73.5 28.5t32.5 82.5h139q-10 -133 -73.5 -200t-155.5 -67q-51 0 -91 17.5t-75 38t-67.5 38t-69.5 17.5q-51 0 -71.5 -28.5t-31.5 -82.5h-141zM369 583.5q0 -67.5 22.5 -128t64.5 -104.5t101 -69.5t135 -25.5t135.5 25.5t101.5 69.5t64.5 104.5t22.5 128t-22.5 128
t-64.5 104.5t-101.5 70.5t-135.5 26.5t-135 -26.5t-101 -70.5t-64.5 -104.5t-22.5 -128z" />
    <glyph glyph-name="odieresis" unicode="&#xf6;" horiz-adv-x="1384" 
d="M68 584q0 129 48 239.5t132 193.5t197.5 130t246.5 47t247 -47t198 -130t132 -193.5t48 -239.5t-48 -241t-132 -192.5t-198 -128t-247 -47.5t-246.5 47.5t-197.5 128t-132 192.5t-48 241zM264 1501q0 61 43 99t108.5 38t109.5 -37.5t44 -99.5q0 -68 -47 -104
q-43 -37 -106 -37q-59 0 -105.5 37t-46.5 104zM369 583.5q0 -67.5 22.5 -128t64.5 -104.5t101 -69.5t135 -25.5t135.5 25.5t101.5 69.5t64.5 104.5t22.5 128t-22.5 128t-64.5 104.5t-101.5 70.5t-135.5 26.5t-135 -26.5t-101 -70.5t-64.5 -104.5t-22.5 -128zM815 1501
q0 61 43 99t108.5 38t108.5 -37.5t43 -99.5q0 -70 -45 -104q-43 -37 -106 -37q-61 0 -106.5 37t-45.5 104z" />
    <glyph glyph-name="divide" unicode="&#xf7;" horiz-adv-x="1247" 
d="M94 451v266h1059v-266h-1059zM432 72q0 39 15.5 69.5t42 52t60.5 34t68 12.5q37 0 71 -12.5t59.5 -34t42 -52t16.5 -69.5q0 -37 -16.5 -68t-42 -52.5t-59.5 -32.5t-71 -11q-35 0 -68.5 11t-60 32.5t-42 52.5t-15.5 68zM432 1077q0 37 15.5 69t42 53.5t60.5 33.5t68 12
q37 0 71 -12t59.5 -33.5t42 -53.5t16.5 -69t-16.5 -67.5t-42 -52t-59.5 -33t-71 -11.5q-35 0 -68.5 11.5t-60 33t-42 52t-15.5 67.5z" />
    <glyph glyph-name="oslash" unicode="&#xf8;" horiz-adv-x="1384" 
d="M68 584q0 129 48 239.5t132 193.5t197.5 130t246.5 47q98 0 185.5 -25.5t160.5 -72.5l152 174l129 -113l-152 -174q72 -80 111 -181.5t39 -217.5q0 -129 -48 -241t-132 -192.5t-198 -128t-247 -47.5q-92 0 -173 21.5t-152 62.5l-150 -172l-129 113l143 166
q-78 80 -120.5 187.5t-42.5 230.5zM369 584q0 -115 55 -195l424 488q-33 16 -72 26t-84 10q-76 0 -135 -26.5t-101 -70.5t-64.5 -104t-22.5 -128zM559 281q57 -25 133 -25t135.5 25.5t101.5 69.5t64.5 104.5t22.5 128.5q0 96 -43 174z" />
    <glyph glyph-name="ugrave" unicode="&#xf9;" horiz-adv-x="1314" 
d="M133 449v704h287v-623q0 -158 53 -216t174 -58q47 0 99.5 6t115.5 23v868h287v-1094q-61 -20 -118.5 -35.5t-116 -26.5t-122 -16.5t-137.5 -5.5q-111 0 -206 24t-165.5 79t-110.5 145t-40 226zM317 1661h287l240 -287h-234z" />
    <glyph glyph-name="uacute" unicode="&#xfa;" horiz-adv-x="1314" 
d="M133 449v704h287v-623q0 -158 53 -216t174 -58q47 0 99.5 6t115.5 23v868h287v-1094q-61 -20 -118.5 -35.5t-116 -26.5t-122 -16.5t-137.5 -5.5q-111 0 -206 24t-165.5 79t-110.5 145t-40 226zM483 1374l242 287h285l-293 -287h-234z" />
    <glyph glyph-name="ucircumflex" unicode="&#xfb;" horiz-adv-x="1314" 
d="M133 449v704h287v-623q0 -158 53 -216t174 -58q47 0 99.5 6t115.5 23v868h287v-1094q-61 -20 -118.5 -35.5t-116 -26.5t-122 -16.5t-137.5 -5.5q-111 0 -206 24t-165.5 79t-110.5 145t-40 226zM225 1374l277 287h297l272 -287h-240l-180 172l-186 -172h-240z" />
    <glyph glyph-name="udieresis" unicode="&#xfc;" horiz-adv-x="1314" 
d="M133 449v704h287v-623q0 -158 53 -216t174 -58q47 0 99.5 6t115.5 23v868h287v-1094q-61 -20 -118.5 -35.5t-116 -26.5t-122 -16.5t-137.5 -5.5q-111 0 -206 24t-165.5 79t-110.5 145t-40 226zM213 1501q0 61 43 99t108.5 38t109.5 -37.5t44 -99.5q0 -68 -47 -104
q-43 -37 -106 -37q-59 0 -105.5 37t-46.5 104zM764 1501q0 61 43 99t108.5 38t108.5 -37.5t43 -99.5q0 -70 -45 -104q-43 -37 -107 -37q-61 0 -106 37t-45 104z" />
    <glyph glyph-name="yacute" unicode="&#xfd;" horiz-adv-x="1316" 
d="M133 469v686h289v-604q0 -80 13.5 -132t41 -84t70.5 -45.5t102 -13.5q47 0 99.5 6.5t115.5 24.5v848h287v-1067q0 -154 -29.5 -258t-99.5 -168.5t-184.5 -93.5t-286.5 -29q-35 0 -78 4t-88 11.5t-88 16.5t-78 19l-61 299q43 -18 95 -33.5t107.5 -27.5t107.5 -18.5
t95 -6.5q66 0 121 11.5t95 35t62.5 59.5t22.5 87v24q-117 -25 -229 -24q-111 0 -203 20.5t-158.5 73.5t-103.5 145.5t-37 233.5zM459 1374l241 287h285l-293 -287h-233z" />
    <glyph glyph-name="thorn" unicode="&#xfe;" horiz-adv-x="1370" 
d="M166 -451v2112h287v-479l88 8q47 4 88 4q160 0 284.5 -47t211.5 -128t132.5 -192.5t45.5 -240.5t-46.5 -241t-131.5 -193.5t-205.5 -129t-268.5 -47.5q-39 0 -89 3.5t-109 13.5v-443h-287zM453 279q53 -12 96 -17.5t84 -5.5q170 0 270.5 82t100.5 248q0 168 -100.5 247.5
t-270.5 79.5q-43 0 -88 -7t-92 -17v-610z" />
    <glyph glyph-name="ydieresis" unicode="&#xff;" horiz-adv-x="1316" 
d="M133 469v686h289v-604q0 -80 13.5 -132t41 -84t70.5 -45.5t102 -13.5q47 0 99.5 6.5t115.5 24.5v848h287v-1067q0 -154 -29.5 -258t-99.5 -168.5t-184.5 -93.5t-286.5 -29q-35 0 -78 4t-88 11.5t-88 16.5t-78 19l-61 299q43 -18 95 -33.5t107.5 -27.5t107.5 -18.5
t95 -6.5q66 0 121 11.5t95 35t62.5 59.5t22.5 87v24q-117 -25 -229 -24q-111 0 -203 20.5t-158.5 73.5t-103.5 145.5t-37 233.5zM217 1501q0 61 43 99t108.5 38t109.5 -37.5t44 -99.5q0 -68 -47 -104q-43 -37 -106 -37q-59 0 -105.5 37t-46.5 104zM768 1501q0 61 43 99
t108.5 38t108.5 -37.5t43 -99.5q0 -70 -45 -104q-43 -37 -106 -37q-61 0 -106.5 37t-45.5 104z" />
    <glyph glyph-name="dotlessi" unicode="&#x131;" horiz-adv-x="616" 
d="M166 0v1153h287v-1153h-287z" />
    <glyph glyph-name="Lslash" unicode="&#x141;" horiz-adv-x="1406" 
d="M-41 754l346 143v764h297v-641l303 127l103 -246l-406 -170v-457h764v-274h-1061v608l-244 -100z" />
    <glyph glyph-name="lslash" unicode="&#x142;" horiz-adv-x="884" 
d="M-41 754l340 155v752h287v-621l229 107l111 -246l-340 -156v-745h-287v612l-229 -104z" />
    <glyph glyph-name="OE" unicode="&#x152;" horiz-adv-x="2676" 
d="M92 834q0 180 63.5 337.5t178.5 272.5t272.5 181.5t347.5 66.5q162 0 293 -48.5t232 -134.5v152h1061v-275h-766v-395h694v-278h-694v-439h770v-274h-1065v158q-100 -86 -231.5 -134.5t-293.5 -48.5q-190 0 -347.5 65.5t-272.5 181.5t-178.5 272.5t-63.5 339.5z
M406 833.5q0 -131.5 41.5 -238t115.5 -182t174.5 -116.5t216.5 -41q119 0 219.5 41t174 116.5t115.5 182t42 238t-42 238t-115.5 182t-174 116.5t-219.5 41q-117 0 -217 -41t-174 -116.5t-115.5 -182t-41.5 -238z" />
    <glyph glyph-name="oe" unicode="&#x153;" horiz-adv-x="2267" 
d="M68 584q0 129 48 239.5t132 193.5t197.5 130t246.5 47q147 0 264 -58.5t193 -158.5q80 102 199.5 159.5t265.5 57.5q133 0 244.5 -47t191.5 -138t123 -222.5t37 -297.5h-914q29 -119 120 -176t226 -57h31q45 0 95.5 8t96.5 21.5t85 32t61 40.5l127 -256q-92 -51 -213 -89
t-291 -38q-156 0 -278.5 57.5t-204.5 160.5q-76 -100 -192.5 -159t-266.5 -59q-133 0 -246.5 47.5t-197.5 128t-132 192.5t-48 241zM369 583.5q0 -67.5 22.5 -128t64.5 -104.5t101 -69.5t135 -25.5t135.5 25.5t101.5 69.5t64.5 104.5t22.5 128t-22.5 128t-64.5 104.5
t-101.5 70.5t-135.5 26.5t-135 -26.5t-101 -70.5t-64.5 -104.5t-22.5 -128zM1307 727h602q-23 106 -103 159.5t-196.5 53.5t-196.5 -60.5t-106 -152.5z" />
    <glyph glyph-name="Scaron" unicode="&#x160;" horiz-adv-x="1474" 
d="M92 123l117 260q43 -29 100.5 -52.5t122 -40t132 -26.5t132.5 -10q76 0 140.5 12.5t111.5 39t75 68.5t28 99q0 51 -22.5 88t-63.5 63.5t-99.5 45t-130.5 37.5l-137 34q-227 55 -342 182.5t-115 313.5q0 100 43 184t123 144.5t190.5 93.5t245.5 33q78 0 159 -11.5t157 -32
t144.5 -47t121.5 -59.5l-117 -260q-92 59 -219 94t-248 35q-59 0 -112.5 -11t-94 -34t-64.5 -56.5t-24 -78.5q0 -82 62.5 -131t202.5 -84l139 -35q104 -27 197.5 -68t163 -102t110.5 -145t41 -195q0 -121 -50 -213t-137.5 -154.5t-208 -95.5t-261.5 -33q-86 0 -173.5 11.5
t-167 31t-149.5 46t-123 59.5zM287 2017h225l195 -174l198 174h228l-291 -286h-269z" />
    <glyph glyph-name="scaron" unicode="&#x161;" horiz-adv-x="1226" 
d="M82 94l108 279q78 -51 188.5 -84t227.5 -33q88 0 151.5 20.5t63.5 69.5q0 45 -40 69.5t-150 47.5l-92 16q-197 37 -307.5 123t-110.5 236q0 164 128 260t353 96q137 0 265 -26.5t225 -80.5l-105 -266q-39 20 -88 38t-102.5 30t-107.5 18t-103 6q-180 0 -180 -75
q0 -39 40.5 -64.5t149.5 -46.5l90 -16q236 -45 337 -135.5t101 -245.5q0 -76 -32.5 -140.5t-98 -112.5t-165 -75t-230.5 -27q-70 0 -140.5 8.5t-138 24t-128 37t-109.5 49.5zM158 1661h225l195 -174l198 174h228l-291 -287h-269z" />
    <glyph glyph-name="Ydieresis" unicode="&#x178;" horiz-adv-x="1536" 
d="M31 1661h342l395 -748l395 748h342l-587 -1038v-623h-297v623zM344 1876q0 61 43 99t108.5 38t109.5 -38t44 -99q0 -68 -47 -104q-43 -37 -106 -37q-59 0 -105.5 36.5t-46.5 104.5zM895 1876q0 61 43 99t108.5 38t108.5 -38t43 -99q0 -70 -45 -104q-43 -37 -106 -37
q-61 0 -106.5 36.5t-45.5 104.5z" />
    <glyph glyph-name="Zcaron" unicode="&#x17d;" horiz-adv-x="1544" 
d="M113 0v272l921 1114h-850v275h1205v-272l-920 -1115h942v-274h-1298zM371 2017h225l195 -174l198 174h228l-291 -286h-269z" />
    <glyph glyph-name="zcaron" unicode="&#x17e;" horiz-adv-x="1193" 
d="M82 0v266l637 621h-588v266h940v-264l-625 -623h646v-266h-1010zM186 1661h226l194 -174l199 174h227l-291 -287h-268z" />
    <glyph glyph-name="florin" unicode="&#x192;" horiz-adv-x="1183" 
d="M-6 -332l41 258l67 -4q66 0 116 20.5t85 80.5q14 27 26.5 66.5t22.5 83.5t17.5 86t11.5 73l88 553h-123l21 147h127l38 236q14 92 43 171t77 137t120 92t176 34q47 0 93 -10.5t87 -32.5l-41 -248q-29 16 -57.5 25.5t-62.5 9.5q-45 0 -73 -25.5t-45.5 -63.5t-24.5 -80
t-13 -75l-29 -170h219l-20 -147h-221l-96 -596q-23 -133 -52.5 -248t-90 -199t-159 -133t-253.5 -49z" />
    <glyph glyph-name="Ohorn" unicode="&#x1a0;" horiz-adv-x="362" 
d="M0 0v287h403v-287h-403z" />
    <glyph glyph-name="circumflex" unicode="&#x2c6;" horiz-adv-x="907" 
d="M31 1374l276 287h297l273 -287h-240l-180 172l-187 -172h-239z" />
    <glyph glyph-name="caron" unicode="&#x2c7;" horiz-adv-x="907" 
d="M31 1661h225l195 -174l198 174h228l-291 -287h-269z" />
    <glyph glyph-name="breve" unicode="&#x2d8;" horiz-adv-x="770" 
d="M31 1661h149q10 -90 68.5 -124t136.5 -34q76 0 136.5 34t70.5 124h147q-10 -150 -103 -227.5t-253 -77.5q-154 0 -248 77.5t-104 227.5z" />
    <glyph glyph-name="dotaccent" unicode="&#x2d9;" horiz-adv-x="364" 
d="M31 1501q0 61 43 99t108.5 38t109.5 -37.5t44 -99.5q0 -68 -47 -104q-43 -37 -107 -37q-59 0 -105 37t-46 104z" />
    <glyph glyph-name="ring" unicode="&#x2da;" horiz-adv-x="495" 
d="M31 1532q0 90 63.5 147.5t155.5 57.5q90 0 152.5 -57.5t62.5 -147.5q0 -92 -61.5 -149.5t-153.5 -57.5t-155.5 57.5t-63.5 149.5zM131 1532q0 -53 36 -84t83 -31t81 31t34 84q0 51 -34 83t-81 32t-83 -32t-36 -83z" />
    <glyph glyph-name="ogonek" unicode="&#x2db;" horiz-adv-x="548" 
d="M31 -225q0 37 16 70.5t44 63.5t63.5 53.5t74.5 39.5l273 -2q-92 -45 -154.5 -89t-62.5 -101q0 -45 37.5 -67t95.5 -22q29 0 53.5 4.5t46.5 10.5v-144q-70 -16 -170 -16q-57 0 -113.5 9t-101.5 33t-73.5 61.5t-28.5 95.5z" />
    <glyph glyph-name="tilde" unicode="&#x2dc;" horiz-adv-x="837" 
d="M31 1380q10 123 73.5 195t157.5 72q51 0 91 -17.5t74 -38t65.5 -38t68.5 -17.5q51 0 73.5 28.5t33.5 82.5h139q-10 -133 -73.5 -200t-155.5 -67q-51 0 -91.5 17.5t-75 38t-67.5 38t-70 17.5q-51 0 -71.5 -28.5t-30.5 -82.5h-141z" />
    <glyph glyph-name="hungarumlaut" unicode="&#x2dd;" horiz-adv-x="1056" 
d="M31 1374l241 287h285l-293 -287h-233zM500 1374l239 287h287l-291 -287h-235z" />
    <glyph glyph-name="pi" unicode="&#x3c0;" horiz-adv-x="1667" 
d="M86 887v266h1448v-266h-182v-475q0 -49 4 -77t18.5 -43.5t42 -19.5t72.5 -4h45v-268h-94q-111 0 -183.5 13.5t-114.5 48t-59.5 96t-17.5 157.5v572h-530v-887h-287v887h-162z" />
    <glyph glyph-name="uni060C" unicode="&#x60c;" horiz-adv-x="804" 
d="M205 -74l266 621h231l-194 -621h-303z" />
    <glyph glyph-name="uni0615" unicode="&#x615;" 
d="M-279 0v113h103v303h121v-115h104q104 0 168 -55.5t64 -165.5v-80h-560zM-55 113h192q0 37 -22.5 66.5t-63.5 29.5h-106v-96z" />
    <glyph glyph-name="uni061B" unicode="&#x61b;" horiz-adv-x="854" 
d="M205 139q0 39 16.5 70t42 52.5t59 33.5t70.5 12t71 -12t59.5 -33.5t42 -52.5t16.5 -70q0 -37 -16.5 -67.5t-42 -51t-59.5 -32t-71 -11.5t-70.5 11.5t-59 32t-42 51t-16.5 67.5zM254 721l266 620h232l-195 -620h-303z" />
    <glyph glyph-name="uni061F" unicode="&#x61f;" horiz-adv-x="1169" 
d="M143 1110q0 117 45 211t124 160.5t186.5 102.5t230.5 36q121 0 207 -19.5t156 -48.5l36 -297q-86 37 -180 60.5t-190 23.5q-57 0 -113.5 -17t-100.5 -50t-72 -81t-28 -108q0 -74 34 -125t91.5 -82.5t132 -45t158.5 -13.5h25v-403h-287v186q-92 20 -175 62.5t-144.5 105.5
t-98.5 148t-37 194zM551 145q0 39 16.5 71t43 54.5t61.5 34.5t71.5 12t71.5 -12t62.5 -34.5t44 -54.5t16.5 -71t-16.5 -70.5t-44 -53t-62.5 -34t-71.5 -12.5t-71.5 12.5t-61.5 34t-43 53t-16.5 70.5z" />
    <glyph glyph-name="uni0621" unicode="&#x621;" horiz-adv-x="1112" 
d="M150 0v391q0 311 150.5 463t422.5 152h184v-287h-243q-102 0 -165 -72t-63 -201v-159h561v-287h-847z" />
    <glyph glyph-name="uni0622" unicode="&#x622;" horiz-adv-x="708" 
d="M143 1505v133h559v-133h-559zM274 0v1413h287v-1413h-287z" />
    <glyph glyph-name="uni0623" unicode="&#x623;" horiz-adv-x="731" 
d="M225 1505v94q0 139 68.5 196.5t189.5 57.5h103v-92h-86q-61 0 -86 -26.5t-25 -75.5h262v-154h-426zM297 0v1413h287v-1413h-287z" />
    <glyph glyph-name="uni0624" unicode="&#x624;" horiz-adv-x="1230" 
d="M113 578q0 135 52 241.5t145 180t222.5 113.5t282.5 40h324l-2 -1075q0 -117 -26 -214t-86 -167t-161.5 -109t-253.5 -39q-41 0 -75.5 3.5t-68.5 9.5t-71 14l-84 23l-20 288q84 -27 155.5 -39t143.5 -12q59 0 104 5t77 22.5t51.5 50.5t25.5 86h-33q-147 0 -275 33
t-223.5 102.5t-149.5 179t-54 263.5zM399 578q0 -72 26 -126.5t71 -91t105.5 -55t129.5 -18.5h121v579h-121q-63 0 -123.5 -20.5t-106.5 -58t-74 -90.5t-28 -119zM707 1311v149q0 139 68.5 196.5t189.5 57.5h122v-92h-106q-61 0 -86 -26.5t-25 -75.5v-56h283v-153h-446z" />
    <glyph glyph-name="uni0625" unicode="&#x625;" horiz-adv-x="720" 
d="M225 -100h426v-154h-262q0 -49 24.5 -75.5t86.5 -26.5h86v-93h-103q-121 0 -189.5 57.5t-68.5 196.5v95zM297 0v1661h287v-1661h-287z" />
    <glyph glyph-name="uni0626" unicode="&#x626;" horiz-adv-x="2217" 
d="M84 930v149q0 139 68.5 196.5t189.5 57.5h123v-92h-107q-61 0 -85.5 -26.5t-24.5 -75.5v-56h282v-153h-446zM164 336v448h287v-413q0 -92 19 -156.5t67 -105.5q53 -45 133 -61.5t172 -16.5h299v577q0 147 42 255t134 181q72 55 172 82t219 27h387v-1153h-287v866h-131
q-53 0 -96 -11t-78 -40t-55.5 -82t-20.5 -106v-883h-606q-92 0 -166.5 9t-138 29.5t-116 52.5t-99.5 77q-76 72 -106.5 185.5t-30.5 238.5z" />
    <glyph glyph-name="uni0627" unicode="&#x627;" horiz-adv-x="706" 
d="M266 0v1661h287v-1661h-287z" />
    <glyph glyph-name="uni0628" unicode="&#x628;" horiz-adv-x="1767" 
d="M104 592v387h287v-352q0 -92 19.5 -156.5t66.5 -105.5q53 -45 133 -61.5t172 -16.5h574v866h286v-1153h-880q-92 0 -167 9t-138.5 29.5t-115.5 52.5t-99 77q-76 72 -107 185.5t-31 238.5zM799 -283q0 68 48 110t119.5 42t120 -42t48.5 -110q0 -76 -50.5 -114.5
t-118 -38.5t-117.5 39t-50 114z" />
    <glyph glyph-name="uni0629" unicode="&#x629;" horiz-adv-x="1255" 
d="M113 575q0 125 47 230.5t137 182.5t220 121t296 44h41v102h287v-1255h-328q-154 0 -282 35t-221 106.5t-145 180t-52 253.5zM365 1554q0 66 46 106t113.5 40t113.5 -40t46 -106q0 -72 -47 -109.5t-112.5 -37.5t-112.5 38t-47 109zM399 575q0 -72 28 -125t74 -89.5
t105.5 -55t122.5 -18.5h125v579h-111q-63 0 -124.5 -19.5t-110.5 -56t-79 -91t-30 -124.5zM809 1554q0 66 46 106t114 40q70 0 114.5 -40t44.5 -106q0 -72 -47 -109.5t-112.5 -37.5t-112.5 38t-47 109z" />
    <glyph glyph-name="uni062A" unicode="&#x62a;" horiz-adv-x="1767" 
d="M104 592v387h287v-352q0 -92 19.5 -156.5t66.5 -105.5q53 -45 133 -61.5t172 -16.5h574v866h286v-1153h-880q-92 0 -167 9t-138.5 29.5t-115.5 52.5t-99 77q-76 72 -107 185.5t-31 238.5zM502 1366q0 66 46 105.5t113.5 39.5t113.5 -39.5t46 -105.5q0 -72 -47 -109.5
t-112.5 -37.5t-112.5 37.5t-47 109.5zM946 1366q0 66 46 105.5t114 39.5q70 0 115 -39.5t45 -105.5q0 -72 -47.5 -109.5t-113 -37.5t-112.5 37.5t-47 109.5z" />
    <glyph glyph-name="uni062B" unicode="&#x62b;" horiz-adv-x="1767" 
d="M104 592v387h287v-352q0 -92 19.5 -156.5t66.5 -105.5q53 -45 133 -61.5t172 -16.5h574v866h286v-1153h-880q-92 0 -167 9t-138.5 29.5t-115.5 52.5t-99 77q-76 72 -107 185.5t-31 238.5zM512 1354q0 63 44 102t109.5 39t110.5 -39t45 -102q0 -72 -47 -108t-108.5 -36
t-107.5 36t-46 108zM745 1661q0 55 39 90t98.5 35t98.5 -35t39 -90q0 -61 -41 -93t-96 -32q-53 0 -95.5 31.5t-42.5 93.5zM946 1354q0 63 44 102t110 39q68 0 111.5 -39t43.5 -102q0 -72 -46 -108t-109 -36q-61 0 -107.5 36t-46.5 108z" />
    <glyph glyph-name="uni062C" unicode="&#x62c;" horiz-adv-x="1224" 
d="M51 80q0 115 19 207h757q16 68 25.5 147.5t9.5 145.5q0 63 -23.5 131.5t-76.5 115.5q-88 78 -242 78q-82 0 -149.5 -19.5t-147.5 -70.5l-119 250q100 57 211 92t240 35q127 0 230.5 -41t177.5 -117q82 -82 133 -201.5t51 -275.5q0 -82 -10.5 -162t-24.5 -153.5
t-31.5 -135t-31.5 -106.5h-707v-31q0 -76 22.5 -151.5t73.5 -163.5l-223 -105q-76 109 -120 237t-44 294zM580 -283q0 68 48 110t119.5 42t119.5 -42t48 -110q0 -76 -50 -114.5t-117.5 -38.5t-117.5 39t-50 114z" />
    <glyph glyph-name="uni062D" unicode="&#x62d;" horiz-adv-x="1224" 
d="M51 80q0 115 19 207h757q16 68 25.5 147.5t9.5 145.5q0 63 -23.5 131.5t-76.5 115.5q-88 78 -242 78q-82 0 -149.5 -19.5t-147.5 -70.5l-119 250q100 57 211 92t240 35q127 0 230.5 -41t177.5 -117q82 -82 133 -201.5t51 -275.5q0 -82 -10.5 -162t-24.5 -153.5
t-31.5 -135t-31.5 -106.5h-707v-31q0 -76 22.5 -151.5t73.5 -163.5l-223 -105q-76 109 -120 237t-44 294z" />
    <glyph glyph-name="uni062E" unicode="&#x62e;" horiz-adv-x="1224" 
d="M51 80q0 115 19 207h757q16 68 25.5 147.5t9.5 145.5q0 63 -23.5 131.5t-76.5 115.5q-88 78 -242 78q-82 0 -149.5 -19.5t-147.5 -70.5l-119 250q100 57 211 92t240 35q127 0 230.5 -41t177.5 -117q82 -82 133 -201.5t51 -275.5q0 -82 -10.5 -162t-24.5 -153.5
t-31.5 -135t-31.5 -106.5h-707v-31q0 -76 22.5 -151.5t73.5 -163.5l-223 -105q-76 109 -120 237t-44 294zM334 1505q0 68 48 110t119.5 42t120 -42t48.5 -110q0 -76 -50.5 -114.5t-118 -38.5t-117.5 39t-50 114z" />
    <glyph glyph-name="uni062F" unicode="&#x62f;" horiz-adv-x="1177" 
d="M72 0v287h714v313q0 61 -13 107.5t-42 80.5q-27 35 -73 56.5t-101 21.5h-123v287h94q139 0 244 -36t182 -118q66 -70 92.5 -177t26.5 -234v-588h-1001z" />
    <glyph glyph-name="uni0630" unicode="&#x630;" horiz-adv-x="1177" 
d="M72 0v287h714v313q0 61 -13 107.5t-42 80.5q-27 35 -73 56.5t-101 21.5h-123v287h94q139 0 244 -36t182 -118q66 -70 92.5 -177t26.5 -234v-588h-1001zM418 1458q0 68 48 110t119.5 42t120 -42t48.5 -110q0 -76 -50.5 -114.5t-118 -38.5t-117.5 38.5t-50 114.5z" />
    <glyph glyph-name="uni0631" unicode="&#x631;" horiz-adv-x="759" 
d="M61 -145q41 -10 72 -14.5t64 -4.5q86 0 119.5 47t33.5 154v1116h287v-1075q0 -139 -22.5 -238.5t-71.5 -164t-127 -95.5t-189 -31q-41 0 -79.5 5.5t-65.5 13.5z" />
    <glyph glyph-name="uni0632" unicode="&#x632;" horiz-adv-x="776" 
d="M61 -145q41 -10 72 -14.5t64 -4.5q86 0 119.5 47t33.5 154v1116h287v-1075q0 -139 -22.5 -238.5t-71.5 -164t-127 -95.5t-189 -31q-41 0 -79.5 5.5t-65.5 13.5zM317 1481q0 68 48.5 109.5t120 41.5t119.5 -42t48 -109q0 -76 -50 -115t-117.5 -39t-118 39t-50.5 115z" />
    <glyph glyph-name="uni0633" unicode="&#x633;" horiz-adv-x="2912" 
d="M123 336v670h287v-635q0 -92 19.5 -156.5t66.5 -105.5q53 -45 133 -61.5t172 -16.5h164v1122h286v-866h211q45 0 93.5 11t88 41t64.5 79t25 125v508h286v-508q4 -141 73 -209t185 -68q123 0 184.5 70t61.5 188v772h285v-735q0 -297 -131.5 -439t-399.5 -142
q-59 0 -116.5 9t-110.5 31.5t-99 60.5t-81 95q-78 -82 -184.5 -129t-223.5 -47h-211v-256h-471q-92 0 -166.5 9t-138 29.5t-116 52.5t-99.5 77q-76 72 -106.5 185.5t-30.5 238.5z" />
    <glyph glyph-name="uni0634" unicode="&#x634;" horiz-adv-x="2912" 
d="M123 336v670h287v-635q0 -92 19.5 -156.5t66.5 -105.5q53 -45 133 -61.5t172 -16.5h164v1122h286v-866h211q45 0 93.5 11t88 41t64.5 79t25 125v508h286v-496q0 -147 71 -218t187 -71q123 0 184.5 70t61.5 188v772h285v-735q0 -297 -131.5 -439t-399.5 -142
q-59 0 -116.5 9t-110.5 31.5t-99 60.5t-81 95q-78 -82 -184.5 -129t-223.5 -47h-211v-256h-471q-92 0 -166.5 9t-138 29.5t-116 52.5t-99.5 77q-76 72 -106.5 185.5t-30.5 238.5zM1507 1483q0 63 44 102t109.5 39t111 -39t45.5 -102q0 -72 -47.5 -108t-109 -36t-107.5 36
t-46 108zM1741 1790q0 55 39 90t98 35t98 -35t39 -90q0 -61 -41 -93t-96 -32q-53 0 -95 32t-42 93zM1942 1483q0 63 44 102t109 39q68 0 112 -39t44 -102q0 -72 -46.5 -108t-109.5 -36q-61 0 -107 36t-46 108z" />
    <glyph glyph-name="uni0635" unicode="&#x635;" horiz-adv-x="2535" 
d="M125 336v670h287v-635q0 -92 19.5 -156.5t66.5 -105.5q53 -45 133 -61.5t172 -16.5h164v1161h286v-141h633q139 0 243.5 -36t182.5 -118q66 -70 92.5 -177.5t26.5 -234.5v-485h-1178v-256h-471q-92 0 -166.5 9t-138 29.5t-116 52.5t-99.5 77q-76 72 -106.5 185.5
t-30.5 238.5zM1253 287h891v211q0 61 -13 107t-42 81q-27 35 -73 57.5t-101 22.5h-662v-479z" />
    <glyph glyph-name="uni0636" unicode="&#x636;" horiz-adv-x="2535" 
d="M125 336v670h287v-635q0 -92 19.5 -156.5t66.5 -105.5q53 -45 133 -61.5t172 -16.5h164v1161h286v-141h633q139 0 243.5 -36t182.5 -118q66 -70 92.5 -177.5t26.5 -234.5v-485h-1178v-256h-471q-92 0 -166.5 9t-138 29.5t-116 52.5t-99.5 77q-76 72 -106.5 185.5
t-30.5 238.5zM1253 287h891v211q0 61 -13 107t-42 81q-27 35 -73 57.5t-101 22.5h-662v-479zM1516 1389q0 68 48 109.5t119.5 41.5t119.5 -42t48 -109q0 -76 -50 -115t-117.5 -39t-117.5 39t-50 115z" />
    <glyph glyph-name="uni0637" unicode="&#x637;" horiz-adv-x="1800" 
d="M37 0v287h201v1374h286v-610h625q139 0 243.5 -36t182.5 -118q66 -70 92.5 -177.5t26.5 -234.5v-485h-1657zM524 287h883v211q0 61 -13.5 107t-41.5 81q-27 35 -73 57.5t-101 22.5h-654v-479z" />
    <glyph glyph-name="uni0638" unicode="&#x638;" horiz-adv-x="1800" 
d="M37 0v287h201v1374h286v-610h625q139 0 243.5 -36t182.5 -118q66 -70 92.5 -177.5t26.5 -234.5v-485h-1657zM524 287h883v211q0 61 -13.5 107t-41.5 81q-27 35 -73 57.5t-101 22.5h-654v-479zM799 1389q0 68 48 109.5t119.5 41.5t120 -42t48.5 -109q0 -76 -50.5 -115
t-118 -39t-117.5 39t-50 115z" />
    <glyph glyph-name="uni0639" unicode="&#x639;" horiz-adv-x="1249" 
d="M63 80q0 115 19 207h154q-35 72 -60.5 157.5t-25.5 184.5q0 147 57 257.5t147 184.5q72 59 167 90t206 31q115 0 218.5 -29.5t207.5 -83.5l-96 -260q-66 37 -144.5 62.5t-150.5 25.5q-141 0 -223 -69q-55 -47 -78 -105.5t-23 -126.5q0 -98 29 -177t80 -142h649v-287h-842
v-31q0 -76 22.5 -151.5t74.5 -163.5l-224 -105q-76 109 -120 237t-44 294z" />
    <glyph glyph-name="uni063A" unicode="&#x63a;" horiz-adv-x="1249" 
d="M63 80q0 115 19 207h154q-35 72 -60.5 157.5t-25.5 184.5q0 147 57 257.5t147 184.5q72 59 167 90t206 31q115 0 218.5 -29.5t207.5 -83.5l-96 -260q-66 37 -144.5 62.5t-150.5 25.5q-141 0 -223 -69q-55 -47 -78 -105.5t-23 -126.5q0 -98 29 -177t80 -142h649v-287h-842
v-31q0 -76 22.5 -151.5t74.5 -163.5l-224 -105q-76 109 -120 237t-44 294zM532 1518q0 68 48.5 109.5t120 41.5t119.5 -42t48 -109q0 -76 -50 -115t-117.5 -39t-118 39t-50.5 115z" />
    <glyph glyph-name="uni0641" unicode="&#x641;" horiz-adv-x="2166" 
d="M104 592v387h287v-352q0 -92 19.5 -156.5t66.5 -105.5q53 -45 133 -61.5t172 -16.5h334q-45 59 -71.5 130.5t-26.5 160.5q0 135 50 241.5t140 181t217 113.5t281 39h338v-1153h-1282q-92 0 -167 9t-138.5 29.5t-115.5 52.5t-99 77q-76 72 -107 185.5t-31 238.5zM1305 578
q0 -94 42 -168t113 -123h297v579h-121q-61 0 -121.5 -18.5t-106.5 -55t-74.5 -90.5t-28.5 -124zM1481 1481q0 68 48 109.5t119.5 41.5t120 -42t48.5 -109q0 -76 -50.5 -115t-118 -39t-117.5 39t-50 115z" />
    <glyph glyph-name="uni0642" unicode="&#x642;" horiz-adv-x="1796" 
d="M106 141v449h287v-414q0 -92 19.5 -156.5t66.5 -105.5q53 -45 133 -61.5t172 -16.5h596v164h-37q-147 0 -275 33t-223 102.5t-149.5 179t-54.5 263.5q0 135 52 241.5t145.5 180t222.5 113.5t282 40h324v-1604h-903q-92 0 -167 9.5t-138.5 30t-115.5 52t-99 76.5
q-76 72 -107 185.5t-31 238.5zM889 1475q0 66 46 105.5t113.5 39.5t113.5 -40t46 -105q0 -72 -47 -110t-112.5 -38t-112.5 38t-47 110zM928 578q0 -72 25.5 -126.5t70.5 -91t105.5 -55t130.5 -18.5h120v579h-120q-63 0 -124 -20.5t-107 -58t-73.5 -90.5t-27.5 -119z
M1333 1475q0 66 46 105.5t114 39.5q70 0 115 -40t45 -105q0 -72 -47 -110t-113 -38t-113 38t-47 110z" />
    <glyph glyph-name="uni0643" unicode="&#x643;" horiz-adv-x="1921" 
d="M182 592v387h287v-352q0 -92 19.5 -156.5t66.5 -105.5q53 -45 133 -61.5t172 -16.5h574v1374h286v-1661h-880q-92 0 -167 9t-138.5 29.5t-115.5 52.5t-100 77q-76 72 -106.5 185.5t-30.5 238.5zM745 715v149q0 139 69 196.5t190 57.5h122v-92h-106q-61 0 -86 -26.5
t-25 -75.5v-56h283v-153h-447z" />
    <glyph glyph-name="uni0644" unicode="&#x644;" horiz-adv-x="1458" 
d="M113 336v670h286v-635q0 -92 19.5 -156.5t66.5 -105.5q53 -45 133 -61.5t173 -16.5h163v1630h422v-287h-135v-1630h-471q-92 0 -167 9t-138.5 29.5t-115.5 52.5t-99 77q-76 72 -106.5 185.5t-30.5 238.5z" />
    <glyph glyph-name="uni0645" unicode="&#x645;" horiz-adv-x="1871" 
d="M72 -139q0 160 36.5 276.5t114.5 202.5q33 37 75 64.5t88 47t93 30t88 10.5q18 111 71.5 207t134.5 165.5t182.5 109.5t215.5 40q129 0 243 -48t199 -132t133 -199t48 -248q0 -131 -50 -242.5t-136 -193.5t-199 -129t-238 -47q-102 0 -195 32.5t-170 90t-133.5 136.5
t-84.5 171q-115 -8 -168 -82q-35 -47 -48.5 -116.5t-13.5 -149.5v-308h-286v312zM846 391.5q0 -69.5 24.5 -130t68.5 -104.5t103.5 -70t129 -26t131 25t107.5 69t71.5 104t25.5 132t-24.5 133.5t-69.5 106.5t-106.5 70.5t-135.5 25.5q-72 0 -131 -26.5t-102 -71.5
t-67.5 -106.5t-24.5 -131z" />
    <glyph glyph-name="uni0646" unicode="&#x646;" horiz-adv-x="1366" 
d="M113 336v670h286v-635q0 -92 19.5 -156.5t66.5 -105.5q53 -45 133 -61.5t173 -16.5h163v975h287v-1262h-471q-92 0 -167 9t-138.5 29.5t-115.5 52.5t-99 77q-76 72 -106.5 185.5t-30.5 238.5zM518 1341q0 68 48 110t120 42t120 -42t48 -110q0 -76 -50 -114.5t-118 -38.5
t-118 39t-50 114z" />
    <glyph glyph-name="uni0647" unicode="&#x647;" horiz-adv-x="1742" 
d="M174 0v287h234q-6 29 -12.5 68.5t-6.5 78.5q0 229 112.5 351t311.5 122q92 0 171 -33.5t136.5 -95t89 -148.5t31.5 -194q0 -39 -5 -80t-11 -69h186q8 53 12 102t4 92q0 123 -25.5 217.5t-80.5 180.5q-70 104 -183.5 157.5t-287.5 53.5q-129 0 -240.5 -43t-193.5 -89
l-97 261q139 70 295 114.5t310 44.5q113 0 207 -24.5t170.5 -67.5t137 -102.5t107.5 -126.5q86 -125 127 -282t41 -343q0 -51 -7 -108.5t-17.5 -114.5t-23.5 -111.5t-28 -97.5h-1464zM645 440q0 -45 5 -85t9 -68h312q4 29 9 68.5t5 84.5q0 98 -45 154.5t-127 56.5
q-86 0 -127 -56.5t-41 -154.5z" />
    <glyph glyph-name="uni0648" unicode="&#x648;" horiz-adv-x="1261" 
d="M113 578q0 135 52 241.5t145 180t222.5 113.5t282.5 40h324l-2 -1075q0 -117 -26 -214t-86 -167t-161.5 -109t-253.5 -39q-41 0 -75.5 3.5t-68.5 9.5t-71 14l-84 23l-20 288q84 -27 155.5 -39t143.5 -12q59 0 104 5t77 22.5t51.5 50.5t25.5 86h-33q-147 0 -275 33
t-223.5 102.5t-149.5 179t-54 263.5zM399 578q0 -72 26 -126.5t71 -91t105.5 -55t129.5 -18.5h121v579h-121q-63 0 -123.5 -20.5t-106.5 -58t-74 -90.5t-28 -119z" />
    <glyph glyph-name="uni0649" unicode="&#x649;" horiz-adv-x="2156" 
d="M102 336v448h287v-413q0 -92 19.5 -156.5t66.5 -105.5q53 -45 133 -61.5t172 -16.5h299v577q0 147 42 255t134 181q72 55 172.5 82t219.5 27h387v-1153h-287v866h-131q-53 0 -96 -11t-78 -40t-55.5 -82t-20.5 -106v-883h-606q-92 0 -167 9t-138.5 29.5t-115.5 52.5
t-99 77q-76 72 -107 185.5t-31 238.5z" />
    <glyph glyph-name="uni064A" unicode="&#x64a;" horiz-adv-x="2015" 
d="M45 -119l115 252q100 -57 189 -79.5t190 -22.5h399v577q0 147 42 255t134 181q72 55 172 82t219 27h387v-1153h-286v866h-131q-53 0 -96.5 -11t-78 -40t-55 -82t-20.5 -106v-883h-594q-106 0 -185 7t-146 22.5t-126 42t-129 65.5zM420 344q0 68 48 110t119.5 42t120 -42
t48.5 -110q0 -76 -50.5 -115t-118 -39t-117.5 39t-50 115zM420 778q0 68 48 110t119.5 42t120 -42t48.5 -110q0 -76 -50.5 -114.5t-118 -38.5t-117.5 38.5t-50 114.5z" />
    <glyph glyph-name="uni064B" unicode="&#x64b;" 
d="M-229 168v96l458 66v-97zM-227 0v96l458 66v-96z" />
    <glyph glyph-name="uni064C" unicode="&#x64c;" 
d="M-276 217l96 39l51 -143l96 14q-12 31 -12 63q0 68 40 122.5t130 54.5q68 0 109.5 -46.5t41.5 -119.5q0 -27 -2 -57.5t-10 -71.5l-457 -72zM45 197q0 -31 8 -56l123 21q2 8 2 33q0 29 -16.5 50t-50.5 21q-27 0 -46.5 -18t-19.5 -51z" />
    <glyph glyph-name="uni064D" unicode="&#x64d;" 
d="M-229 -66l458 66v-96l-458 -66v96zM-227 -233l458 65v-96l-458 -66v97z" />
    <glyph glyph-name="uni064E" unicode="&#x64e;" 
d="M-229 0v102l458 66v-102z" />
    <glyph glyph-name="uni064F" unicode="&#x64f;" 
d="M-236 100l162 27q-12 31 -12 63q0 68 39 122.5t129 54.5q70 0 112 -46.5t42 -119.5q0 -27 -2.5 -57.5t-10.5 -71.5l-448 -68zM2 196.5q0 -32.5 8 -55.5l123 21q4 16 4 33q0 29 -16.5 50t-50.5 21q-29 0 -48.5 -18.5t-19.5 -51z" />
    <glyph glyph-name="uni0650" unicode="&#x650;" 
d="M-229 -66l458 66v-102l-458 -66v102z" />
    <glyph glyph-name="uni0651" unicode="&#x651;" 
d="M-276 246l100 20l20 -110q8 -35 23.5 -46.5t34.5 -11.5q29 0 45 21.5t16 62.5q0 20 -4 48t-10 59l102 14l21 -110q10 -51 55 -52q57 0 57 60q0 27 -6 61.5t-22 73.5l102 22q6 -33 12 -59l9 -47q4 -25 4 -41q0 -82 -43 -124t-121 -42q-29 0 -52.5 15.5t-35.5 33.5
q-16 -37 -50 -65.5t-87 -28.5q-51 0 -92.5 29.5t-55.5 101.5z" />
    <glyph glyph-name="uni0652" unicode="&#x652;" 
d="M-172 182q0 88 49 137.5t127 49.5q80 0 124 -50.5t44 -136.5t-51 -134t-129 -48q-76 0 -120 43t-44 139zM-74 184q0 -55 21.5 -71.5t50.5 -16.5t52.5 16.5t23.5 67.5q0 47 -22.5 68.5t-53.5 21.5q-23 0 -47.5 -18.5t-24.5 -67.5z" />
    <glyph glyph-name="uni0653" unicode="&#x653;" horiz-adv-x="686" 
d="M63 1485v133h560v-133h-560z" />
    <glyph glyph-name="uni0654" unicode="&#x654;" horiz-adv-x="686" 
d="M135 1485v94q0 139 68.5 196.5t189.5 57.5h103v-92h-86q-61 0 -86 -26.5t-25 -76.5h262v-153h-426z" />
    <glyph glyph-name="uni0655" unicode="&#x655;" horiz-adv-x="686" 
d="M135 -76h426v-153h-262q0 -49 24.5 -76t86.5 -27h86v-92h-103q-121 0 -189.5 57.5t-68.5 196.5v94z" />
    <glyph glyph-name="uni0656" unicode="&#x656;" 
d="M-57 0h114v-381l-114 -16v397z" />
    <glyph glyph-name="uni0658" unicode="&#x658;" 
d="M-248 254v166h123v-162q0 -70 34 -102.5t107 -32.5h109v297h123v-420h-234q-150 0 -206 59.5t-56 194.5zM-47 623h115l-21 -353l-74 -10z" />
    <glyph glyph-name="uni0660" unicode="&#x660;" horiz-adv-x="1011" 
d="M274 653l232 232l231 -232l-231 -231z" />
    <glyph glyph-name="uni0661" unicode="&#x661;" horiz-adv-x="899" 
d="M305 0v1380h287v-1380h-287z" />
    <glyph glyph-name="uni0662" unicode="&#x662;" horiz-adv-x="1462" 
d="M281 0v1380h286v-567q43 -16 95.5 -25.5t99.5 -9.5q123 0 177 62.5t54 185.5v354h287v-401q0 -487 -487 -487q-51 0 -114 10t-112 26v-528h-286z" />
    <glyph glyph-name="uni0663" unicode="&#x663;" horiz-adv-x="1660" 
d="M305 0v1380h287v-589q39 -12 76 -13q41 0 67.5 10.5t42 34t21.5 63.5t6 99v395h246v-405q0 -47 -2 -85t-7 -73q39 -8 82 -8q55 0 83 43t28 158v370h287v-440q0 -213 -104.5 -315.5t-291.5 -102.5q-43 0 -96 12.5t-100 32.5q-53 -43 -119 -59t-115 -16q-53 0 -104 12v-504
h-287z" />
    <glyph glyph-name="uni0664" unicode="&#x664;" horiz-adv-x="1386" 
d="M244 354q0 92 40 167t107 134q-43 78 -66.5 158t-23.5 170q0 98 32 181t94 144.5t153.5 96.5t210.5 35q111 0 214 -30t207 -69l-92 -254l-92 31q-37 14 -70.5 21.5t-68.5 10.5t-78 3q-45 0 -85 -12.5t-70.5 -37t-49 -60t-18.5 -80.5q0 -53 8 -94.5t27 -82.5q76 27 159 50
l240 57l49 -242l-323 -78q-92 -23 -152.5 -59.5t-60.5 -103.5q0 -41 25.5 -66t64.5 -37t81 -16t76 -4h422v-287h-481q-221 0 -350 86t-129 268z" />
    <glyph glyph-name="uni0665" unicode="&#x665;" horiz-adv-x="1447" 
d="M184 500q0 184 44 348t118 289t171 197.5t206 72.5q96 0 192.5 -64.5t174 -182.5t126 -285.5t48.5 -374.5q0 -145 -41 -244.5t-114 -161t-174 -88t-222 -26.5q-115 0 -212.5 29.5t-168 93t-109.5 161.5t-39 236zM471 553q0 -154 59.5 -220.5t186.5 -66.5
q135 0 197.5 66.5t62.5 220.5q0 106 -17.5 208.5t-50 182.5t-81 128t-111.5 48q-57 0 -102.5 -48t-77 -128t-49 -182.5t-17.5 -208.5z" />
    <glyph glyph-name="uni0666" unicode="&#x666;" horiz-adv-x="1302" 
d="M158 1094v286h864v-1380h-287v1094h-577z" />
    <glyph glyph-name="uni0667" unicode="&#x667;" horiz-adv-x="1540" 
d="M133 1380h301l326 -1091h8l340 1091h301l-434 -1380h-426z" />
    <glyph glyph-name="uni0668" unicode="&#x668;" horiz-adv-x="1540" 
d="M133 0l416 1380h426l434 -1380h-301l-340 1092h-8l-326 -1092h-301z" />
    <glyph glyph-name="uni0669" unicode="&#x669;" horiz-adv-x="1492" 
d="M195 850q0 137 51 236.5t143 165t220 97t282 31.5h321v-1380h-286v354q-35 -4 -70 -7t-63 -3q-127 0 -237 29.5t-189.5 91t-125.5 157t-46 228.5zM481 850q0 -119 81 -169t212 -50q78 0 152 6v457h-109q-158 0 -247 -57.5t-89 -186.5z" />
    <glyph glyph-name="uni066A" unicode="&#x66a;" horiz-adv-x="1335" 
d="M154 -256l755 2068h273l-750 -2068h-278zM190 1319q0 39 16.5 69.5t42 52t59.5 34t71 12.5t70.5 -12.5t59.5 -34t42 -52t16 -69.5q0 -37 -16 -67.5t-42 -51t-59.5 -32t-70.5 -11.5t-71 11.5t-59.5 32t-42 51t-16.5 67.5zM795 283q0 39 16 69.5t42 52t59.5 34t70.5 12.5
t70.5 -12.5t59.5 -34t42 -52t16 -69.5q0 -37 -16 -68t-42 -51.5t-59.5 -31.5t-70.5 -11t-70.5 11t-59.5 31.5t-42 51.5t-16 68z" />
    <glyph glyph-name="uni066B" unicode="&#x66b;" horiz-adv-x="804" 
d="M205 -74l266 621h231l-194 -621h-303z" />
    <glyph glyph-name="uni066C" unicode="&#x66c;" horiz-adv-x="804" 
d="M205 930l266 620h231l-194 -620h-303z" />
    <glyph glyph-name="uni066D" unicode="&#x66d;" horiz-adv-x="1198" 
d="M43 819l408 19l143 383l141 -383l410 -19l-320 -254l109 -393l-340 225l-340 -225l108 393z" />
    <glyph glyph-name="uni066E" unicode="&#x66e;" horiz-adv-x="1767" 
d="M104 592v387h287v-352q0 -92 19.5 -156.5t66.5 -105.5q53 -45 133 -61.5t172 -16.5h574v866h286v-1153h-880q-92 0 -167 9t-138.5 29.5t-115.5 52.5t-99 77q-76 72 -107 185.5t-31 238.5z" />
    <glyph glyph-name="uni066F" unicode="&#x66f;" horiz-adv-x="1792" 
d="M106 141v449h287v-414q0 -92 19.5 -156.5t66.5 -105.5q53 -45 133 -61.5t172 -16.5h596v164h-37q-147 0 -275 33t-223 102.5t-149.5 179t-54.5 263.5q0 135 52 241.5t145.5 180t222.5 113.5t282 40h324v-1604h-903q-92 0 -167 9.5t-138.5 30t-115.5 52t-99 76.5
q-76 72 -107 185.5t-31 238.5zM928 578q0 -72 25.5 -126.5t70.5 -91t105.5 -55t130.5 -18.5h120v579h-120q-63 0 -124 -20.5t-107 -58t-73.5 -90.5t-27.5 -119z" />
    <glyph glyph-name="uni0670" unicode="&#x670;" 
d="M-57 0v397h114v-381z" />
    <glyph glyph-name="uni0671" unicode="&#x671;" horiz-adv-x="702" 
d="M143 1505v113h142q0 37 12 70.5t36.5 59.5t59.5 42t78 16q104 0 167.5 -55t63.5 -166v-80h-559zM274 0v1413h287v-1413h-287zM377 1618h182q0 37 -22.5 66.5t-69.5 29.5t-68.5 -28.5t-21.5 -67.5z" />
    <glyph glyph-name="uni0679" unicode="&#x679;" horiz-adv-x="1632" 
d="M104 592v387h287v-352q0 -92 19.5 -156.5t66.5 -105.5q53 -45 133 -61.5t172 -16.5h574v866h286v-1153h-880q-92 0 -167 9t-138.5 29.5t-115.5 52.5t-99 77q-76 72 -107 185.5t-31 238.5zM526 1114v113h103v303h121v-115h104q104 0 167.5 -55t63.5 -166v-80h-559z
M750 1227h192q0 37 -22.5 66.5t-63.5 29.5h-106v-96z" />
    <glyph glyph-name="uni067E" unicode="&#x67e;" horiz-adv-x="1767" 
d="M104 592v387h287v-352q0 -92 19.5 -156.5t66.5 -105.5q53 -45 133 -61.5t172 -16.5h574v866h286v-1153h-880q-92 0 -167 9t-138.5 29.5t-115.5 52.5t-99 77q-76 72 -107 185.5t-31 238.5zM629 -279q0 61 44 100.5t109.5 39.5t110.5 -39t45 -101q0 -72 -47 -107.5
t-108.5 -35.5t-107.5 36t-46 107zM862 -573q0 55 39 89.5t98.5 34.5t98.5 -34.5t39 -89.5q0 -61 -41.5 -93t-96.5 -32q-53 0 -95 31.5t-42 93.5zM1063 -279q0 61 44 100.5t110 39.5q68 0 111.5 -39t43.5 -101q0 -72 -46 -107.5t-109 -35.5q-61 0 -107.5 36t-46.5 107z" />
    <glyph glyph-name="uni0686" unicode="&#x686;" horiz-adv-x="1132" 
d="M51 117q0 29 1 50t3 39.5t6.5 38t8.5 42.5h757q16 68 25.5 147.5t9.5 145.5q0 63 -23.5 131.5t-76.5 115.5q-88 78 -242 78q-82 0 -149.5 -19.5t-147.5 -70.5l-119 250q100 57 211 92t240 35q127 0 230.5 -41t177.5 -117q82 -82 133 -201.5t51 -275.5q0 -82 -10.5 -162
t-24.5 -153.5t-31.5 -135t-31.5 -106.5h-979q-6 16 -11 37q-4 16 -6 36.5t-2 43.5zM201 -190q0 61 44 100t109.5 39t110.5 -39t45 -100q0 -72 -47 -108t-108.5 -36t-107.5 36t-46 108zM434 -485q0 55 39 90t98.5 35t98.5 -35t39 -90q0 -61 -41.5 -93t-96.5 -32
q-53 0 -95 31.5t-42 93.5zM635 -190q0 61 44 100t109 39q68 0 112 -39t44 -100q0 -72 -46.5 -108t-109.5 -36q-61 0 -107 36t-46 108z" />
    <glyph glyph-name="uni0688" unicode="&#x688;" horiz-adv-x="1091" 
d="M72 0v287h714v313q0 61 -13 107.5t-42 80.5q-27 35 -73 56.5t-101 21.5h-123v287h94q139 0 244 -36t182 -118q66 -70 92.5 -177t26.5 -234v-588h-1001zM266 1321v113h103v303h120v-115h105q104 0 167.5 -55.5t63.5 -165.5v-80h-559zM489 1434h193q0 37 -22.5 66.5
t-63.5 29.5h-107v-96z" />
    <glyph glyph-name="uni0691" unicode="&#x691;" horiz-adv-x="755" 
d="M61 -145q41 -10 72 -14.5t64 -4.5q86 0 119.5 47t33.5 154v1116h287v-1075q0 -139 -22.5 -238.5t-71.5 -164t-127 -95.5t-189 -31q-41 0 -79.5 5.5t-65.5 13.5zM217 1321v113h102v303h121v-115h105q104 0 167.5 -55.5t63.5 -165.5v-80h-559zM440 1434h193
q0 37 -22.5 66.5t-63.5 29.5h-107v-96z" />
    <glyph glyph-name="uni0698" unicode="&#x698;" horiz-adv-x="774" 
d="M63 -145q41 -10 72 -14.5t64 -4.5q86 0 119.5 47t33.5 154v1116h287v-1075q0 -139 -22.5 -238.5t-71.5 -164t-127 -95.5t-189 -31q-41 0 -79.5 5.5t-65.5 13.5zM127 1483q0 63 44 102t109.5 39t110.5 -39t45 -102q0 -72 -47 -108t-108.5 -36t-107.5 36t-46 108zM360 1790
q0 55 39 90t98.5 35t98.5 -35t39 -90q0 -61 -41 -93t-96 -32q-53 0 -95.5 32t-42.5 93zM561 1483q0 63 44 102t110 39q68 0 111.5 -39t43.5 -102q0 -72 -46 -108t-109 -36q-61 0 -107.5 36t-46.5 108z" />
    <glyph glyph-name="uni06A1" unicode="&#x6a1;" horiz-adv-x="2320" 
d="M180 592v387h287v-352q0 -92 19.5 -156.5t66.5 -105.5q53 -45 133 -61.5t172 -16.5h334q-45 59 -71.5 130.5t-26.5 160.5q0 135 50 241.5t140 181t217 113.5t281 39h338v-1153h-1282q-92 0 -167 9t-138.5 29.5t-115.5 52.5t-100 77q-76 72 -106.5 185.5t-30.5 238.5z
M1380 578q0 -94 42 -168t114 -123h297v579h-121q-61 0 -121.5 -18.5t-106.5 -55t-75 -90.5t-29 -124z" />
    <glyph glyph-name="uni06A4" unicode="&#x6a4;" horiz-adv-x="2166" 
d="M104 592v387h287v-352q0 -92 19.5 -156.5t66.5 -105.5q53 -45 133 -61.5t172 -16.5h334q-45 59 -71.5 130.5t-26.5 160.5q0 135 50 241.5t140 181t217 113.5t281 39h338v-1153h-1282q-92 0 -167 9t-138.5 29.5t-115.5 52.5t-99 77q-76 72 -107 185.5t-31 238.5z
M1280 1483q0 63 44 102t109.5 39t110.5 -39t45 -102q0 -72 -47 -108t-108.5 -36t-107.5 36t-46 108zM1305 578q0 -94 42 -168t113 -123h297v579h-121q-61 0 -121.5 -18.5t-106.5 -55t-74.5 -90.5t-28.5 -124zM1513 1790q0 55 39 90t98.5 35t98.5 -35t39 -90q0 -61 -41 -93
t-96 -32q-53 0 -95.5 32t-42.5 93zM1714 1483q0 63 44 102t110 39q68 0 111.5 -39t43.5 -102q0 -72 -46 -108t-109 -36q-61 0 -107.5 36t-46.5 108z" />
    <glyph glyph-name="uni06A9" unicode="&#x6a9;" horiz-adv-x="2119" 
d="M104 596v385h287v-350q0 -178 96 -256q53 -45 130 -66.5t167 -21.5h940v237q0 53 -10 95.5t-38.5 77t-75 56t-97.5 21.5h-631q-41 53 -68.5 123t-31.5 164l313 600h345l-334 -600h366q131 0 228.5 -35t171.5 -106q150 -143 149 -428v-492h-1249q-182 0 -302 44t-208 130
q-76 74 -112 184.5t-36 237.5z" />
    <glyph glyph-name="uni06AF" unicode="&#x6af;" horiz-adv-x="1976" 
d="M104 596q0 -127 36 -237.5t112 -184.5q88 -86 208 -130t302 -44h1249v492q0 285 -149 428q-74 72 -171.5 106.5t-228.5 34.5h-366l334 600h-345l-313 -600q4 -94 31.5 -164t68.5 -123h631q51 0 97.5 -21.5t75 -56t38.5 -76.5t10 -96v-237h-940q-90 0 -166.5 21.5
t-130.5 66.5q-96 78 -96 256v350h-287v-385zM487 1061l299 602h175l-299 -602h-175z" />
    <glyph glyph-name="uni06BA" unicode="&#x6ba;" horiz-adv-x="1366" 
d="M113 336v670h286v-635q0 -92 19.5 -156.5t66.5 -105.5q53 -45 133 -61.5t173 -16.5h163v975h287v-1262h-471q-92 0 -167 9t-138.5 29.5t-115.5 52.5t-99 77q-76 72 -106.5 185.5t-30.5 238.5z" />
    <glyph glyph-name="uni06BE" unicode="&#x6be;" horiz-adv-x="1742" 
d="M174 0v287h234q-6 29 -12.5 68.5t-6.5 78.5q0 229 112.5 351t311.5 122q92 0 171 -33.5t136.5 -95t89 -148.5t31.5 -194q0 -39 -5 -80t-11 -69h186q8 53 12 102t4 92q0 123 -25.5 217.5t-80.5 180.5q-70 104 -183.5 157.5t-287.5 53.5q-129 0 -240.5 -43t-193.5 -89
l-97 261q139 70 295 114.5t310 44.5q113 0 207 -24.5t170.5 -67.5t137 -102.5t107.5 -126.5q86 -125 127 -282t41 -343q0 -51 -7 -108.5t-17.5 -114.5t-23.5 -111.5t-28 -97.5h-1464zM645 440q0 -45 5 -85t9 -68h312q4 29 9 68.5t5 84.5q0 98 -45 154.5t-127 56.5
q-86 0 -127 -56.5t-41 -154.5z" />
    <glyph glyph-name="uni06C0" unicode="&#x6c0;" horiz-adv-x="1171" 
d="M113 575q0 125 47 230.5t137 182.5t220 121t296 44h41v102h287v-1255h-328q-154 0 -282 35t-221 106.5t-145 180t-52 253.5zM399 575q0 -72 28 -125t74 -89.5t105.5 -55t122.5 -18.5h125v579h-111q-63 0 -124.5 -19.5t-110.5 -56t-79 -91t-30 -124.5zM692 1321v149
q0 139 68.5 196.5t189.5 57.5h123v-92h-106q-61 0 -86 -26.5t-25 -75.5v-55h283v-154h-447z" />
    <glyph glyph-name="uni06C1" unicode="&#x6c1;" horiz-adv-x="1171" 
d="M113 575q0 125 47 230.5t137 182.5t220 121t296 44h41v102h287v-1255h-328q-154 0 -282 35t-221 106.5t-145 180t-52 253.5zM399 575q0 -72 28 -125t74 -89.5t105.5 -55t122.5 -18.5h125v579h-111q-63 0 -124.5 -19.5t-110.5 -56t-79 -91t-30 -124.5z" />
    <glyph glyph-name="uni06C2" unicode="&#x6c2;" horiz-adv-x="1171" 
d="M113 575q0 125 47 230.5t137 182.5t220 121t296 44h41v102h287v-1255h-328q-154 0 -282 35t-221 106.5t-145 180t-52 253.5zM399 575q0 -72 28 -125t74 -89.5t105.5 -55t122.5 -18.5h125v579h-111q-63 0 -124.5 -19.5t-110.5 -56t-79 -91t-30 -124.5zM696 1321v149
q0 139 69 196.5t189 57.5h123v-92h-106q-61 0 -86 -26.5t-25 -75.5v-55h283v-154h-447z" />
    <glyph glyph-name="uni06C3" unicode="&#x6c3;" horiz-adv-x="1171" 
d="M113 575q0 125 47 230.5t137 182.5t220 121t296 44h41v102h287v-1255h-328q-154 0 -282 35t-221 106.5t-145 180t-52 253.5zM369 1554q0 66 46 106t113.5 40t113.5 -40t46 -106q0 -72 -47 -109.5t-112.5 -37.5t-112.5 38t-47 109zM399 575q0 -72 28 -125t74 -89.5
t105.5 -55t122.5 -18.5h125v579h-111q-63 0 -124.5 -19.5t-110.5 -56t-79 -91t-30 -124.5zM813 1554q0 66 46 106t114 40q70 0 115 -40t45 -106q0 -72 -47.5 -109.5t-113 -37.5t-112.5 38t-47 109z" />
    <glyph glyph-name="uni06CC" unicode="&#x6cc;" horiz-adv-x="2138" 
d="M219 336v448h287v-413q0 -92 19.5 -156.5t66.5 -105.5q53 -45 133 -61.5t172 -16.5h299v577q0 147 42 255t134 181q72 55 172.5 82t218.5 27h387v-1153h-286v866h-131q-53 0 -96.5 -11t-78 -40t-55 -82t-20.5 -106v-883h-606q-92 0 -167 9t-138.5 29.5t-116 52.5
t-99.5 77q-76 72 -106.5 185.5t-30.5 238.5z" />
    <glyph glyph-name="uni06D2" unicode="&#x6d2;" horiz-adv-x="2019" 
d="M82 0v406q0 260 127 403q76 84 178 124t244 40h88q53 0 84 26.5t31 81.5v86h286v-100q0 -106 -26.5 -179t-76.5 -118t-122 -64.5t-162 -19.5h-135q-55 0 -102 -19.5t-76 -56.5q-29 -35 -40 -82t-11 -106v-135h1421v-287h-1708z" />
    <glyph glyph-name="uni06D3" unicode="&#x6d3;" horiz-adv-x="1861" 
d="M82 0v406q0 260 127 403q76 84 178 124t244 40h88q53 0 84 26.5t31 81.5v86h286v-100q0 -106 -26.5 -179t-76.5 -118t-122 -64.5t-162 -19.5h-135q-55 0 -102 -19.5t-76 -56.5q-29 -35 -40 -82t-11 -106v-135h1421v-287h-1708zM293 1229v149q0 139 68.5 196.5t189.5 57.5
h123v-92h-107q-61 0 -85.5 -26.5t-24.5 -75.5v-56h282v-153h-446z" />
    <glyph glyph-name="uni06D5" unicode="&#x6d5;" horiz-adv-x="1171" 
d="M113 575q0 125 47 230.5t137 182.5t220 121t296 44h41v102h287v-1255h-328q-154 0 -282 35t-221 106.5t-145 180t-52 253.5zM399 575q0 -72 28 -125t74 -89.5t105.5 -55t122.5 -18.5h125v579h-111q-63 0 -124.5 -19.5t-110.5 -56t-79 -91t-30 -124.5z" />
    <glyph glyph-name="uni06F0" unicode="&#x6f0;" horiz-adv-x="958" 
d="M250 653l231 232l232 -232l-232 -231z" />
    <glyph glyph-name="uni06F1" unicode="&#x6f1;" horiz-adv-x="829" 
d="M272 0v1380h287v-1380h-287z" />
    <glyph glyph-name="uni06F2" unicode="&#x6f2;" horiz-adv-x="1280" 
d="M248 0v1380h287v-567q43 -16 95 -25.5t99 -9.5q123 0 177.5 62.5t54.5 185.5v354h286v-401q0 -487 -487 -487q-51 0 -113.5 10t-111.5 26v-528h-287z" />
    <glyph glyph-name="uni06F3" unicode="&#x6f3;" horiz-adv-x="1464" 
d="M305 0v1380h287v-589q39 -12 76 -13q41 0 67.5 10.5t42 34t21.5 63.5t6 99v395h246v-405q0 -47 -2 -85t-7 -73q39 -8 82 -8q55 0 83 43t28 158v370h287v-440q0 -213 -104.5 -315.5t-291.5 -102.5q-43 0 -96 12.5t-100 32.5q-53 -43 -119 -59t-115 -16q-53 0 -104 12v-504
h-287z" />
    <glyph glyph-name="uni06F4" unicode="&#x6f4;" horiz-adv-x="1648" 
d="M281 0v1380h286v-540q35 -10 92.5 -20.5t128.5 -18.5q-25 66 -39 131t-14 119q0 80 24.5 150.5t72 123.5t119 84t167.5 31q33 0 62.5 -3t59.5 -10.5t63.5 -18.5t74.5 -28l-75 -221q-49 20 -80 27.5t-74 7.5q-31 0 -60.5 -12.5t-53 -35t-38 -57t-14.5 -77.5
q0 -53 11.5 -106.5t37.5 -106.5q109 10 184.5 36.5t149.5 61.5l100 -262q-145 -59 -276 -93t-272 -34q-33 0 -77 3t-91.5 9t-94.5 15.5t-88 19.5v-555h-286z" />
    <glyph glyph-name="uni06F5" unicode="&#x6f5;" horiz-adv-x="1372" 
d="M178 453q0 217 95.5 403t263.5 356q-53 43 -101 76l-71 49l170 232q156 -102 286.5 -214t233.5 -241q106 -135 170.5 -306t64.5 -351q0 -115 -26.5 -203t-72.5 -149.5t-108.5 -93t-134.5 -31.5q-78 0 -129 30.5t-86 102.5q-39 -70 -89 -101.5t-128 -31.5
q-72 0 -134.5 31.5t-107.5 92t-70.5 148.5t-25.5 201zM465 492q0 -100 21.5 -164t84.5 -64q33 0 53.5 14.5t32 38t14.5 54t3 61.5h121q0 -31 3 -61.5t13 -53t29.5 -37t52.5 -14.5q66 0 88.5 56.5t22.5 160.5q0 147 -59.5 272.5t-160.5 239.5l-30 33q-123 -106 -206 -238.5
t-83 -297.5z" />
    <glyph glyph-name="uni06F6" unicode="&#x6f6;" horiz-adv-x="1388" 
d="M250 0v272q0 119 43 202t121 142q-53 90 -83 178.5t-30 188.5q0 98 32 181t94 144.5t153.5 96.5t210.5 35q111 0 214 -30t207 -69l-92 -254l-92 33q-37 12 -70.5 19.5t-68.5 10.5t-78 3q-45 0 -85 -12.5t-70.5 -37t-49 -60t-18.5 -80.5q0 -72 15 -123.5t50 -110.5l72 19
l311 77l60 -280l-273 -66q-59 -14 -111.5 -35.5t-91 -54.5t-61 -78t-22.5 -104v-207h-287z" />
    <glyph glyph-name="uni06F7" unicode="&#x6f7;" horiz-adv-x="1290" 
d="M10 1380h301l326 -1091h8l340 1091h301l-434 -1380h-426z" />
    <glyph glyph-name="uni06F8" unicode="&#x6f8;" horiz-adv-x="1290" 
d="M37 0l416 1380h426l434 -1380h-301l-340 1092h-8l-326 -1092h-301z" />
    <glyph glyph-name="uni06F9" unicode="&#x6f9;" horiz-adv-x="1296" 
d="M57 850q0 137 51.5 236.5t143.5 165t220 97t282 31.5h321v-1380h-287v354q-35 -4 -69.5 -7t-63.5 -3q-127 0 -236.5 29.5t-189 91t-126 157t-46.5 228.5zM344 850q0 -119 81 -169t212 -50q78 0 151 6v457h-108q-158 0 -247 -57.5t-89 -186.5z" />
    <glyph glyph-name="uni2000" unicode="&#x2000;" horiz-adv-x="1071" 
 />
    <glyph glyph-name="uni2001" unicode="&#x2001;" horiz-adv-x="2142" 
 />
    <glyph glyph-name="uni2002" unicode="&#x2002;" horiz-adv-x="1071" 
 />
    <glyph glyph-name="uni2003" unicode="&#x2003;" horiz-adv-x="2142" 
 />
    <glyph glyph-name="uni2004" unicode="&#x2004;" horiz-adv-x="714" 
 />
    <glyph glyph-name="uni2005" unicode="&#x2005;" horiz-adv-x="535" 
 />
    <glyph glyph-name="uni2006" unicode="&#x2006;" horiz-adv-x="357" 
 />
    <glyph glyph-name="uni2007" unicode="&#x2007;" horiz-adv-x="357" 
 />
    <glyph glyph-name="uni2008" unicode="&#x2008;" horiz-adv-x="267" 
 />
    <glyph glyph-name="uni2009" unicode="&#x2009;" horiz-adv-x="428" 
 />
    <glyph glyph-name="uni200A" unicode="&#x200a;" horiz-adv-x="119" 
 />
    <glyph glyph-name="uni2010" unicode="&#x2010;" horiz-adv-x="835" 
d="M94 451v266h647v-266h-647z" />
    <glyph glyph-name="uni2011" unicode="&#x2011;" horiz-adv-x="835" 
d="M94 451v266h647v-266h-647z" />
    <glyph glyph-name="figuredash" unicode="&#x2012;" horiz-adv-x="835" 
d="M94 451v266h647v-266h-647z" />
    <glyph glyph-name="endash" unicode="&#x2013;" horiz-adv-x="1212" 
d="M94 451v266h1024v-266h-1024z" />
    <glyph glyph-name="emdash" unicode="&#x2014;" horiz-adv-x="1703" 
d="M94 451v266h1516v-266h-1516z" />
    <glyph glyph-name="quoteleft" unicode="&#x2018;" horiz-adv-x="616" 
d="M45 1040l268 621h230l-195 -621h-303z" />
    <glyph glyph-name="quoteright" unicode="&#x2019;" horiz-adv-x="616" 
d="M45 1040l195 621h303l-269 -621h-229z" />
    <glyph glyph-name="quotesinglbase" unicode="&#x201a;" horiz-adv-x="616" 
d="M35 -340l194 621h303l-266 -621h-231z" />
    <glyph glyph-name="quotedblleft" unicode="&#x201c;" horiz-adv-x="1112" 
d="M45 1040l268 621h230l-195 -621h-303zM539 1040l268 621h231l-194 -621h-305z" />
    <glyph glyph-name="quotedblright" unicode="&#x201d;" horiz-adv-x="1112" 
d="M45 1040l195 621h303l-269 -621h-229zM539 1040l194 621h305l-268 -621h-231z" />
    <glyph glyph-name="quotedblbase" unicode="&#x201e;" horiz-adv-x="1122" 
d="M35 -340l194 621h303l-266 -621h-231zM539 -340l194 621h305l-268 -621h-231z" />
    <glyph glyph-name="dagger" unicode="&#x2020;" horiz-adv-x="1359" 
d="M84 950v267h453v444h286v-444h453v-267h-453v-950h-286v950h-453z" />
    <glyph glyph-name="daggerdbl" unicode="&#x2021;" horiz-adv-x="1437" 
d="M123 385v268h452v367h-452v268h452v373h287v-373h453v-268h-453v-367h453v-268h-453v-385h-287v385h-452z" />
    <glyph glyph-name="bullet" unicode="&#x2022;" horiz-adv-x="886" 
d="M57 772q0 80 30 150.5t81 123t121.5 83t154.5 30.5q82 0 153 -30.5t123 -83t80.5 -123t28.5 -150.5t-28.5 -149.5t-80.5 -121.5t-123 -83t-153 -31q-84 0 -154.5 31t-121.5 83t-81 121.5t-30 149.5z" />
    <glyph glyph-name="ellipsis" unicode="&#x2026;" horiz-adv-x="1892" 
d="M106 141q0 37 16.5 69t42 53.5t59.5 33.5t71 12t70.5 -12t59.5 -33.5t42 -53.5t16 -69t-16 -67.5t-42 -52t-59.5 -33t-70.5 -11.5t-71 11.5t-59.5 33t-42 52t-16.5 67.5zM758 141q0 37 15 69t42 53.5t60.5 33.5t68.5 12q37 0 71 -12t60.5 -33.5t43 -53.5t16.5 -69
t-16.5 -67.5t-43 -52t-60.5 -33t-71 -11.5q-35 0 -68.5 11.5t-60.5 33t-42 52t-15 67.5zM1409 141q0 37 15.5 69t42 53.5t60.5 33.5t68 12q37 0 71 -12t60.5 -33.5t43 -53.5t16.5 -69t-16.5 -67.5t-43 -52t-60.5 -33t-71 -11.5q-35 0 -68.5 11.5t-60 33t-42 52t-15.5 67.5z
" />
    <glyph glyph-name="uni202F" unicode="&#x202f;" horiz-adv-x="428" 
 />
    <glyph glyph-name="perthousand" unicode="&#x2030;" horiz-adv-x="3106" 
d="M102 1200q0 113 25 203t74 154.5t121.5 99.5t171 35t172 -35t123 -99.5t74 -154.5t24.5 -203t-24.5 -203t-74 -154.5t-123 -99t-172 -34.5t-171 34.5t-121.5 99t-74 154.5t-25 203zM336 1200q0 -139 43 -198.5t114.5 -59.5t114.5 59.5t43 198.5t-43 199.5t-114.5 60.5
t-114.5 -60.5t-43 -199.5zM377 2l1161 1659h293l-1161 -1659h-293zM1319 465q0 113 24.5 203t73.5 154.5t122 99t171 34.5t172 -34.5t123 -99t73.5 -154.5t24.5 -203t-24.5 -203t-73.5 -154.5t-123 -99.5t-172 -35t-171 35t-122 99.5t-73.5 154.5t-24.5 203zM1552 465
q0 -139 43 -198.5t115 -59.5t115 59.5t43 198.5t-43 199.5t-115 60.5t-115 -60.5t-43 -199.5zM2220 465q0 113 24.5 203t73.5 154.5t122 99t171.5 34.5t172 -34.5t122.5 -99t73.5 -154.5t24.5 -203t-24.5 -203t-73.5 -154.5t-122.5 -99.5t-172 -35t-171.5 35t-122 99.5
t-73.5 154.5t-24.5 203zM2454 465q0 -139 43 -198.5t114.5 -59.5t114.5 59.5t43 198.5t-43 199.5t-114.5 60.5t-114.5 -60.5t-43 -199.5z" />
    <glyph glyph-name="guilsinglleft" unicode="&#x2039;" horiz-adv-x="727" 
d="M53 590l320 524h301l-309 -522l307 -529h-297z" />
    <glyph glyph-name="guilsinglright" unicode="&#x203a;" horiz-adv-x="727" 
d="M53 1114h299l322 -524l-324 -527h-295l305 529z" />
    <glyph glyph-name="fraction" unicode="&#x2044;" horiz-adv-x="1331" 
d="M-61 2l1161 1659h293l-1162 -1659h-292z" />
    <glyph glyph-name="uni205F" unicode="&#x205f;" horiz-adv-x="535" 
 />
    <glyph glyph-name="Euro" unicode="&#x20ac;" horiz-adv-x="1812" 
d="M2 557l109 219h221q-2 14 -2 27v31q0 35 2 67.5t6 65.5h-336l109 219h280q45 113 119 206t174 158.5t225 101.5t273 36q156 0 299 -38t250 -104l-113 -260q-90 55 -196.5 90t-229.5 35q-141 0 -263 -55.5t-200 -169.5h617l-111 -219h-592q-6 -33 -8 -66t-2 -67v-31
q0 -12 2 -27h506l-111 -219h-344q33 -78 86 -135t118.5 -95t142.5 -56.5t159 -18.5q123 0 229.5 35t196.5 90l113 -260q-106 -66 -250 -104t-299 -38q-160 0 -293 42t-236.5 119t-176.5 183.5t-109 237.5h-365z" />
    <glyph glyph-name="trademark" unicode="&#x2122;" horiz-adv-x="2080" 
d="M45 1493v168h770v-168h-295v-752h-180v752h-295zM911 741v920h308l196 -752l195 752h305v-920h-176v770l-205 -770h-238l-204 770v-770h-181z" />
    <glyph glyph-name="Omega" unicode="&#x2126;" horiz-adv-x="1906" 
d="M133 995q0 168 66.5 298t179.5 218t261 134.5t312 46.5t312.5 -46.5t262 -134.5t180.5 -218t67 -298q0 -123 -37 -226t-99.5 -184t-147.5 -135.5t-181 -76.5v-107h424v-266h-668v561q203 29 313.5 138.5t110.5 279.5q0 109 -42 191.5t-116 138t-171 84t-207.5 28.5
t-208 -28.5t-170 -84t-115.5 -138.5t-43 -191q0 -170 111.5 -279.5t312.5 -138.5v-561h-668v266h424v107q-96 23 -181 77t-147.5 135t-98.5 184t-36 226z" />
    <glyph glyph-name="twothirds" unicode="&#x2154;" horiz-adv-x="2105" 
d="M205 709l256 297l63 73q37 43 71 91.5t58.5 95.5t24.5 86q0 66 -33 108.5t-96 42.5q-33 0 -56.5 -15t-39 -39t-22.5 -51.5t-5 -54.5h-207q4 68 27.5 125.5t64.5 99.5t100.5 66.5t137.5 24.5q68 0 127 -22.5t103 -62.5t69.5 -94.5t25.5 -117.5q0 -102 -52 -183t-122 -155
l-147 -158h328v-157h-676zM602 8l830 1589l139 -69l-828 -1591zM1235 272h197q4 -55 40.5 -95t102 -40t100.5 47t35 101q0 27 -9 54.5t-27.5 49t-45 33.5t-59.5 10l-37 -2v129h22q61 0 94 35t33 94q0 47 -29.5 82t-84.5 35q-53 0 -80 -37t-29 -80h-186q12 121 92 193.5
t215 72.5q129 0 209 -69.5t80 -190.5q0 -53 -22.5 -107.5t-73.5 -86.5q70 -29 99.5 -95.5t29.5 -130.5q0 -68 -26 -123t-70 -93t-105.5 -58t-132.5 -20q-70 0 -128.5 22.5t-102.5 61t-70.5 93t-30.5 115.5z" />
    <glyph glyph-name="partialdiff" unicode="&#x2202;" horiz-adv-x="1462" 
d="M92 584q0 121 43 231.5t120 195.5t182.5 136t232.5 51q57 0 104 -8l-375 471h369l381 -508q104 -139 162.5 -273.5t58.5 -295.5q0 -133 -52 -245t-140 -192.5t-204 -126t-243 -45.5q-129 0 -244.5 46.5t-203.5 127t-139.5 192.5t-51.5 243zM389 594q0 -70 24.5 -131.5
t69.5 -107.5t107.5 -72.5t140.5 -26.5t140.5 26.5t107.5 72.5t68.5 107.5t23.5 131.5t-24.5 130t-68.5 106.5t-107.5 73t-139.5 26.5q-78 0 -140.5 -26.5t-107.5 -73t-69.5 -106.5t-24.5 -130z" />
    <glyph glyph-name="Delta" unicode="&#x2206;" horiz-adv-x="1683" 
d="M31 -2l811 1700l811 -1700h-1622zM385 219h918l-461 969z" />
    <glyph glyph-name="product" unicode="&#x220f;" horiz-adv-x="1626" 
d="M166 -451v2112h1294v-2112h-286v1846h-721v-1846h-287z" />
    <glyph glyph-name="summation" unicode="&#x2211;" horiz-adv-x="1462" 
d="M61 -184l734 790l-734 789v266h1340v-266h-1000l736 -789l-736 -790h1000v-267h-1340v267z" />
    <glyph glyph-name="minus" unicode="&#x2212;" horiz-adv-x="1247" 
d="M94 451v266h1059v-266h-1059z" />
    <glyph glyph-name="radical" unicode="&#x221a;" horiz-adv-x="1527" 
d="M41 475l436 162l314 -772l374 1796h281l-440 -2081h-355l-332 764l-202 -74z" />
    <glyph glyph-name="infinity" unicode="&#x221e;" horiz-adv-x="1937" 
d="M61 616.5q0 94.5 34 172t95.5 134t147.5 88t190 31.5q141 0 249 -63.5t194 -155.5q90 98 193.5 158.5t246.5 60.5q102 0 187 -31.5t146.5 -88t96.5 -134t35 -172.5q0 -96 -33 -175t-93 -135t-145 -88t-188 -32q-141 0 -248.5 68t-197.5 168q-45 -49 -95.5 -91t-105.5 -74
t-117.5 -50.5t-132.5 -18.5q-102 0 -187 32t-145.5 88.5t-93.5 135t-33 173zM338 616q0 -70 53 -118.5t135 -48.5q84 0 148.5 46t130.5 123q-57 66 -123 116t-149.5 50t-139 -45t-55.5 -123zM1137 618q59 -72 125.5 -120.5t150.5 -48.5q80 0 133 48t53 119.5t-52 119.5
t-142 48q-82 0 -147.5 -50t-120.5 -116z" />
    <glyph glyph-name="integral" unicode="&#x222b;" horiz-adv-x="892" 
d="M-20 -184h149q55 0 89 11t53.5 33.5t25.5 57.5t6 82v1264q0 207 109.5 302t349.5 95h151v-266h-149q-55 0 -89 -11.5t-53.5 -34t-25.5 -57.5t-6 -82v-1263q0 -207 -109.5 -302.5t-349.5 -95.5h-151v267z" />
    <glyph glyph-name="approxequal" unicode="&#x2248;" horiz-adv-x="1318" 
d="M94 133q10 180 84 280.5t217 100.5q76 0 146.5 -25.5t134.5 -54.5l119 -57q55 -25 100 -25q59 0 93 37t44 123h195q-10 -184 -84 -282.5t-215 -98.5q-72 0 -139.5 24.5t-131 55.5t-122 55.5t-111.5 24.5q-57 0 -92 -36t-43 -122h-195zM94 631q10 182 84 281.5t217 99.5
q76 0 146.5 -24.5t134.5 -55.5l119 -55q55 -25 100 -25q59 0 93 36t44 122h195q-10 -182 -84 -281.5t-215 -99.5q-72 0 -139.5 24.5t-131 55t-122 55t-111.5 24.5q-57 0 -92 -34.5t-43 -122.5h-195z" />
    <glyph glyph-name="notequal" unicode="&#x2260;" horiz-adv-x="1247" 
d="M92 -115l180 301h-178v269h338l156 260h-494v266h654l155 260h250l-156 -260h156v-266h-313l-156 -260h469v-269h-629l-178 -301h-254z" />
    <glyph glyph-name="lessequal" unicode="&#x2264;" horiz-adv-x="1413" 
d="M111 0v217h1192v-217h-1192zM111 596v293l1192 319v-239l-897 -228l897 -227v-242z" />
    <glyph glyph-name="greaterequal" unicode="&#x2265;" horiz-adv-x="1413" 
d="M111 0v217h1192v-217h-1192zM111 272v242l897 227l-897 228v239l1192 -319v-293z" />
    <glyph glyph-name="lozenge" unicode="&#x25ca;" horiz-adv-x="1302" 
d="M39 772l616 971l607 -971l-607 -969zM315 772l340 -559l342 559l-342 561z" />
    <glyph glyph-name="uni25CC" unicode="&#x25cc;" horiz-adv-x="1402" 
d="M205 477q0 27 18.5 45.5t44.5 18.5q29 0 46.5 -18.5t17.5 -45.5q0 -29 -17.5 -46t-46.5 -17q-27 0 -45 17t-18 46zM264 262.5q0 26.5 17.5 45t46.5 18.5q27 0 45 -18.5t18 -45t-18.5 -45t-44.5 -18.5q-29 0 -46.5 18.5t-17.5 45zM264 698.5q0 26.5 17.5 45t46.5 18.5
q27 0 45 -18.5t18 -45t-18.5 -45t-44.5 -18.5q-29 0 -46.5 18.5t-17.5 45zM424 104q0 27 18.5 45.5t46.5 18.5q27 0 45.5 -18.5t18.5 -45.5q0 -29 -18.5 -46t-45.5 -17q-29 0 -47 17t-18 46zM424 866q0 27 18.5 45.5t46.5 18.5q27 0 45.5 -18.5t18.5 -45.5q0 -29 -18.5 -47
t-45.5 -18q-29 0 -47 18t-18 47zM637 45q0 29 18.5 46.5t46.5 17.5q27 0 45.5 -17.5t18.5 -46.5q0 -27 -18.5 -45t-45.5 -18q-29 0 -47 18t-18 45zM637 918q0 27 18.5 45t46.5 18q27 0 45.5 -18.5t18.5 -44.5q0 -29 -18.5 -47.5t-45.5 -18.5q-29 0 -47 18.5t-18 47.5z
M856 104q0 27 18.5 45.5t45.5 18.5q29 0 46 -18.5t17 -45.5q0 -29 -17.5 -46t-45.5 -17q-27 0 -45.5 17t-18.5 46zM856 866q0 27 18.5 45.5t45.5 18.5q29 0 46 -18.5t17 -45.5q0 -29 -17.5 -47t-45.5 -18q-27 0 -45.5 18t-18.5 47zM1020 262.5q0 26.5 18.5 45t45 18.5
t45 -18.5t18.5 -45t-18.5 -45t-45 -18.5t-45 18.5t-18.5 45zM1020 698.5q0 26.5 18.5 45t45 18.5t45 -18.5t18.5 -45t-18.5 -45t-45 -18.5t-45 18.5t-18.5 45zM1071 477q0 27 18.5 45.5t45 18.5t45 -18.5t18.5 -45.5q0 -29 -18.5 -46t-45 -17t-45 17t-18.5 46z" />
    <glyph glyph-name="uni25FC" unicode="&#x25fc;" horiz-adv-x="1157" 
d="M0 0v1157h1157v-1157h-1157z" />
    <glyph glyph-name="uni274A" unicode="&#x274a;" horiz-adv-x="1126" 
d="M20 1085v33q43 23 108 33t136 10q74 0 138.5 -14t103.5 -31v-31q-41 -18 -104.5 -29.5t-137.5 -11.5q-68 0 -135.5 12.5t-108.5 28.5zM168 731q16 47 53 98.5t90 102.5q51 53 107.5 88t93.5 51l23 -20q-16 -41 -52.5 -95.5t-89.5 -105.5q-49 -47 -106.5 -87t-93.5 -56z
M170 1475l23 22q41 -16 93 -53t105 -90q49 -47 88 -104.5t56 -96.5l-23 -23q-47 16 -99.5 52.5t-105.5 89.5q-51 51 -86 107.5t-51 95.5zM504 803q0 74 14 138.5t31 102.5h31q18 -41 29.5 -104t11.5 -137q0 -68 -12.5 -135.5t-28.5 -108.5h-33q-23 43 -33 107.5t-10 136.5z
M504 1403q0 74 14 137.5t31 104.5h31q18 -41 29.5 -104.5t11.5 -137.5q0 -70 -12.5 -137.5t-28.5 -106.5h-33q-23 43 -33 106.5t-10 137.5zM592 1153q16 47 52 99.5t89 105.5q51 51 107.5 86t95.5 51l22 -22q-16 -41 -53 -93.5t-90 -105.5q-47 -49 -104.5 -88t-96.5 -56z
M594 1051l20 22q41 -16 95.5 -52t105.5 -89q47 -49 87 -106.5t56 -94.5l-24 -24q-47 16 -98.5 53t-102.5 90q-53 51 -88 107.5t-51 93.5zM621 1085v33q43 23 106.5 33t137 10t137 -14t104.5 -31v-31q-41 -18 -104.5 -29.5t-137.5 -11.5q-70 0 -137.5 12.5t-105.5 28.5z" />
    <glyph glyph-name="apple" unicode="&#xf8ff;" horiz-adv-x="1738" 
d="M205 131v80h190v-436h66v499h-146v1387h226v-1966h-226v436h-110zM315 -369h289v2034h80v-2116h-369v82zM389 1700v82h82v-82h-82zM395 358h66v1223h-66v-1223zM754 358h145v1223h-68v-1128h-77v1208h225v-1387h-148v-643h68v109h80v-191h-225v809zM1065 -451v2114h215
v-35h-184v-2079h-31zM1354 299v1364h180v-2114h-33v750h-147zM1389 330h112v1298h-112v-1298z" />
    <glyph glyph-name="uniFB01" unicode="&#xfb01;" horiz-adv-x="1658" 
d="M51 887v266h217v111q0 207 109.5 302t349.5 95h274v-266h-272q-55 0 -89 -11.5t-53.5 -34t-25.5 -57.5t-6 -82v-57h438v-266h-438v-887h-287v887h-217zM1184 1487q0 68 48 109.5t119.5 41.5t119 -42t47.5 -109q0 -70 -46 -112t-120 -42q-68 0 -118 39t-50 115zM1208 0
v1153h287v-1153h-287z" />
    <glyph glyph-name="uniFB02" unicode="&#xfb02;" horiz-adv-x="1660" 
d="M51 887v266h217v111q0 207 109.5 302t349.5 95h274v-266h-272q-55 0 -89 -11.5t-53.5 -34t-25.5 -57.5t-6 -82v-57h438v-266h-438v-887h-287v887h-217zM1208 0v1661h287v-1661h-287z" />
    <glyph glyph-name="uniFD3E" unicode="&#xfd3e;" horiz-adv-x="747" 
d="M61 502v209q55 2 89 22.5t51.5 55t23.5 80.5t6 102v344q0 102 17.5 169.5t59.5 106.5t111.5 54.5t176.5 15.5h121v-207h-66q-47 0 -73.5 -6t-40 -22.5t-16.5 -46t-3 -76.5v-361q0 -86 -14.5 -144.5t-41 -96t-62 -58t-78.5 -33.5v-4q43 -12 78.5 -33.5t62 -59.5t41 -96.5
t14.5 -144.5v-364q0 -47 3 -77t16.5 -46t40 -22.5t73.5 -6.5h66v-207h-121q-106 0 -176 15.5t-112 54.5t-59.5 106.5t-17.5 170.5v348q0 53 -6 100t-23.5 81t-51 54.5t-89.5 22.5z" />
    <glyph glyph-name="uniFD3F" unicode="&#xfd3f;" horiz-adv-x="747" 
d="M31 -244h47q47 0 76.5 6.5t46 22.5t21.5 46t5 77v364q0 86 14.5 144.5t41 96.5t62.5 59.5t79 33.5v4q-43 12 -79 33t-62.5 58.5t-41 96t-14.5 144.5v361q0 47 -5 76.5t-21.5 46t-46 22.5t-76.5 6h-47v207h119q106 0 175.5 -15.5t111.5 -54.5t59.5 -106.5t17.5 -169.5
v-344q0 -55 6 -101.5t24.5 -81t52.5 -55t89 -22.5v-209q-55 -2 -89 -22.5t-52.5 -54.5t-24.5 -81t-6 -100v-348q0 -102 -17.5 -170t-59.5 -107t-111.5 -54.5t-175.5 -15.5h-119v207z" />
    <glyph glyph-name="uni0627.short" horiz-adv-x="706" 
d="M266 0v1413h287v-1413h-287z" />
    <glyph glyph-name="uni0627.shortfina" horiz-adv-x="774" 
d="M266 0v1413h287v-1126h262v-287h-549z" />
    <glyph glyph-name="uni066E.initalt" horiz-adv-x="839" 
d="M0 0v287h428v866h287v-1153h-715z" />
    <glyph glyph-name="uni066E.medialt" horiz-adv-x="1050" 
d="M0 0v287h428v866h287v-866h377v-287h-1092z" />
    <glyph glyph-name="uni06C3.fina" horiz-adv-x="1091" 
d="M94 303v303q0 150 43 256.5t135 179.5q72 57 171.5 85t218.5 28h385v-868h206v-287h-493v868h-129q-53 0 -96 -11t-78 -40t-55.5 -74t-20.5 -98v-342h-287zM266 1456q0 66 46 106t114 40t114 -40t46 -106q0 -72 -47 -109.5t-113 -37.5t-113 37.5t-47 109.5zM711 1456
q0 66 46 106t113 40q70 0 115 -40t45 -106q0 -72 -47 -109.5t-112.5 -37.5t-112.5 37.5t-47 109.5z" />
    <glyph glyph-name="uni06C2.fina" horiz-adv-x="1091" 
d="M94 303v303q0 150 43 256.5t135 179.5q72 57 171.5 85t218.5 28h385v-868h206v-287h-493v868h-129q-53 0 -96 -11t-78 -40t-55.5 -74t-20.5 -98v-342h-287zM610 1321v149q0 139 69 196.5t189 57.5h123v-92h-106q-61 0 -86 -26.5t-25 -75.5v-55h283v-154h-447z" />
    <glyph glyph-name="wasle" horiz-adv-x="202" 
d="M-80 0l92 287h232v-287h-324z" />
    <glyph glyph-name="wasle_alt" horiz-adv-x="358" 
d="M-80 0l92 287h387v-287h-479z" />
    <glyph glyph-name="uni0654.medi" horiz-adv-x="686" 
d="M115 1249v150q0 139 68.5 196.5t189.5 57.5h123v-92h-107q-61 0 -85.5 -27t-24.5 -76v-55h282v-154h-446z" />
    <glyph glyph-name="uni0654064B" 
d="M-231 559v96l458 66v-96zM-229 391v96l458 66v-96zM-190 0v74q0 139 68.5 196.5t189.5 57.5h102v-92h-86q-61 0 -86 -27t-25 -76h263v-133h-426z" />
    <glyph glyph-name="uni0654064E" 
d="M-229 395v103l458 65v-102zM-195 0v74q0 139 69 196.5t189 57.5h103v-92h-86q-61 0 -86 -27t-25 -76h262v-133h-426z" />
    <glyph glyph-name="uni0654064C" 
d="M-276 594l96 39l51 -144l96 15q-12 31 -12 63q0 68 40 122t130 54q68 0 109.5 -46t41.5 -119q0 -27 -2 -58t-10 -71l-457 -72zM-158 0v74q0 139 69 196.5t189 57.5h103v-92h-86q-61 0 -86 -27t-25 -76h262v-133h-426zM45 573q0 -31 8 -55l123 21q2 8 2 32
q0 29 -16.5 50.5t-50.5 21.5q-27 0 -46.5 -18.5t-19.5 -51.5z" />
    <glyph glyph-name="uni0654064F" 
d="M-240 471l162 27q-12 31 -12 63q0 68 39 122t129 54q70 0 111.5 -46t41.5 -120q0 -27 -2 -57.5t-10 -71.5l-448 -67zM-186 -2v74q0 139 68.5 196.5t189.5 57.5h102v-93h-86q-61 0 -86 -26.5t-25 -75.5h263v-133h-426zM-2 567.5q0 -32.5 8 -55.5l123 20q4 16 4 33
q0 29 -16.5 50.5t-50.5 21.5q-29 0 -48.5 -18.5t-19.5 -51z" />
    <glyph glyph-name="uni06540652" 
d="M-213 0v74q0 139 68.5 196.5t189.5 57.5h102v-92h-86q-61 0 -85.5 -27t-24.5 -76h262v-133h-426zM-170 575q0 88 49 137.5t127 49.5q80 0 124 -50t44 -136.5t-51 -134.5t-129 -48q-76 0 -120 43t-44 139zM-72 578q0 -55 21.5 -72t50.5 -17t52.5 16.5t23.5 67.5
q0 47 -22.5 69t-53.5 22q-23 0 -47.5 -18.5t-24.5 -67.5z" />
    <glyph glyph-name="uni0654064D" 
d="M-231 -254q0 139 68.5 196.5t189.5 57.5h102v-92h-86q-61 0 -86 -26.5t-25 -76.5h263v-133h-426v74zM-227 -424l458 66v-97l-458 -65v96zM-225 -592l458 66v-97l-458 -65v96z" />
    <glyph glyph-name="uni06550650" 
d="M-231 -254q0 139 68.5 196.5t189.5 57.5h102v-92h-86q-61 0 -86 -26.5t-25 -76.5h263v-133h-426v74zM-227 -440l458 65v-102l-458 -66v103z" />
    <glyph glyph-name="wasla" 
d="M-279 0v113h142q0 37 12 70.5t37 59t59.5 42t77.5 16.5q104 0 168 -55.5t64 -165.5v-80h-560zM-45 113h182q0 37 -22.5 66.5t-69.5 29.5t-68.5 -28.5t-21.5 -67.5z" />
    <glyph glyph-name="uni0651064B" 
d="M-276 246l100 20l20 -110q8 -35 23.5 -46.5t34.5 -11.5q29 0 45 21.5t16 62.5q0 20 -4 48t-10 59l102 14l21 -110q10 -51 55 -52q57 0 57 60q0 27 -6 61.5t-22 73.5l102 22q6 -33 12 -59l9 -47q4 -25 4 -41q0 -82 -43 -124t-121 -42q-29 0 -52.5 15.5t-35.5 33.5
q-16 -37 -50 -65.5t-87 -28.5q-51 0 -92.5 29.5t-55.5 101.5zM-254 512v96l459 66v-96zM-252 344v96l459 66v-96z" />
    <glyph glyph-name="uni06F4.urdu" horiz-adv-x="1495" 
d="M281 0v1380h286l383 -342l391 342v-376l-391 -336l-383 317v-985h-286z" />
    <glyph glyph-name="uni06F7.urdu" horiz-adv-x="1177" 
d="M154 0v289l469 1091h311l-469 -1093h559v-287h-870z" />
    <glyph glyph-name="acute.case" horiz-adv-x="649" 
d="M61 1731l242 286h285l-293 -286h-234z" />
    <glyph glyph-name="circumflex.case" horiz-adv-x="968" 
d="M61 1731l277 286h297l272 -286h-239l-181 172l-186 -172h-240z" />
    <glyph glyph-name="dieresis.case" horiz-adv-x="976" 
d="M61 1876q0 61 43 99t109 38t110 -38t44 -99q0 -68 -48 -104q-43 -37 -106 -37q-59 0 -105.5 36.5t-46.5 104.5zM612 1876q0 61 43 99t108.5 38t108.5 -38t43 -99q0 -70 -45 -104q-43 -37 -106 -37q-61 0 -106.5 36.5t-45.5 104.5z" />
    <glyph glyph-name="grave.case" horiz-adv-x="649" 
d="M61 2017h287l240 -286h-234z" />
    <glyph glyph-name="ring.case" horiz-adv-x="557" 
d="M61 1937q0 90 64 147.5t156 57.5q90 0 152.5 -57t62.5 -148q0 -92 -61.5 -149t-154 -57t-156 57t-63.5 149zM162 1937q0 -53 35.5 -83.5t83 -30.5t81 30.5t33.5 83.5q0 51 -33.5 83t-81 32t-83 -31.5t-35.5 -83.5z" />
    <glyph glyph-name="tilde.case" horiz-adv-x="899" 
d="M61 1741q10 123 74 194.5t158 71.5q51 0 91 -17.5t74 -38t65.5 -38t68.5 -17.5q51 0 73.5 29t32.5 82h140q-10 -133 -74 -199.5t-156 -66.5q-51 0 -91 17.5t-74.5 38t-67.5 37.5t-70 17q-51 0 -71.5 -28.5t-30.5 -81.5h-142z" />
    <glyph glyph-name="cedilla.case" horiz-adv-x="546" 
d="M61 -313q23 -10 74 -21.5t92 -11.5q47 0 89 14.5t42 57.5q0 45 -43 59t-96 14q-39 0 -74.5 -5t-58.5 -9l129 217h113l-70 -117q33 2 73 -2t74.5 -21.5t57 -48t22.5 -79.5q0 -51 -20.5 -87t-55 -59.5t-79.5 -34t-94 -10.5q-47 0 -84 5.5t-82 21.5z" />
    <glyph glyph-name="caron.case" horiz-adv-x="968" 
d="M61 2017h226l194 -174l199 174h227l-291 -286h-268z" />
    <glyph glyph-name="macron.case" horiz-adv-x="724" 
d="M61 1784v176h603v-176h-603z" />
    <glyph glyph-name="breve.case" horiz-adv-x="831" 
d="M61 2036h150q10 -90 68.5 -124t136.5 -34q76 0 136 34t71 124h147q-10 -150 -103.5 -227.5t-252.5 -77.5q-154 0 -248 77.5t-105 227.5z" />
    <glyph glyph-name="dotaccent.case" horiz-adv-x="428" 
d="M61 1876q0 61 43 99t109 38t110 -38t44 -99q0 -68 -48 -104q-43 -37 -106 -37q-59 0 -105.5 36.5t-46.5 104.5z" />
    <glyph glyph-name="hungarumlaut.case" horiz-adv-x="1118" 
d="M61 1731l242 286h285l-293 -286h-234zM530 1731l240 286h287l-291 -286h-236z" />
    </font>
</defs>
</svg>
